<svg width="190" height="31" viewBox="0 0 190 31" fill="none" xmlns="http://www.w3.org/2000/svg">
<path fill-rule="evenodd" clip-rule="evenodd" d="M28.4571 0.250193C28.5103 0.250312 28.5634 0.250269 28.6165 0.250135C29.1726 0.248773 29.7355 0.256144 30.2858 0.34498C30.3253 0.35117 30.3648 0.355502 30.4046 0.359518C30.5689 0.37713 30.7324 0.401216 30.8958 0.425591L30.9411 0.432278C31.0289 0.445205 31.1156 0.460671 31.2023 0.479889C31.2521 0.490608 31.3027 0.498889 31.353 0.507119C31.4454 0.52269 31.5365 0.541546 31.6277 0.56292C31.6917 0.577883 31.7558 0.591301 31.8203 0.603755C31.9173 0.622669 32.0128 0.646052 32.1085 0.670689C32.138 0.678218 32.1676 0.685525 32.1972 0.692779C32.414 0.745972 32.6285 0.806484 32.842 0.871422C32.8675 0.87913 32.8931 0.886687 32.9187 0.8942C33.047 0.931978 33.1738 0.973445 33.3005 1.0163L33.3709 1.03971C33.4652 1.07082 33.5586 1.10403 33.6518 1.13856L33.7707 1.18247C33.8222 1.20128 33.8739 1.21952 33.9256 1.23764C33.9667 1.25289 34.006 1.27099 34.0456 1.28956C34.0841 1.30694 34.1235 1.3218 34.163 1.33671L34.1744 1.34102C34.2381 1.36557 34.3012 1.39182 34.3642 1.41807L34.3678 1.41956L34.4218 1.44183C34.4984 1.47343 34.574 1.50695 34.6493 1.54165L34.6821 1.55669C34.7287 1.5781 34.7751 1.59969 34.8208 1.62286C34.8492 1.63701 34.8764 1.64929 34.9061 1.66013C34.9612 1.68168 35.0134 1.7079 35.0661 1.7347C35.1195 1.76178 35.1734 1.78729 35.2277 1.81236C35.2847 1.83877 35.3385 1.86705 35.3917 1.90044C35.4278 1.9217 35.4649 1.94015 35.5024 1.95864C35.6117 2.01257 35.7183 2.07029 35.8233 2.13214C35.8522 2.14895 35.8814 2.16512 35.9108 2.18104C36.0392 2.25065 36.1641 2.32542 36.2884 2.40193C36.3145 2.41786 36.3406 2.43351 36.3669 2.4491C36.4225 2.48239 36.4771 2.51729 36.5317 2.55236L36.6247 2.61219C36.6745 2.64481 36.6993 2.66111 36.7245 2.6769C36.7497 2.69267 36.7752 2.70793 36.8262 2.73843L36.8494 2.75357V2.77475L36.8678 2.77819C36.8953 2.78642 36.9123 2.79809 36.9354 2.81513C36.9721 2.84163 37.0091 2.86717 37.047 2.89191L37.0732 2.90908L37.1258 2.94326L37.1503 2.9593L37.1724 2.97366L37.1883 2.98656V3.00774L37.2055 3.00972C37.2357 3.02005 37.257 3.03883 37.2801 3.05905L37.2942 3.07128L37.3259 3.08187V3.10305L37.3469 3.10942C37.3885 3.12867 37.4221 3.15572 37.4574 3.18407L37.4669 3.19174L37.5442 3.25273C37.5816 3.28194 37.6195 3.31036 37.6575 3.33868L37.7597 3.415L37.8184 3.45915L37.8363 3.47244C37.8501 3.48295 37.8634 3.49415 37.8766 3.50548V3.52666H37.9084C37.9201 3.53841 37.9318 3.55024 37.9431 3.5624C37.9706 3.58836 38.0016 3.60972 38.0326 3.63112L38.049 3.64249C38.0791 3.66531 38.1042 3.69048 38.1308 3.71728C38.1614 3.74252 38.1925 3.76703 38.2237 3.79154L38.2473 3.81259V3.83378H38.2791C38.2916 3.84559 38.304 3.85754 38.3158 3.8701C38.3349 3.88973 38.3551 3.90772 38.3757 3.92578L38.397 3.94443C38.4061 3.95232 38.4113 3.95677 38.4168 3.96089C38.4238 3.96624 38.4313 3.97103 38.4485 3.98204V4.00322L38.4657 4.0105C38.4996 4.02923 38.5257 4.05126 38.5544 4.07735V4.09853L38.5716 4.10581C38.627 4.1364 38.6712 4.18205 38.7149 4.22721L38.73 4.24282C38.7612 4.27439 38.7927 4.30472 38.8264 4.3335C38.8719 4.37253 38.9137 4.41486 38.9555 4.45768C38.9797 4.48229 39.0021 4.50291 39.031 4.52214V4.54332L39.0627 4.55391V4.57509L39.0945 4.58568C39.1088 4.60316 39.123 4.62081 39.1369 4.63863L39.1686 4.65981V4.68099L39.2004 4.69158V4.71276L39.2322 4.72335C39.2351 4.72637 39.2375 4.72879 39.2396 4.73088C39.2421 4.73351 39.2441 4.73563 39.2461 4.7378C39.2503 4.74251 39.2543 4.74745 39.2632 4.75837C39.3033 4.806 39.3471 4.84927 39.392 4.8924C39.4062 4.90627 39.4198 4.92068 39.4334 4.93516V4.95634L39.4652 4.96693C39.4719 4.97356 39.4755 4.97721 39.479 4.98101C39.4833 4.98565 39.4873 4.99053 39.4963 5.00135C39.5209 5.0305 39.5459 5.05897 39.572 5.08677L39.5894 5.10528L39.624 5.14186C39.6486 5.1681 39.6655 5.18655 39.677 5.2211L39.7087 5.23169C39.7286 5.25455 39.7361 5.26308 39.7389 5.27293C39.7405 5.27879 39.7405 5.28512 39.7405 5.29523L39.7587 5.3023C39.7889 5.31995 39.8062 5.34179 39.8274 5.3687L39.8305 5.37267L39.8547 5.40299L39.899 5.45983C39.9211 5.48648 39.9449 5.5103 39.9693 5.53465L39.9735 5.5388C39.9938 5.56159 40.0135 5.5849 40.0331 5.6083L40.0484 5.6264C40.1063 5.69515 40.1185 5.70966 40.1211 5.72572C40.1218 5.73002 40.1218 5.73443 40.1218 5.74002L40.1535 5.75061C40.1709 5.77103 40.1868 5.7912 40.2025 5.81282L40.2156 5.83024C40.235 5.85654 40.249 5.87823 40.2594 5.90946H40.2806C40.3013 5.93442 40.3209 5.95955 40.3402 5.98558L40.3774 6.03505L40.3974 6.06176C40.4189 6.09037 40.4407 6.11883 40.4625 6.14724L40.5279 6.23261C40.5683 6.28544 40.6071 6.33908 40.6449 6.39371C40.6713 6.43123 40.6994 6.46734 40.7276 6.50349L40.7379 6.51666C40.755 6.54172 40.7634 6.55766 40.7678 6.58723H40.7889C40.7971 6.59713 40.8017 6.60258 40.806 6.6082C40.8113 6.6151 40.8162 6.62225 40.8273 6.63816L40.8476 6.66687C40.8552 6.67975 40.8591 6.68631 40.861 6.69341C40.8631 6.70078 40.8631 6.70872 40.8631 6.72491H40.8843C40.9031 6.75016 40.9207 6.77534 40.9379 6.80169L40.9526 6.82357C40.9753 6.85781 40.9924 6.88547 41.0007 6.92612H41.0219C41.0283 6.9348 41.032 6.93977 41.0354 6.94486C41.04 6.95163 41.0443 6.95862 41.0542 6.97486L41.0961 7.04261L41.1145 7.07145L41.1437 7.11675L41.2117 7.22248L41.2464 7.27676C41.2713 7.3166 41.2953 7.35688 41.3194 7.39717L41.329 7.41327L41.3604 7.46548C41.4125 7.55209 41.4644 7.63876 41.515 7.72626C41.5284 7.74898 41.5424 7.7711 41.5567 7.7932C41.5853 7.83804 41.6082 7.88573 41.6311 7.93354L41.6378 7.94742C41.6554 7.98263 41.676 8.01538 41.6971 8.04854C41.7178 8.08209 41.7359 8.11693 41.754 8.15194C41.7804 8.20256 41.8071 8.25293 41.8351 8.30273C41.884 8.39001 41.9305 8.47653 41.9691 8.56892C41.9916 8.62224 42.0176 8.67296 42.0452 8.72381C42.0771 8.78276 42.1053 8.84146 42.1299 8.90392C42.1461 8.942 42.1646 8.9786 42.1835 9.01538C42.2294 9.10608 42.2697 9.19877 42.3093 9.29238L42.3292 9.33906C42.3626 9.41744 42.3955 9.49601 42.4281 9.57475L42.4371 9.59646C42.4626 9.65862 42.4862 9.72145 42.5095 9.78449C42.5262 9.82953 42.5438 9.87421 42.5614 9.91892L42.5628 9.92249C42.5906 9.99337 42.6166 10.0647 42.6416 10.1366C42.6554 10.1763 42.6698 10.2154 42.6859 10.2541C42.7059 10.3029 42.7211 10.3527 42.7362 10.4032C42.7497 10.4471 42.764 10.4906 42.7786 10.5341L42.7868 10.5587C42.8001 10.5985 42.8136 10.6383 42.8273 10.678C42.8625 10.7806 42.8929 10.884 42.9217 10.9886C42.941 11.0585 42.9612 11.128 42.9824 11.1973C43.011 11.2912 43.0352 11.3857 43.0583 11.4811C43.0644 11.506 43.0706 11.5308 43.0769 11.5557C43.0811 11.5727 43.0854 11.5897 43.0897 11.6067L43.0938 11.623C43.1093 11.6847 43.1247 11.7465 43.14 11.8082L43.1466 11.8347C43.1889 12.0065 43.2219 12.1803 43.2549 12.3541L43.2698 12.4324C43.2815 12.4938 43.2936 12.5551 43.3061 12.6164C43.3172 12.6717 43.3266 12.7271 43.3349 12.7829C43.34 12.8174 43.3455 12.8517 43.3512 12.886L43.3567 12.9201L43.3677 12.9867C43.3792 13.0571 43.3884 13.1276 43.3965 13.1984C43.403 13.255 43.41 13.3115 43.4173 13.368C43.4457 13.5891 43.4718 13.8099 43.4895 14.0322L43.4915 14.0577C43.521 14.4324 43.5263 14.8061 43.5253 15.1817C43.5252 15.2349 43.5252 15.288 43.5254 15.3411C43.5269 15.9755 43.488 16.6014 43.4047 17.2304L43.4003 17.2641C43.3915 17.3306 43.3824 17.397 43.373 17.4634L43.3695 17.4878C43.3344 17.7369 43.2932 17.9859 43.2376 18.2313C43.2235 18.2936 43.2113 18.3562 43.1991 18.4188L43.1976 18.4265C43.1808 18.5112 43.1626 18.595 43.1409 18.6786C43.1292 18.7236 43.1185 18.7688 43.1078 18.8141L43.107 18.8173C43.0536 19.0422 42.9938 19.2643 42.9272 19.4857C42.9139 19.5301 42.9008 19.5747 42.8878 19.6192L42.8646 19.6979L42.8579 19.721C42.8346 19.8 42.8087 19.878 42.7826 19.9561L42.7755 19.9773C42.7357 20.0964 42.6949 20.2151 42.6528 20.3334L42.6411 20.3664L42.6032 20.473L42.5913 20.5064C42.5711 20.5628 42.5494 20.6177 42.5246 20.6722C42.5111 20.7026 42.4999 20.7336 42.4887 20.7649C42.3937 21.0231 42.2872 21.283 42.1616 21.5278C42.1435 21.5631 42.1272 21.5981 42.1134 21.6353C42.0936 21.6877 42.0672 21.7364 42.0407 21.7854L42.0317 21.8021C42.0047 21.8524 41.9801 21.9031 41.957 21.9552C41.9095 22.0598 41.8559 22.1609 41.7989 22.2605C41.766 22.3185 41.7358 22.3776 41.7066 22.4375C41.6882 22.4751 41.6686 22.511 41.6467 22.5467L41.617 22.6023C41.5967 22.6398 41.5755 22.6757 41.5514 22.7109C41.5295 22.7429 41.5101 22.7752 41.4919 22.8095C41.4526 22.883 41.4094 22.9543 41.3661 23.0255L41.345 23.0603L41.2955 23.1429C41.2742 23.1783 41.2527 23.2135 41.2304 23.2483L41.2117 23.2776L41.156 23.3643L41.1316 23.4022L41.11 23.4358C41.0979 23.4547 41.086 23.4737 41.0743 23.4928L41.0544 23.525L41.0369 23.5537L41.0219 23.574H41.0007L40.9969 23.5927C40.9872 23.6266 40.968 23.6546 40.9483 23.6832L40.9379 23.6984L40.9232 23.7208C40.9108 23.7393 40.8976 23.7573 40.8843 23.7752H40.8631L40.8597 23.7932C40.8511 23.822 40.8381 23.8429 40.8214 23.8678L40.8045 23.8935L40.7889 23.9129H40.7678L40.7652 23.9304C40.7551 23.9615 40.7384 23.983 40.7188 24.0082L40.7141 24.0141L40.6877 24.0486L40.6743 24.066L40.6562 24.0902C40.6454 24.1049 40.6348 24.1198 40.6241 24.1346C40.5373 24.2545 40.4464 24.3717 40.3557 24.4888L40.3211 24.5335C40.307 24.5521 40.2936 24.5712 40.2806 24.5906H40.2594L40.2518 24.6077C40.2343 24.6404 40.2128 24.6696 40.1906 24.6992L40.1776 24.717C40.1666 24.7318 40.1548 24.746 40.1429 24.7601H40.1218L40.114 24.7778C40.0977 24.8078 40.0776 24.8319 40.0556 24.858C40.0263 24.8932 39.9978 24.9283 39.9708 24.9653C39.946 24.9989 39.9187 25.0273 39.8888 25.0566C39.8592 25.0881 39.8444 25.1038 39.8303 25.1201C39.8162 25.1363 39.8028 25.1532 39.7761 25.1868L39.7617 25.2049H39.7405L39.7312 25.2241C39.7264 25.2335 39.7235 25.239 39.7204 25.2445C39.7158 25.2525 39.7107 25.2601 39.6981 25.279H39.677L39.6685 25.298C39.6553 25.3222 39.642 25.337 39.622 25.3558C39.57 25.4063 39.5231 25.4607 39.4777 25.5173L39.4546 25.5437H39.4334L39.4247 25.5629C39.4124 25.5858 39.4005 25.6002 39.3819 25.6181L39.364 25.6357L39.3454 25.6536C39.3101 25.6878 39.2757 25.7215 39.245 25.7599L39.2216 25.7873H39.2004L39.1898 25.8191H39.1686L39.158 25.8509C39.1406 25.8652 39.1229 25.8793 39.1051 25.8932L39.0839 25.925H39.0627L39.0521 25.9568H39.031L39.0204 25.9885C39.0136 25.9952 39.0098 25.9989 39.0059 26.0024C39.0012 26.0067 38.9963 26.0107 38.9855 26.0195C38.9456 26.0532 38.9087 26.0891 38.8721 26.1262C38.8159 26.1831 38.7582 26.2368 38.6954 26.2864C38.6589 26.316 38.627 26.3496 38.5948 26.3837C38.5843 26.3935 38.5795 26.3979 38.5739 26.3999C38.5692 26.4016 38.564 26.4016 38.5544 26.4016L38.5438 26.4333C38.5261 26.4494 38.5077 26.4648 38.4889 26.4797L38.4569 26.5052L38.4273 26.5286C38.3795 26.5673 38.3347 26.6079 38.2936 26.6537C38.2879 26.6586 38.2845 26.6616 38.2805 26.6635C38.2742 26.6663 38.2667 26.6663 38.2473 26.6663L38.2409 26.6842C38.2218 26.7159 38.195 26.7352 38.1658 26.7562L38.1593 26.761C38.1143 26.7939 38.075 26.828 38.0355 26.8675C38.0155 26.8827 37.9952 26.8975 37.9746 26.9119C37.9546 26.9247 37.9447 26.9311 37.9364 26.9389C37.9283 26.9465 37.9216 26.9556 37.9084 26.9734H37.8766L37.866 27.0052C37.8419 27.0249 37.8178 27.0433 37.7926 27.0615L37.7214 27.1138C37.6831 27.1423 37.6456 27.1717 37.6081 27.2012L37.6006 27.2071C37.5396 27.2548 37.4782 27.302 37.416 27.3481L37.3958 27.3632C37.3639 27.3866 37.354 27.3938 37.3431 27.396C37.3383 27.397 37.3332 27.397 37.3259 27.397V27.4182L37.2909 27.4374C37.2683 27.4502 37.2517 27.4607 37.2333 27.4791L37.22 27.4924H37.1883V27.5135C37.1643 27.531 37.1404 27.5472 37.1155 27.5632L37.0716 27.5918L37.0498 27.606C36.9992 27.6393 36.9485 27.6733 36.9015 27.7115C36.8925 27.7176 36.8875 27.721 36.882 27.7229C36.875 27.7253 36.8671 27.7253 36.8494 27.7253V27.7465C36.8236 27.764 36.7979 27.7802 36.7713 27.7962C36.7206 27.8271 36.6706 27.8581 36.6223 27.8928C36.5832 27.9208 36.5431 27.9443 36.5008 27.967C36.4738 27.9823 36.4496 28.0001 36.4247 28.0185C36.4041 28.0328 36.3831 28.0448 36.3611 28.0567C36.3084 28.0857 36.2568 28.1165 36.2054 28.1476C36.0919 28.2159 35.9778 28.2827 35.8622 28.3473C35.8236 28.3689 35.7856 28.3911 35.748 28.4144C35.6983 28.4445 35.6467 28.4702 35.5946 28.4959C35.5375 28.524 35.4812 28.5533 35.425 28.5831C35.3426 28.6268 35.2596 28.669 35.176 28.7104C35.1389 28.7288 35.1019 28.7473 35.0649 28.7658L35.0055 28.7955L34.9633 28.8168C34.9277 28.8348 34.8926 28.852 34.8551 28.8658C34.8011 28.8868 34.7491 28.9116 34.6969 28.9366C34.6139 28.9763 34.5303 29.0136 34.4454 29.0491L34.4105 29.0642C34.3641 29.0842 34.317 29.1026 34.27 29.1213C34.2067 29.1464 34.1438 29.1721 34.0814 29.1994C34.0208 29.2257 33.9593 29.2482 33.897 29.27C33.8687 29.28 33.841 29.2906 33.8133 29.302C33.6838 29.3546 33.5517 29.4009 33.4189 29.4444L33.3777 29.458L33.2611 29.4968C33.2142 29.5124 33.1673 29.5281 33.1206 29.5443C33.0067 29.5834 32.8921 29.6169 32.7756 29.6476C32.7113 29.6645 32.6475 29.6822 32.5842 29.7024C32.4583 29.7426 32.3318 29.7764 32.2032 29.8065C32.1534 29.8182 32.1037 29.8303 32.054 29.8426C31.8872 29.8837 31.7204 29.9218 31.5516 29.9542C31.5065 29.963 31.4615 29.9727 31.4166 29.9824C31.3335 30.0001 31.2502 30.0154 31.1665 30.0297C31.1381 30.0345 31.1098 30.0396 31.0814 30.0446C30.9824 30.0622 30.8836 30.0791 30.7838 30.0916C30.7401 30.0972 30.6965 30.1038 30.6529 30.1105L30.6361 30.113C30.523 30.1302 30.4102 30.1455 30.2963 30.1566C30.2559 30.1605 30.2158 30.1656 30.1755 30.171C29.6504 30.2382 29.1225 30.2512 28.5938 30.2499C28.5406 30.2498 28.4875 30.2498 28.4344 30.25C27.8 30.2515 27.1741 30.2126 26.5451 30.1293L26.5114 30.1249C26.4449 30.1161 26.3785 30.107 26.3121 30.0975L26.2855 30.0938C26.1454 30.0739 26.0064 30.0494 25.8673 30.0234L25.8265 30.0159L25.6638 29.9853C25.4583 29.9469 25.2551 29.9029 25.0519 29.854L24.9776 29.8363C24.7539 29.7829 24.7003 29.7701 24.6472 29.7554C24.6305 29.7507 24.6138 29.7459 24.5918 29.7395L24.5338 29.7227L24.3767 29.6777C24.3281 29.6638 24.2795 29.65 24.2309 29.6364C24.1367 29.6101 24.0444 29.5822 23.9527 29.5483C23.9195 29.5366 23.8864 29.5269 23.8525 29.5177C23.6892 29.4723 23.5287 29.4138 23.3721 29.3492C23.321 29.329 23.2692 29.3122 23.2169 29.2956C23.1404 29.2695 23.0658 29.2379 22.9914 29.2064L22.9464 29.1875C22.8675 29.1544 22.7886 29.1224 22.7086 29.0923C22.669 29.0767 22.6306 29.059 22.5921 29.0411C22.5624 29.0276 22.5324 29.0151 22.5023 29.0028C22.4481 28.9804 22.3951 28.9562 22.3421 28.9312C22.3035 28.913 22.2647 28.8952 22.2256 28.8779C22.137 28.8387 22.0498 28.7986 21.9648 28.752C21.9171 28.726 21.8686 28.7025 21.8192 28.6798C21.7278 28.6375 21.639 28.5909 21.5502 28.5435C21.5185 28.5266 21.4867 28.5098 21.455 28.4931L21.4531 28.4921L21.3152 28.4189C21.2288 28.3724 21.1441 28.3229 21.0594 28.2734C21.0488 28.2672 21.0382 28.261 21.0276 28.2548L21.0028 28.2404C20.9197 28.192 20.8373 28.143 20.7565 28.0908C20.7325 28.0758 20.7083 28.0619 20.6834 28.0483C20.6391 28.0242 20.5968 27.9976 20.5544 27.9703C20.5278 27.9532 20.501 27.9363 20.4741 27.9196C20.3615 27.8492 20.2513 27.7761 20.1422 27.7005C20.1164 27.6827 20.0905 27.665 20.0646 27.6474C19.9814 27.5907 19.8985 27.5337 19.8168 27.4747C19.7747 27.4443 19.7317 27.4156 19.6877 27.3881L19.672 27.3759V27.3547H19.6403V27.3335L19.6193 27.3271C19.5777 27.3079 19.544 27.2808 19.5087 27.2524L19.4993 27.2448L19.4226 27.1842C19.3751 27.1473 19.3266 27.1117 19.2778 27.0765C19.2606 27.0638 19.2438 27.0505 19.2272 27.037V27.0158L19.21 27.0081C19.1322 26.9662 19.0614 26.904 18.9937 26.8445L18.9534 26.8092C18.938 26.7959 18.9304 26.7892 18.9223 26.7833C18.9142 26.7773 18.9055 26.7721 18.8883 26.7616V26.7404L18.8707 26.7327C18.8297 26.7104 18.794 26.6795 18.7585 26.6488C18.7489 26.6405 18.7392 26.6321 18.7295 26.624L18.7054 26.6043C18.6883 26.5902 18.6718 26.5754 18.6554 26.5604V26.5392L18.6372 26.5312C18.6092 26.516 18.5888 26.4979 18.5653 26.4764L18.5375 26.4509L18.5071 26.4227L18.4558 26.3755L18.4226 26.3447C18.3986 26.3225 18.3755 26.3032 18.3482 26.2851V26.2639L18.3165 26.2533V26.2321L18.2993 26.2248C18.2439 26.1942 18.2068 26.1542 18.1682 26.105L18.1364 26.0839V26.0627L18.1176 26.0542C18.0929 26.0408 18.0767 26.0267 18.0569 26.0069L18.0355 25.9855L18.0127 25.9625L17.9889 25.9388L17.7926 25.7418C17.7566 25.7054 17.7233 25.6687 17.6916 25.6285C17.6762 25.6157 17.6607 25.6029 17.645 25.5903C17.6149 25.564 17.5877 25.534 17.5646 25.5014V25.4802L17.5328 25.4696V25.4484L17.501 25.4378C17.4939 25.4308 17.4901 25.427 17.4864 25.423C17.4819 25.4182 17.4778 25.4132 17.4686 25.4021C17.4375 25.3654 17.4057 25.3297 17.3733 25.2942C17.2751 25.1863 17.2601 25.1699 17.2579 25.1518C17.2574 25.1485 17.2574 25.1452 17.2574 25.1413L17.2257 25.1307C17.2058 25.1079 17.1983 25.0993 17.1956 25.0895C17.1939 25.0836 17.1939 25.0773 17.1939 25.0672L17.1621 25.0566C17.1239 25.0148 17.1133 25.0032 17.1103 24.9899C17.1092 24.9847 17.1092 24.9793 17.1092 24.9719H17.088C17.0738 24.9508 17.0597 24.9296 17.0456 24.9083L17.0218 24.8845C16.9801 24.8428 16.9422 24.7975 16.908 24.7495V24.7283H16.8868C16.8778 24.72 16.8735 24.7161 16.8694 24.7119C16.8656 24.7081 16.862 24.7041 16.855 24.6965C16.7882 24.72 16.7265 24.7502 16.6644 24.7839C16.6017 24.8178 16.5385 24.8488 16.4731 24.8772C16.4136 24.9031 16.3549 24.9299 16.297 24.9593C16.2025 25.0073 16.1067 25.0529 16.011 25.0984L15.9973 25.105L15.841 25.1797C15.7747 25.2114 15.7084 25.243 15.6419 25.2744C15.5659 25.3102 15.4903 25.3469 15.4153 25.3847C15.3359 25.4246 15.2556 25.4624 15.1752 25.5001L15.15 25.512C15.0818 25.544 15.0472 25.5602 15.0132 25.5766C14.9791 25.593 14.9452 25.6097 14.8773 25.643C14.7943 25.6849 14.7104 25.7248 14.6266 25.7647L14.5901 25.7821C14.5409 25.8056 14.4917 25.8292 14.4426 25.8528L14.4219 25.8628C14.2945 25.924 14.1669 25.9846 14.0391 26.0448C13.9522 26.0857 13.8659 26.1273 13.7801 26.1706C13.7372 26.192 13.6939 26.2124 13.6505 26.2329L13.6422 26.2367C13.5796 26.2662 13.5173 26.2962 13.4556 26.3274C13.3617 26.3748 13.2666 26.4195 13.1715 26.4642L13.0402 26.5261C12.9909 26.5495 12.9422 26.5735 12.8936 26.5981C12.8385 26.626 12.7827 26.6515 12.7262 26.6762C12.6575 26.7063 12.5901 26.7383 12.5233 26.7722C12.4726 26.7979 12.4215 26.8224 12.3701 26.8463C12.3118 26.8735 12.254 26.9014 12.1966 26.9304C12.1259 26.9661 12.0545 27.0002 11.9828 27.0339C11.933 27.0574 11.8836 27.0815 11.8346 27.1065C11.7797 27.1342 11.7241 27.1594 11.6678 27.1839C11.6038 27.2118 11.5418 27.2419 11.4805 27.2753C11.4118 27.3125 11.3421 27.3452 11.2704 27.3764C11.196 27.4089 11.1237 27.4448 11.0514 27.4817C10.9561 27.5302 10.8606 27.5777 10.7634 27.6221C10.7113 27.646 10.6596 27.6708 10.6079 27.6957L10.5737 27.7121C10.5069 27.7441 10.4401 27.7759 10.3731 27.8074C10.3036 27.8402 10.2347 27.8742 10.166 27.9088C10.1218 27.9307 10.0771 27.9514 10.0324 27.9721C9.97457 27.9989 9.9177 28.0274 9.86084 28.056C9.81799 28.0776 9.77487 28.0978 9.73086 28.1168C9.69874 28.1313 9.66734 28.1472 9.63591 28.1631L9.62173 28.1703C9.54075 28.211 9.45881 28.2497 9.37687 28.2885L9.33596 28.3078L9.28404 28.3324C9.21694 28.3642 9.14984 28.396 9.08266 28.4276C8.99586 28.4686 8.90957 28.5102 8.8239 28.5534C8.7772 28.5768 8.72993 28.5989 8.68267 28.6211L8.66003 28.6317C8.60536 28.6575 8.55123 28.6842 8.49734 28.7116C8.4425 28.7394 8.38714 28.7649 8.33055 28.789C8.27081 28.8144 8.21352 28.8427 8.15647 28.8737C8.08735 28.9112 8.01717 28.9442 7.94507 28.9755C7.88509 29.0017 7.8266 29.0301 7.76827 29.0597C7.71028 29.0891 7.65163 29.1169 7.59263 29.1442C7.55382 29.1623 7.51547 29.1809 7.4775 29.2007L7.4542 29.2128C7.44534 29.2174 7.43648 29.2221 7.42766 29.2268C7.42189 29.2298 7.41614 29.2329 7.4104 29.236C7.38426 29.2496 7.36174 29.2605 7.33209 29.2625C7.30432 29.2446 7.29209 29.2174 7.27917 29.1886L7.27417 29.1775L7.26325 29.1547C7.25152 29.1302 7.24 29.1055 7.2285 29.0809L7.16878 28.9546C7.1432 28.9003 7.1167 28.8465 7.0895 28.793C7.05719 28.7293 7.02771 28.6648 7.0001 28.5989C6.98557 28.5647 6.96983 28.5322 6.951 28.5001C6.93889 28.4788 6.93448 28.4711 6.93289 28.4628C6.93197 28.4581 6.93197 28.4532 6.93197 28.4455L7.07719 28.3729L7.12715 28.3478C7.18772 28.3174 7.24865 28.2878 7.30991 28.2588L7.39852 28.2167L7.58866 28.1261C7.64374 28.0998 7.69847 28.0729 7.75301 28.0455C7.797 28.0236 7.84137 28.0025 7.88576 27.9815L7.91493 27.9676C7.96747 27.9427 8.02008 27.9179 8.07277 27.8932C8.1373 27.863 8.20141 27.8322 8.26502 27.8001C8.35994 27.7523 8.45608 27.707 8.55228 27.6618L8.68173 27.6008C8.73095 27.5774 8.77973 27.5534 8.82829 27.5288C8.8834 27.5009 8.93921 27.4754 8.99575 27.4507C9.08605 27.4111 9.17401 27.3677 9.26182 27.3229C9.38085 27.2626 9.50105 27.205 9.6215 27.1476L9.74739 27.0874C9.82426 27.0506 9.90117 27.0139 9.97826 26.9775C10.0429 26.947 10.1074 26.9163 10.1713 26.8841C10.2856 26.8265 10.4015 26.772 10.5174 26.7178C10.5887 26.6845 10.6597 26.6508 10.7299 26.6153C10.8832 26.538 11.0387 26.4652 11.1941 26.3923L11.2667 26.3583C11.3628 26.3131 11.4584 26.2673 11.5532 26.2195C11.5956 26.1981 11.6384 26.1777 11.6817 26.158C11.7312 26.1354 11.7801 26.1117 11.8286 26.0872C11.9303 26.0359 12.0331 25.987 12.136 25.9381L12.7845 25.6284C12.841 25.6014 12.8975 25.5745 12.9541 25.5479C13.0188 25.5173 13.0833 25.4866 13.1471 25.4544C13.25 25.4025 13.3543 25.3534 13.4586 25.3043L13.4987 25.2854C13.5725 25.2506 13.6462 25.2158 13.719 25.179C13.8333 25.1214 13.9492 25.067 14.0652 25.0128C14.1464 24.9748 14.2271 24.9358 14.3072 24.8955C14.3538 24.872 14.4009 24.8499 14.4486 24.8286C14.5599 24.7779 14.6702 24.7251 14.7793 24.6701C14.8814 24.6186 14.9848 24.5699 15.0881 24.5213L15.1296 24.5017C15.2158 24.4611 15.3015 24.4198 15.3866 24.3768C15.4339 24.3532 15.4818 24.3307 15.5296 24.3082L15.5521 24.2977C15.6023 24.274 15.6519 24.2497 15.7013 24.2246C15.7565 24.1968 15.8123 24.1713 15.8688 24.1465C15.952 24.11 16.0333 24.0705 16.1143 24.0292C16.146 24.0131 16.1778 23.9973 16.2096 23.9814L16.2196 23.9764L16.2831 23.9446L16.2407 23.8809C16.2247 23.857 16.2087 23.8332 16.1926 23.8095L16.164 23.7672L16.15 23.7468C16.1262 23.7114 16.1065 23.6782 16.0925 23.6375H16.0713C16.0601 23.6203 16.0497 23.6025 16.0396 23.5846L16.0222 23.5571L15.9932 23.5117L15.9805 23.4919C15.9586 23.4578 15.9361 23.4244 15.9118 23.3919C15.901 23.3762 15.8958 23.3687 15.8934 23.3605C15.8913 23.3532 15.8913 23.3453 15.8913 23.3304H15.8701L15.8538 23.3013L15.8317 23.2622L15.8211 23.2432C15.8004 23.2066 15.7785 23.1713 15.7549 23.1365C15.7193 23.0837 15.6871 23.0292 15.655 22.9743C15.6301 22.9317 15.6176 22.9104 15.605 22.8891C15.5991 22.8792 15.5932 22.8694 15.586 22.8574C15.5777 22.8436 15.5677 22.8271 15.5541 22.8045L15.5406 22.7824L15.5158 22.7424C15.498 22.7134 15.4889 22.698 15.4889 22.6632C15.4244 22.6863 15.3642 22.7146 15.3042 22.7473C15.251 22.7762 15.1976 22.8032 15.1422 22.8277C15.0939 22.8494 15.0462 22.8721 14.9984 22.8949L14.9689 22.9089C14.9153 22.9345 14.8621 22.9606 14.8091 22.9875C14.7543 23.0153 14.6987 23.0404 14.6423 23.065C14.5745 23.0946 14.509 23.1268 14.4441 23.1623C14.3905 23.1915 14.3357 23.2173 14.2801 23.2424C14.2548 23.254 14.2301 23.266 14.2055 23.2788C14.1769 23.2934 14.1482 23.3052 14.1181 23.3165C14.068 23.336 14.0216 23.3604 13.9745 23.386C13.904 23.4241 13.8326 23.4579 13.7591 23.4898C13.6991 23.5159 13.6406 23.5443 13.5823 23.574C13.5317 23.5996 13.4806 23.6241 13.4291 23.6481C13.3708 23.6753 13.313 23.7032 13.2557 23.7322C13.1849 23.7679 13.1135 23.802 13.0418 23.8357C12.992 23.8591 12.9427 23.8833 12.8936 23.9082C12.8385 23.9361 12.7827 23.9616 12.7262 23.9863C12.6575 24.0164 12.5901 24.0483 12.5233 24.0823C12.4726 24.108 12.4215 24.1325 12.3701 24.1564C12.3118 24.1836 12.254 24.2115 12.1966 24.2405C12.1264 24.276 12.0555 24.3098 11.9843 24.3432C11.93 24.3688 11.8762 24.3953 11.8227 24.4225C11.7678 24.4503 11.7125 24.4759 11.6559 24.5C11.5961 24.5254 11.5389 24.5537 11.4818 24.5847C11.4127 24.6222 11.3425 24.6551 11.2704 24.6865C11.1823 24.7249 11.0969 24.7684 11.0114 24.8122C10.9064 24.8657 10.8 24.9157 10.693 24.9651C10.6123 25.0023 10.5321 25.0402 10.4528 25.0805C10.3965 25.109 10.3395 25.1358 10.2822 25.1625C10.2309 25.1865 10.1801 25.2116 10.1296 25.2373C10.0743 25.2653 10.0185 25.2912 9.96144 25.3154C9.90171 25.3408 9.84442 25.3692 9.78736 25.4001C9.71825 25.4376 9.64807 25.4706 9.57596 25.5019C9.51599 25.5281 9.45749 25.5565 9.39916 25.5861C9.34107 25.6156 9.28229 25.6433 9.22325 25.6708C9.17186 25.6948 9.12112 25.7199 9.07054 25.7456C9.01525 25.7737 8.95947 25.7995 8.90242 25.8237C8.84268 25.8492 8.7854 25.8775 8.72834 25.9084C8.65922 25.946 8.58905 25.9789 8.51694 26.0103C8.45696 26.0364 8.39847 26.0648 8.34014 26.0944C8.28949 26.1201 8.23839 26.1446 8.18692 26.1686C8.12866 26.1957 8.07088 26.2237 8.0135 26.2526C7.94276 26.2884 7.87133 26.3224 7.79962 26.3562C7.74983 26.3796 7.70051 26.4037 7.65145 26.4287C7.59633 26.4565 7.54053 26.482 7.48399 26.5068C7.4007 26.5433 7.31935 26.5829 7.23833 26.6241C7.01241 26.7392 6.78296 26.8473 6.55357 26.9553L6.53058 26.9661C6.45396 27.0022 6.37748 27.0385 6.30185 27.0767C6.25002 27.1028 6.19772 27.1274 6.14474 27.1511C6.11646 27.1641 6.08869 27.1778 6.06093 27.1919C5.97458 27.2354 5.88722 27.2769 5.79987 27.3184L5.74587 27.3441L5.68747 27.3719C5.54217 27.4412 5.54198 27.4413 5.47027 27.4751C5.38392 27.5158 5.29786 27.5573 5.21263 27.6003C5.16591 27.6236 5.11863 27.6458 5.07134 27.668L5.04876 27.6786C4.99409 27.7044 4.93996 27.7311 4.88607 27.7584C4.83123 27.7863 4.77587 27.8118 4.71928 27.8359C4.65954 27.8613 4.60225 27.8896 4.5452 27.9206C4.47608 27.9581 4.4059 27.9911 4.3338 28.0224C4.27382 28.0486 4.21533 28.077 4.157 28.1066C4.10635 28.1323 4.05524 28.1567 4.00377 28.1807C3.90455 28.227 3.80668 28.2759 3.70919 28.3258C3.66256 28.3495 3.61659 28.3722 3.56759 28.3905C3.51697 28.4099 3.47023 28.435 3.42264 28.4607C3.36176 28.4936 3.30111 28.5226 3.23677 28.5482C3.18355 28.5707 3.13215 28.597 3.08074 28.6232L3.05658 28.6356C2.95763 28.6859 2.85825 28.7352 2.75767 28.7822C2.69411 28.8119 2.63076 28.8421 2.56747 28.8724L2.28817 29.0061C2.2386 29.0298 2.18901 29.0535 2.13936 29.077C2.05666 29.1162 1.97406 29.1555 1.89235 29.1967C1.79803 29.2443 1.70266 29.2897 1.60728 29.335L1.50477 29.3839C1.43221 29.4185 1.35964 29.4531 1.28693 29.4873C1.20153 29.5276 1.1166 29.5685 1.0323 29.611C0.978534 29.6379 0.924209 29.6637 0.86989 29.6894L0.838676 29.7042C0.768652 29.7376 0.699092 29.7717 0.630357 29.8077C0.595382 29.8256 0.563902 29.8379 0.524884 29.8434C0.493021 29.7984 0.469714 29.7534 0.448766 29.7024C0.418774 29.6315 0.384902 29.5635 0.347862 29.496C0.320885 29.4465 0.297198 29.3961 0.274162 29.3447C0.259808 29.3132 0.244769 29.2821 0.229474 29.2511L0.214064 29.2196L0.182459 29.1558L0.167256 29.1247L0.153489 29.0968C0.142952 29.0685 0.141716 29.0473 0.143635 29.0173C0.234407 28.9708 0.325741 28.9264 0.418981 28.885C0.490483 28.8532 0.560907 28.82 0.630657 28.7846C0.685406 28.7568 0.740708 28.7304 0.796258 28.7043C0.867384 28.6708 0.937807 28.6363 1.00798 28.6009C1.04569 28.5822 1.08371 28.5644 1.12191 28.5467C1.17579 28.5219 1.2291 28.4961 1.28209 28.4693C1.38275 28.4185 1.48455 28.3701 1.58636 28.3217L1.75429 28.2418L2.23665 28.0112C2.29311 27.9842 2.34964 27.9573 2.40625 27.9307C2.47092 27.9002 2.53538 27.8694 2.59924 27.8372C2.7022 27.7853 2.80653 27.7362 2.91085 27.6871L2.95087 27.6682C3.02419 27.6336 3.09741 27.599 3.16979 27.5625C3.25264 27.5208 3.3364 27.4809 3.42016 27.441L3.45698 27.4235C3.51309 27.3967 3.56913 27.3697 3.62517 27.3428C3.75255 27.2816 3.88019 27.221 4.00804 27.1608C4.08243 27.1257 4.15669 27.0905 4.23014 27.0535C4.34445 26.9959 4.46036 26.9415 4.57631 26.8873C4.65551 26.8502 4.73415 26.8124 4.8122 26.773C4.87605 26.7409 4.94062 26.7104 5.00531 26.68C5.0551 26.6565 5.10442 26.6324 5.15348 26.6074C5.20859 26.5796 5.26439 26.5541 5.32093 26.5293C5.38962 26.4992 5.45695 26.4673 5.5238 26.4333C5.57445 26.4077 5.62556 26.3832 5.67703 26.3592C5.73529 26.332 5.79307 26.3041 5.85045 26.2751C5.92118 26.2394 5.99261 26.2053 6.06433 26.1716C6.11412 26.1482 6.16344 26.124 6.2125 26.0991C6.26761 26.0712 6.32342 26.0457 6.37996 26.021C6.47026 25.9814 6.55822 25.938 6.64604 25.8932C6.73208 25.8497 6.81853 25.8075 6.90593 25.7667C6.95767 25.7425 7.00878 25.7172 7.05972 25.6913C7.115 25.6633 7.17079 25.6375 7.22784 25.6132C7.29647 25.584 7.36223 25.5508 7.42762 25.515C7.47729 25.4879 7.52791 25.4641 7.57953 25.4409C7.62523 25.4203 7.67041 25.3985 7.71559 25.3768L7.72757 25.371C7.80088 25.3358 7.87429 25.3008 7.94797 25.2664C8.01171 25.2366 8.07473 25.2056 8.13754 25.1739C8.20139 25.1417 8.26596 25.1112 8.33064 25.0808C8.38043 25.0574 8.42975 25.0332 8.47881 25.0083C8.53392 24.9804 8.58973 24.9549 8.64627 24.9302C8.7149 24.9001 8.78219 24.8682 8.84899 24.8343C8.901 24.8079 8.9535 24.7828 9.00634 24.7581C9.0525 24.7365 9.09856 24.7149 9.14401 24.6919C9.19306 24.667 9.24275 24.6436 9.29249 24.6202L9.29624 24.6184C9.35527 24.5906 9.41405 24.5625 9.47231 24.533C9.55285 24.4924 9.63431 24.4538 9.71581 24.4152L9.74016 24.4037C9.79271 24.3787 9.84519 24.3536 9.89766 24.3284L9.92262 24.3165C9.97257 24.2926 10.0226 24.2687 10.0726 24.245C10.1631 24.2021 10.2532 24.1588 10.3426 24.1137C10.4154 24.0771 10.4891 24.0424 10.5628 24.0077L10.5801 23.9996C10.6231 23.9793 10.666 23.9588 10.7089 23.9384L10.718 23.934C10.7729 23.9079 10.8278 23.8817 10.8828 23.8558C10.9561 23.8212 11.0294 23.7866 11.1019 23.75C11.1644 23.7185 11.2273 23.6881 11.2905 23.658C11.3811 23.6148 11.4715 23.5715 11.5619 23.528L11.6195 23.5002C11.6944 23.464 11.7689 23.4272 11.8431 23.3896C11.8789 23.3721 11.9151 23.3565 11.9517 23.341C11.9835 23.3265 12.0149 23.3116 12.0464 23.2966L12.073 23.284C12.1367 23.2537 12.1998 23.2225 12.2627 23.1907C12.3162 23.1638 12.3703 23.1387 12.4248 23.1139C12.4643 23.0954 12.5032 23.076 12.5421 23.0564C12.6227 23.0158 12.704 22.9773 12.7857 22.9391L12.9121 22.8796L12.9379 22.8675C12.9875 22.844 13.0366 22.8198 13.0856 22.7949C13.1407 22.7671 13.1965 22.7416 13.253 22.7168C13.3363 22.6803 13.4177 22.6408 13.4987 22.5995C13.7246 22.4844 13.9541 22.3763 14.1835 22.2683L14.2064 22.2575C14.2804 22.2226 14.3542 22.1877 14.4272 22.1509C14.5008 22.1138 14.575 22.0783 14.6494 22.0429C14.7067 22.0156 14.7639 21.9881 14.821 21.9603L14.8575 21.9425L14.9278 21.9082L14.9599 21.8926L14.9883 21.8788C14.9991 21.8743 15.0051 21.8719 15.0113 21.8706C15.0188 21.8689 15.0267 21.8689 15.0441 21.8689C15.0234 21.8138 15.001 21.7604 14.9739 21.7081C14.9415 21.6446 14.9134 21.5796 14.8852 21.5142C14.865 21.467 14.8549 21.4434 14.8442 21.4201C14.8335 21.3967 14.8223 21.3737 14.7999 21.3275C14.7357 21.2031 14.6834 21.0717 14.6343 20.9408C14.617 20.8962 14.5983 20.8523 14.5795 20.8084L14.5788 20.8066C14.545 20.7274 14.5138 20.6475 14.4842 20.5666C14.4781 20.5494 14.4755 20.5419 14.4722 20.5346C14.4697 20.5289 14.4668 20.5233 14.4616 20.5134C14.3722 20.5508 14.2848 20.5903 14.1995 20.6365C14.14 20.6688 14.0806 20.697 14.0176 20.7221C13.9602 20.7463 13.9047 20.7748 13.8493 20.8033L13.8156 20.8205C13.7022 20.8783 13.6685 20.8955 13.6339 20.9104C13.6192 20.9167 13.6044 20.9226 13.5833 20.931C13.5311 20.952 13.4824 20.9771 13.4331 21.0038C13.363 21.0418 13.292 21.0753 13.219 21.107C13.1595 21.1329 13.1015 21.161 13.0437 21.1904C12.9886 21.2183 12.933 21.245 12.8771 21.2713C12.805 21.3051 12.7336 21.3402 12.6625 21.376C12.6328 21.3908 12.6029 21.4047 12.5726 21.4182C12.5261 21.439 12.4804 21.4614 12.4349 21.4844C12.3404 21.5321 12.2448 21.5775 12.149 21.6228L11.9199 21.7313L11.8734 21.7531C11.7936 21.7903 11.7144 21.8285 11.6358 21.8682C11.5719 21.9003 11.5073 21.9308 11.4427 21.9612C11.3929 21.9847 11.3435 22.0088 11.2945 22.0337C11.2396 22.0615 11.184 22.0867 11.1277 22.1112C11.0637 22.1391 11.0017 22.1692 10.9404 22.2025C10.8717 22.2398 10.8019 22.2726 10.7303 22.3037C10.6703 22.3298 10.6118 22.3582 10.5535 22.3879C10.5029 22.4135 10.4517 22.438 10.4003 22.462C10.301 22.5083 10.2032 22.5572 10.1057 22.607C10.0591 22.6307 10.0131 22.6534 9.96409 22.6718C9.91348 22.6912 9.86673 22.7162 9.81914 22.742C9.75826 22.7749 9.69761 22.8039 9.63327 22.8295C9.57146 22.8556 9.5117 22.8864 9.45204 22.9172L9.41195 22.9378C9.30711 22.9914 9.20076 23.0413 9.09388 23.0906C9.01316 23.1278 8.93293 23.1657 8.85369 23.206C8.79743 23.2345 8.74042 23.2613 8.68324 23.288C8.63076 23.3125 8.57885 23.338 8.52713 23.3641C8.47326 23.3913 8.41914 23.4173 8.36405 23.4419C8.21401 23.5102 8.0651 23.5819 7.9191 23.6585L7.89885 23.669L7.84335 23.698C7.81157 23.7114 7.79196 23.7147 7.75801 23.7116C7.70892 23.6214 7.66152 23.5322 7.62361 23.4366C7.60691 23.398 7.58748 23.3614 7.56739 23.3244C7.5385 23.2713 7.51155 23.2182 7.48722 23.1628C7.47443 23.1344 7.4612 23.1064 7.44767 23.0784L7.43445 23.0509L7.40796 22.9964L7.39575 22.971L7.38467 22.9482C7.38144 22.9399 7.37953 22.935 7.3784 22.93C7.37676 22.9226 7.37676 22.915 7.37676 22.8962L7.41242 22.8795C7.46118 22.8568 7.48642 22.845 7.5108 22.8334C7.53519 22.8217 7.55945 22.8097 7.60777 22.786C7.65688 22.7611 7.70729 22.7373 7.75709 22.7139L7.76066 22.7122C7.82014 22.6842 7.87935 22.6558 7.93805 22.6261C8.00447 22.5926 8.07162 22.5608 8.13895 22.5291C8.18909 22.5055 8.23877 22.4812 8.28819 22.456C8.3433 22.4282 8.3991 22.4027 8.45564 22.3779C8.5238 22.3481 8.59064 22.3164 8.65697 22.2827C8.71208 22.2548 8.76774 22.2282 8.82365 22.2019C8.89422 22.1687 8.9641 22.1345 9.03372 22.0993C9.08434 22.0742 9.13619 22.05 9.18737 22.0261C9.22613 22.0079 9.26469 21.9896 9.30286 21.9702C9.35205 21.9453 9.4019 21.9218 9.45178 21.8983L9.4551 21.8967C9.51413 21.8689 9.5729 21.8408 9.63116 21.8114C9.74547 21.7537 9.86138 21.6993 9.97733 21.6451C10.0586 21.6071 10.1392 21.5682 10.2193 21.5278C10.266 21.5043 10.3132 21.4822 10.3609 21.4608C10.4762 21.4084 10.5904 21.3534 10.7034 21.2964C10.7962 21.2496 10.8901 21.2055 10.9841 21.1613L10.988 21.1594C11.0922 21.1104 11.196 21.061 11.2988 21.0091C11.3461 20.9855 11.394 20.963 11.4419 20.9405L11.4643 20.93C11.5144 20.9063 11.5641 20.882 11.6135 20.8569C11.6686 20.8291 11.7244 20.8036 11.781 20.7788C11.8491 20.7489 11.916 20.7173 11.9824 20.6836C12.037 20.6559 12.0922 20.6295 12.1477 20.6034C12.2173 20.5707 12.2863 20.5369 12.355 20.5023C12.413 20.4731 12.4716 20.4455 12.5304 20.4181C12.5818 20.3941 12.6326 20.369 12.6831 20.3433C12.7384 20.3152 12.7942 20.2894 12.8513 20.2652C12.911 20.2398 12.9683 20.2114 13.0253 20.1805C13.0944 20.143 13.1646 20.11 13.2367 20.0787C13.2967 20.0525 13.3552 20.0241 13.4135 19.9945C13.4642 19.9688 13.5153 19.9443 13.5668 19.9203C13.666 19.874 13.7638 19.8251 13.8613 19.7753C13.9182 19.7464 13.975 19.7202 14.0345 19.6974C14.0594 19.6873 14.083 19.6758 14.1069 19.6635C14.1311 19.6514 14.1395 19.6472 14.1483 19.6458C14.153 19.645 14.1578 19.645 14.1651 19.645C14.1474 19.5688 14.1264 19.4941 14.1035 19.4193C14.0702 19.31 14.0415 19.1998 14.0131 19.0892C14.0043 19.0551 13.995 19.0211 13.9857 18.9871C13.9279 18.7705 13.8789 18.5517 13.833 18.3323C13.8271 18.3041 13.821 18.276 13.8147 18.2479C13.7864 18.1194 13.7651 17.9899 13.7439 17.8601C13.7343 17.8011 13.7242 17.7422 13.7137 17.6834C13.692 17.561 13.6733 17.4384 13.6568 17.3151L13.6516 17.277C13.6307 17.1212 13.611 16.9655 13.5974 16.8088C13.5951 16.7823 13.592 16.7565 13.5881 16.7302C13.5808 16.6768 13.5771 16.6232 13.5734 16.5695L13.572 16.55L13.5668 16.4757L13.5644 16.4427C13.5621 16.4122 13.5593 16.3818 13.5563 16.3514C13.5496 16.2783 13.5462 16.2051 13.5429 16.1318L13.5418 16.1094C13.5181 15.5957 13.5126 15.0855 13.5337 14.5716L13.5347 14.5466C13.5418 14.3708 13.5499 14.1957 13.5698 14.0208C13.5743 13.9795 13.5773 13.9381 13.5803 13.8967L13.582 13.8733C13.6003 13.6368 13.6287 13.4019 13.6624 13.1671L13.676 13.0699C13.6924 12.9526 13.7106 12.8357 13.7309 12.719L13.7378 12.6788C13.7765 12.4546 13.7892 12.3811 13.8042 12.3081C13.8114 12.2726 13.8193 12.2372 13.8309 12.1845C13.8379 12.1527 13.8446 12.1209 13.8513 12.089C13.8947 11.883 13.9398 11.6774 13.9975 11.4749C14.0139 11.4173 14.0285 11.3594 14.0427 11.3012C14.0668 11.2029 14.0952 11.1061 14.125 11.0094C14.1333 10.9824 14.1413 10.9555 14.1494 10.9285C14.2313 10.6545 14.3183 10.3814 14.4193 10.1138L14.4344 10.0729L14.5555 9.75084C14.5889 9.66244 14.6252 9.57562 14.6628 9.48896L14.7277 9.33672L14.7441 9.29805C14.7717 9.23348 14.8005 9.17027 14.8323 9.10771C14.8385 9.0926 14.8445 9.07739 14.8502 9.06204C14.877 8.99364 14.9089 8.92753 14.9408 8.86139L14.9561 8.82947L14.9991 8.739C15.0445 8.64301 15.0902 8.54747 15.141 8.45419C15.1664 8.4076 15.1901 8.36037 15.2135 8.31278C15.2463 8.24635 15.282 8.18246 15.3193 8.11843C15.343 8.07707 15.364 8.03452 15.385 7.99176C15.4132 7.93436 15.4432 7.87976 15.4783 7.82629C15.5175 7.76274 15.5545 7.69817 15.5899 7.63244C15.6124 7.59095 15.6353 7.54977 15.6583 7.50858H15.6795L15.6868 7.48145C15.7006 7.44538 15.7165 7.42155 15.7393 7.3911C15.758 7.3648 15.7731 7.33694 15.7885 7.30871L15.7925 7.30125C15.8081 7.27284 15.824 7.2447 15.8403 7.21669L15.856 7.18951L15.8701 7.1697H15.8913L15.8952 7.15081C15.902 7.12682 15.9106 7.1112 15.9246 7.09068L15.9384 7.07025L15.9529 7.04923L15.967 7.02847L15.9946 6.98784C16.0156 6.95755 16.026 6.94241 16.0356 6.92674C16.0452 6.9111 16.0539 6.89492 16.0713 6.86258H16.0925L16.1011 6.83942C16.1137 6.80965 16.1272 6.78332 16.1455 6.75668H16.1667L16.1693 6.73947C16.1802 6.70507 16.1981 6.6795 16.2196 6.65078H16.2408L16.243 6.63394C16.254 6.60044 16.274 6.57434 16.2949 6.54692L16.301 6.53892L16.3327 6.49639L16.3499 6.47354C16.379 6.43467 16.4078 6.39558 16.4366 6.3565L16.4446 6.34565L16.4638 6.31973C16.5029 6.2668 16.5409 6.21343 16.5772 6.15854L16.5903 6.14245H16.6114V6.11067C16.6235 6.09821 16.6357 6.08582 16.6483 6.07393C16.6751 6.04699 16.6977 6.01657 16.7204 5.98617L16.7332 5.96903L16.7511 5.94562C16.7784 5.90961 16.8053 5.87339 16.8313 5.83645C16.8547 5.80407 16.8798 5.77878 16.908 5.75061C16.9432 5.70821 16.9782 5.66543 17.0098 5.62026L17.0245 5.60234H17.0456L17.0526 5.58551C17.0711 5.55238 17.0949 5.52507 17.1196 5.49674L17.1251 5.49048C17.146 5.46633 17.1564 5.45425 17.1664 5.44175C17.1763 5.42926 17.1857 5.41635 17.2045 5.39054H17.2257L17.2344 5.37163C17.2468 5.34834 17.2597 5.33139 17.2773 5.31177L17.2969 5.28985L17.3534 5.22846L17.3706 5.2099L17.4048 5.17324C17.4286 5.14768 17.4498 5.12314 17.4693 5.09401H17.4904L17.5116 5.05165H17.5328L17.5407 5.03378C17.5656 4.98787 17.6 4.94881 17.6387 4.91398H17.6599L17.6676 4.89583C17.6838 4.86664 17.7033 4.84671 17.7269 4.82306L17.7556 4.79416L17.7866 4.76323L17.8184 4.73136L17.8851 4.66481L18.0678 4.48202L18.1371 4.41286C18.1485 4.40299 18.1536 4.39858 18.1594 4.39663C18.1641 4.39506 18.1694 4.39506 18.1788 4.39506V4.37388C18.1962 4.35946 18.2139 4.34539 18.2318 4.33152C18.2577 4.3062 18.283 4.28041 18.3079 4.25408C18.3184 4.2443 18.3231 4.23987 18.3287 4.23787C18.3334 4.2362 18.3386 4.2362 18.3482 4.2362L18.3588 4.20443H18.38L18.3906 4.17266C18.4086 4.15656 18.4272 4.14121 18.4462 4.12633C18.4781 4.10127 18.5076 4.07679 18.5361 4.04781C18.5504 4.03378 18.5562 4.02816 18.5631 4.02591C18.5677 4.0244 18.5727 4.0244 18.5812 4.0244V4.00322C18.6136 3.97428 18.6238 3.96511 18.6356 3.9622C18.6411 3.96086 18.6469 3.96086 18.6554 3.96086L18.666 3.92909H18.6871V3.90791C18.697 3.8989 18.7025 3.89382 18.7081 3.88902C18.715 3.88309 18.7221 3.87746 18.7381 3.86488L18.7668 3.84201C18.7797 3.83277 18.7862 3.82805 18.7933 3.82441C18.8007 3.82063 18.8086 3.81798 18.8248 3.81259V3.79141C18.8479 3.77144 18.8564 3.76402 18.8663 3.76127C18.8721 3.75964 18.8784 3.75964 18.8883 3.75964L18.8989 3.72787C18.9102 3.71883 18.9163 3.71393 18.9226 3.70923C18.9301 3.70366 18.9377 3.69838 18.9545 3.68684C18.997 3.65757 19.0321 3.62672 19.0684 3.5902C19.0914 3.5707 19.1152 3.55227 19.1392 3.53394L19.1578 3.51936C19.1893 3.49515 19.1991 3.48765 19.2099 3.48534C19.2148 3.4843 19.2199 3.4843 19.2272 3.4843L19.2378 3.45253C19.2615 3.43299 19.2851 3.41486 19.31 3.39693L19.3559 3.36317L19.3809 3.34493C19.4091 3.32412 19.437 3.30298 19.4649 3.28176L19.4939 3.25976L19.5505 3.21664L19.5766 3.19687L19.5999 3.17916C19.6098 3.17265 19.6146 3.16951 19.6199 3.168C19.6248 3.16659 19.63 3.16659 19.6403 3.16659V3.14541H19.672V3.12423C19.69 3.11021 19.7087 3.09717 19.7276 3.08452L19.7659 3.05862L19.7872 3.04426C19.8181 3.02317 19.8488 3.00161 19.8794 2.98005L19.8833 2.97729C20.0647 2.84964 20.2474 2.72446 20.435 2.60614C20.4662 2.58646 20.4817 2.57663 20.4971 2.56643C20.5124 2.55623 20.5275 2.54567 20.5576 2.52456C20.5914 2.49996 20.6269 2.48018 20.6636 2.46027C20.731 2.42316 20.7964 2.38228 20.8617 2.34145L20.8966 2.31966C20.9315 2.29866 20.9669 2.27883 21.0026 2.25916C21.0454 2.23532 21.0877 2.21055 21.1301 2.18578L21.1517 2.17316C21.2543 2.11343 21.359 2.05767 21.4644 2.00299C21.5341 1.96675 21.6037 1.93034 21.6729 1.89312C21.8737 1.78554 22.0797 1.68686 22.2883 1.59548C22.3377 1.57381 22.3858 1.55053 22.4338 1.52593C22.4661 1.5102 22.4994 1.49728 22.5328 1.48428L22.5363 1.48295C22.5635 1.472 22.5901 1.46003 22.6168 1.44766C22.7548 1.38423 22.8968 1.32949 23.0391 1.27661L23.1046 1.2522C23.1468 1.23642 23.1883 1.21978 23.2297 1.2021C23.3011 1.17194 23.3741 1.14661 23.4473 1.1213L23.6288 1.05798C23.69 1.03671 23.7513 1.01599 23.8128 0.995594C23.8439 0.985243 23.8749 0.974742 23.9059 0.964195C24.0164 0.926759 24.1268 0.891207 24.2394 0.86094C24.3018 0.844132 24.3638 0.825839 24.4258 0.807547L24.4526 0.799651C24.5928 0.758483 24.7341 0.722384 24.8759 0.687344L24.9551 0.667726C25.1491 0.619526 25.3433 0.574998 25.5393 0.535906L25.6203 0.519405C25.6783 0.507494 25.7361 0.496792 25.7946 0.488007C25.8515 0.47937 25.9079 0.469166 25.9644 0.458132C26.1115 0.429479 26.2587 0.408888 26.4074 0.390833C26.4647 0.38379 26.5215 0.37491 26.5784 0.365121C26.628 0.357001 26.6778 0.351228 26.7278 0.345618L26.763 0.341647L26.9297 0.323352C27.4385 0.267303 27.9455 0.248905 28.4571 0.250193ZM29.2878 7.91838C29.319 7.92338 29.3503 7.9269 29.3816 7.93043L29.3932 7.93173C29.4876 7.94313 29.5806 7.96158 29.6738 7.98011C29.7013 7.9854 29.7287 7.99023 29.7562 7.99503C29.8288 8.00814 29.9005 8.02502 29.9723 8.04194L29.995 8.04729C30.0952 8.07082 30.195 8.09509 30.294 8.12302L30.3428 8.13634C30.5929 8.20536 30.8371 8.29108 31.0777 8.38778L31.1109 8.40108C31.4093 8.52167 31.6965 8.66621 31.9779 8.82198C31.9779 8.86924 31.9681 8.8792 31.9377 8.91021L31.9346 8.91337L31.9151 8.93262L31.8946 8.95333C31.8719 8.9763 31.849 8.99912 31.8261 9.02194L31.7772 9.07115C31.7329 9.11578 31.6884 9.16027 31.6439 9.20472L31.5327 9.31607C31.4404 9.40865 31.3479 9.5011 31.2554 9.59349C31.175 9.67378 31.0948 9.75425 31.0146 9.83479C30.9324 9.91745 30.85 9.99999 30.7675 10.0824C30.7212 10.1287 30.6749 10.175 30.6287 10.2215C30.5853 10.2652 30.5418 10.3087 30.4981 10.3521L30.4502 10.4002C30.4285 10.4221 30.4066 10.4438 30.3847 10.4654L30.3655 10.4851C30.3477 10.5025 30.3477 10.5025 30.3152 10.527C30.2993 10.5265 30.292 10.5263 30.2849 10.5246C30.2789 10.5233 30.2731 10.5209 30.2623 10.5164L30.2419 10.5085L30.2218 10.499C29.963 10.3805 29.6875 10.2965 29.4118 10.2273C29.3933 10.2225 29.3749 10.2174 29.3566 10.212C29.2728 10.1874 29.1879 10.1736 29.1018 10.1603L29.0268 10.1484C28.9728 10.1398 28.9186 10.1321 28.8643 10.1246L28.833 10.1201C28.6331 10.0926 28.4362 10.0882 28.2348 10.0894C28.2036 10.0895 28.1723 10.0895 28.141 10.0894L28.1395 10.0894C27.9027 10.0891 27.6681 10.096 27.4347 10.1398L27.3952 10.1469L27.3193 10.1609C27.2924 10.1658 27.2655 10.1706 27.2386 10.1752C26.9364 10.2283 26.6384 10.3135 26.3558 10.4329C26.3258 10.4454 26.2955 10.4573 26.2651 10.4691L26.2525 10.4741C26.0785 10.5441 25.9143 10.6257 25.7508 10.7176L25.7213 10.734C25.6005 10.8014 25.4829 10.8713 25.3696 10.9506L25.3514 10.9632C25.1667 11.0918 24.9905 11.2304 24.8243 11.382C24.8096 11.3952 24.7949 11.4084 24.7799 11.4212C24.721 11.4717 24.6658 11.5257 24.6111 11.5806L24.5652 11.6265C24.5098 11.6818 24.4566 11.7382 24.4059 11.7978L24.3753 11.8326C24.3016 11.9169 24.2333 12.0043 24.1671 12.0946C24.1522 12.1149 24.1371 12.1351 24.1219 12.1553C24.0495 12.2521 23.9833 12.3522 23.9187 12.4544L23.8901 12.4994L23.8624 12.5431L23.8501 12.5625C23.7074 12.7905 23.5927 13.0409 23.4951 13.2911L23.4846 13.3178C23.3743 13.603 23.2801 13.9045 23.2345 14.2075C23.2295 14.2388 23.2238 14.2699 23.2181 14.3011L23.2175 14.3046C23.1138 14.8812 23.1333 15.479 23.2303 16.0551L23.2364 16.0915C23.2418 16.1233 23.2472 16.1551 23.2528 16.1868L23.2575 16.2137C23.2671 16.2655 23.2801 16.3152 23.2957 16.3654C23.3053 16.3967 23.3141 16.428 23.3228 16.4595C23.3703 16.6307 23.424 16.7988 23.4845 16.9659L23.4926 16.9886C23.5448 17.133 23.6141 17.2705 23.6838 17.4072L23.7103 17.4595C23.8499 17.736 24.0162 17.9912 24.2046 18.2367L24.2195 18.2561C24.3978 18.488 24.5954 18.7184 24.8194 18.9074C24.8497 18.9333 24.8789 18.9605 24.9081 18.9876C24.9136 18.9928 24.9192 18.998 24.9247 19.0032C24.9579 19.0321 24.9921 19.0591 25.027 19.086C25.0506 19.1041 25.074 19.1225 25.0973 19.141C25.1886 19.2132 25.2808 19.2821 25.3789 19.3448C25.4034 19.3606 25.4277 19.3766 25.4521 19.3926L25.4541 19.3939C25.6824 19.5428 25.9243 19.6741 26.1744 19.7829L26.196 19.7923C26.3066 19.8403 26.4177 19.8845 26.5318 19.923L26.5631 19.9338L26.6074 19.9493C26.7372 19.9944 26.8682 20.0297 27.0019 20.0615C27.0337 20.0692 27.0654 20.0772 27.0971 20.0852C27.7444 20.2473 28.4421 20.2464 29.0973 20.1323L29.1456 20.1244C29.2272 20.1106 29.3063 20.0906 29.3857 20.0677C29.4309 20.0547 29.476 20.0431 29.5219 20.0331C29.769 19.9792 30.0088 19.8819 30.2411 19.7829L30.2659 19.7723C30.4108 19.7103 30.5485 19.6377 30.6859 19.5605L30.7264 19.538C31.0273 19.3695 31.3136 19.165 31.567 18.9309C31.5825 18.9167 31.5981 18.9026 31.6141 18.889C31.6798 18.833 31.7404 18.7723 31.8013 18.7112L31.8564 18.6561C31.9168 18.5958 31.9758 18.535 32.0308 18.4697L32.0587 18.4376C32.2511 18.2129 32.4182 17.9709 32.5709 17.7178L32.5876 17.6905C32.6191 17.6386 32.6484 17.5865 32.6748 17.5318C32.7012 17.478 32.7284 17.4249 32.757 17.3722C32.7924 17.3069 32.824 17.2433 32.8476 17.1725C32.8572 17.1448 32.8689 17.1188 32.8813 17.0923C32.9197 17.0094 32.9522 16.9243 32.9839 16.8388L32.9919 16.8174C33.0341 16.7024 33.0656 16.5844 33.0971 16.4661L33.1033 16.4431C33.1283 16.3492 33.1503 16.2553 33.1682 16.1598C33.1718 16.1425 33.1734 16.1349 33.176 16.1278C33.178 16.1224 33.1806 16.1172 33.1852 16.1081C33.1886 16.0854 33.1916 16.0626 33.1944 16.0399C33.2011 15.9866 33.2088 15.9338 33.2178 15.8809C33.2376 15.7637 33.2476 15.6468 33.2553 15.5282L33.2592 15.4723L33.2805 15.1549C33.0742 15.2519 32.8704 15.3539 32.6667 15.456L30.9952 16.2924C30.9439 16.3181 30.8922 16.3427 30.8401 16.3669C30.7671 16.4011 30.6955 16.4374 30.6244 16.4755C30.5055 16.5392 30.3844 16.5977 30.2623 16.655C30.2032 16.6829 30.1455 16.7127 30.0882 16.744C30.0319 16.7744 29.9743 16.8014 29.9163 16.8282C29.8666 16.8514 29.818 16.8761 29.7698 16.9023C29.7068 16.9367 29.6426 16.9675 29.5774 16.9976C29.5277 17.0208 29.4791 17.0455 29.4309 17.0718C29.3753 17.1021 29.319 17.1299 29.2615 17.1565C29.2044 17.1829 29.1485 17.2105 29.0934 17.2405C29.034 17.2728 28.9738 17.3026 28.9127 17.3312C28.7999 17.3841 28.6882 17.4386 28.5785 17.4975C28.4904 17.5448 28.4011 17.5888 28.3107 17.6314C28.254 17.6581 28.1977 17.6855 28.1417 17.7136L28.1195 17.7247C28.0403 17.7644 27.9612 17.8043 27.8821 17.8441C27.6857 17.9431 27.4892 18.0418 27.2926 18.1405C27.1792 18.1974 27.0659 18.2544 26.9526 18.3115C26.8533 18.3615 26.754 18.4115 26.6546 18.4613C26.6021 18.4876 26.5496 18.5139 26.4972 18.5404C26.4481 18.5653 26.3989 18.59 26.3496 18.6146L26.2954 18.6419C26.2709 18.6544 26.2462 18.6667 26.2215 18.6789L26.2 18.6901C26.1552 18.7119 26.1271 18.7163 26.0791 18.7027C26.0673 18.6977 26.0614 18.6952 26.0557 18.6924C26.0501 18.6897 26.0446 18.6867 26.0336 18.6806L26.0084 18.6668L25.9818 18.6517L25.9537 18.636C25.654 18.4665 25.3762 18.2633 25.1231 18.03C25.108 18.0162 25.0928 18.0025 25.0772 17.9893C25.0111 17.9331 24.9502 17.8719 24.8891 17.8105L24.8805 17.8019L24.8208 17.7423C24.7579 17.6794 24.696 17.6165 24.6388 17.5483L24.6086 17.5136C24.3255 17.1857 24.2935 17.1486 24.2898 17.1089C24.2894 17.1038 24.2894 17.0987 24.2894 17.0929L27.2888 15.5931C27.3386 15.5682 27.3888 15.5444 27.4393 15.521C27.5123 15.4867 27.5839 15.4504 27.6549 15.4123C27.7738 15.3486 27.895 15.2901 28.0171 15.2329C28.0762 15.205 28.1338 15.1751 28.1912 15.1438C28.2474 15.1134 28.305 15.0864 28.363 15.0596C28.4128 15.0365 28.4614 15.0117 28.5096 14.9855C28.5726 14.9512 28.6368 14.9203 28.7019 14.8902C28.7517 14.867 28.8003 14.8423 28.8485 14.816C28.9037 14.786 28.9595 14.7583 29.0166 14.732C29.0781 14.7036 29.1383 14.6734 29.1979 14.6413C29.265 14.6052 29.3329 14.5721 29.402 14.5402C29.4581 14.5141 29.5125 14.4856 29.5669 14.456C29.6235 14.4254 29.6814 14.3982 29.7398 14.3713C29.7895 14.3481 29.8381 14.3234 29.8863 14.2971C29.9493 14.2628 30.0135 14.2319 30.0787 14.2018C30.1284 14.1786 30.177 14.1539 30.2252 14.1277C30.2882 14.0933 30.3524 14.0625 30.4175 14.0324C30.4673 14.0092 30.5159 13.9845 30.5641 13.9582C30.6197 13.9279 30.676 13.9001 30.7335 13.8735C30.7897 13.8476 30.8447 13.8204 30.899 13.7908C30.9662 13.7541 31.0349 13.7209 31.1042 13.6882C31.1721 13.6561 31.2394 13.6235 31.3054 13.5876C31.3806 13.5467 31.4575 13.5098 31.535 13.4733C31.5907 13.447 31.6461 13.4201 31.7011 13.3924L34.5202 11.9827C34.5809 11.9523 34.6423 11.9234 34.7039 11.8948C34.742 11.877 34.7791 11.8587 34.8153 11.8374C34.8358 11.8258 34.8434 11.8215 34.8515 11.8199C34.8562 11.819 34.8612 11.819 34.869 11.819L34.9605 12.0003C35.0149 12.1079 35.0653 12.2165 35.1126 12.3273L35.1256 12.3574C35.1638 12.4457 35.2014 12.5334 35.2292 12.6256C35.2378 12.6502 35.2473 12.6725 35.2582 12.696C35.2887 12.7636 35.312 12.8339 35.3354 12.9043L35.3423 12.925L35.3506 12.9502C35.4355 13.2058 35.5034 13.4648 35.5523 13.7297C35.5623 13.7838 35.5733 13.8376 35.5845 13.8914C35.6226 14.0741 35.6495 14.2572 35.6691 14.4427C35.6721 14.4716 35.6754 14.5004 35.6788 14.5293C35.7079 14.7791 35.7085 15.0288 35.7083 15.28L35.7083 15.3062C35.7082 15.3565 35.7081 15.4069 35.7079 15.4572L35.7077 15.5038C35.7075 15.5789 35.7063 15.6525 35.695 15.7268C35.694 15.7414 35.6932 15.756 35.6928 15.7706L35.6911 15.8188C35.683 16.0023 35.6688 16.1888 35.6288 16.3684C35.6198 16.4098 35.613 16.4514 35.6063 16.4933C35.5438 16.8765 35.4419 17.2493 35.3221 17.6182L35.3 17.6868C35.2688 17.7826 35.2332 17.8762 35.196 17.9698L35.1693 18.0375C35.1426 18.1056 35.1144 18.1717 35.0808 18.2367C35.0771 18.2452 35.0734 18.2537 35.0698 18.2622C35.0657 18.2716 35.0617 18.2809 35.0578 18.2902C34.9583 18.5237 34.8379 18.7484 34.7101 18.9674L34.6866 19.0084C34.6285 19.1087 34.5672 19.2061 34.5025 19.3022L34.4582 19.3685C34.3421 19.5422 34.22 19.7105 34.0869 19.8716C34.0649 19.8985 34.0433 19.9257 34.0218 19.953C33.9856 19.9983 33.9473 20.0413 33.9082 20.0841C33.8839 20.1114 33.8612 20.1395 33.8384 20.1681C33.7976 20.2186 33.7535 20.2642 33.7072 20.3096C33.6791 20.3372 33.652 20.365 33.6266 20.3951C33.5482 20.487 33.4597 20.5742 33.3674 20.652C33.3401 20.6759 33.3138 20.7006 33.2875 20.7255C33.2258 20.7837 33.1637 20.84 33.0973 20.8929C33.0719 20.9134 33.0471 20.9346 33.0223 20.956C32.9332 21.033 32.8389 21.1029 32.7442 21.1729C32.7296 21.1837 32.715 21.1946 32.7005 21.2055C32.6934 21.2108 32.6863 21.2161 32.6792 21.2214C32.5055 21.3517 32.3227 21.4712 32.1367 21.5832L32.1098 21.5995C31.6398 21.8822 31.136 22.1139 30.6139 22.2818C30.5817 22.2922 30.5496 22.3027 30.5176 22.3133C30.3913 22.3547 30.2644 22.3892 30.1352 22.4198L30.0643 22.437L30.0377 22.4434C30.0124 22.4504 29.9882 22.4586 29.9634 22.4674C29.9124 22.4846 29.8621 22.4925 29.8089 22.4993C29.7518 22.5066 29.6968 22.5157 29.6412 22.5306C29.5646 22.5505 29.487 22.5597 29.4086 22.569L29.4051 22.5694L29.3391 22.5775L29.2797 22.5847C29.2591 22.5875 29.2386 22.5907 29.2182 22.5948C29.1904 22.6003 29.1633 22.6028 29.1351 22.6048L29.101 22.6073L29.0656 22.6098L28.9592 22.6175C28.9297 22.62 28.9005 22.6229 28.8712 22.6264C28.708 22.645 28.5452 22.6458 28.3812 22.6456C28.3492 22.6455 28.3172 22.6456 28.2853 22.6458C28.0654 22.6471 27.8491 22.6368 27.6303 22.6142C27.5883 22.6099 27.5462 22.606 27.5042 22.6021C27.4812 22.5999 27.4582 22.5976 27.4352 22.5951C27.4174 22.5932 27.3995 22.5912 27.3817 22.5893L27.3555 22.5865C27.1006 22.5588 26.8484 22.5055 26.5987 22.4483L26.5647 22.4405C26.5126 22.4283 26.4961 22.4244 26.4801 22.4189C26.4727 22.4163 26.4654 22.4134 26.4547 22.4091C26.4305 22.3994 26.4081 22.3932 26.3827 22.3881C26.1357 22.3355 25.8915 22.2486 25.6585 22.1523C25.6173 22.1354 25.5758 22.1202 25.5337 22.1054C25.4406 22.0728 25.351 22.0355 25.2633 21.9903C25.2298 21.974 25.196 21.9592 25.1619 21.9444C25.0928 21.9143 25.0268 21.8839 24.963 21.8433C24.9274 21.822 24.8905 21.804 24.8533 21.7857L24.852 21.7851C24.7904 21.7549 24.7308 21.7228 24.6721 21.6874C24.6431 21.6704 24.614 21.6545 24.5844 21.6386C24.5217 21.6045 24.461 21.5676 24.4006 21.5296L24.3671 21.5086C24.1459 21.369 23.9319 21.2177 23.7281 21.0537L23.707 21.0368C23.6286 20.974 23.5513 20.9108 23.4774 20.8427C23.4521 20.8201 23.4258 20.7993 23.3991 20.7783C23.3355 20.7271 23.2788 20.6694 23.2218 20.6111C23.1864 20.575 23.1508 20.5402 23.1124 20.5074C23.0669 20.4684 23.0288 20.4243 22.991 20.3779C22.9871 20.3732 22.9841 20.3696 22.9814 20.3665C22.9792 20.3641 22.9773 20.362 22.9753 20.3599C22.9689 20.3534 22.9618 20.3476 22.9444 20.3336C22.891 20.3352 22.8467 20.3581 22.8006 20.382L22.7879 20.3885L22.7609 20.4021L22.6757 20.4454L22.5095 20.5295C22.4029 20.5835 22.2963 20.6374 22.1879 20.6877C22.099 20.7293 22.0124 20.7746 21.9259 20.821C21.8986 20.8355 21.8712 20.8497 21.8437 20.8637L21.8196 20.876C21.8102 20.8801 21.8055 20.8821 21.8006 20.8832C21.7955 20.8842 21.7902 20.8842 21.7795 20.8842L21.3754 20.076L21.3357 19.997C21.2972 19.9206 21.2598 19.8438 21.2235 19.7663C21.1917 19.6985 21.1582 19.6322 21.1223 19.5664C21.0919 19.5102 21.065 19.4526 21.0381 19.3945C21.0121 19.3386 20.9838 19.2844 20.9543 19.2302C20.9205 19.1678 20.8903 19.1037 20.8606 19.0393C20.8371 18.9886 20.8115 18.9399 20.7834 18.8916C20.7783 18.8817 20.7758 18.8768 20.7746 18.8716C20.7734 18.8666 20.7734 18.8613 20.7734 18.8509C20.8744 18.7962 20.9762 18.7441 21.0803 18.6953C21.2021 18.6382 21.3215 18.5772 21.4402 18.5138C21.4992 18.4824 21.5592 18.4537 21.6206 18.4273C21.6144 18.3903 21.6047 18.3593 21.5888 18.3253L21.5758 18.2971L21.5617 18.2671C21.4852 18.101 21.4147 17.9347 21.3564 17.7613L21.3247 17.6682C21.248 17.4434 21.1752 17.2181 21.1259 16.9854C21.1156 16.9369 21.103 16.89 21.0879 16.8428C21.0674 16.773 21.0557 16.7002 21.0441 16.6279C21.0421 16.6156 21.0401 16.6033 21.0381 16.591C21.0368 16.5828 21.0354 16.5747 21.034 16.5667C21.0249 16.5133 21.0155 16.4599 21.0056 16.4067C20.9793 16.265 20.9634 16.1246 20.9534 15.981L20.9507 15.9421C20.9469 15.888 20.9432 15.834 20.9396 15.78L20.9372 15.7428L20.9351 15.7102C20.9328 15.6813 20.93 15.6528 20.9268 15.624C20.9209 15.5657 20.9198 15.5078 20.9195 15.4493L20.9193 15.4152L20.919 15.3052L20.919 15.267C20.9191 14.9213 20.9403 14.5765 20.9852 14.2336L20.9892 14.2025C21.0021 14.1028 21.0167 14.0048 21.041 13.9071C21.0496 13.8698 21.0558 13.8325 21.062 13.7948C21.1196 13.4551 21.2156 13.1163 21.3347 12.7933L21.3459 12.7624C21.4012 12.6105 21.4612 12.4609 21.5244 12.3121C21.5343 12.2888 21.544 12.2654 21.5537 12.242C21.593 12.1482 21.6378 12.0577 21.6842 11.9673L21.7004 11.9354C21.8365 11.6687 21.9819 11.4101 22.1501 11.1624L22.1653 11.14C22.3572 10.8563 22.5637 10.5836 22.7942 10.33C22.8099 10.3127 22.8256 10.2953 22.8411 10.2779C22.8885 10.2246 22.9372 10.1734 22.9884 10.1236C22.998 10.1142 23.0033 10.109 23.008 10.1034C23.0137 10.0964 23.0185 10.0887 23.0291 10.0716H23.0503L23.0574 10.0537C23.0748 10.0234 23.0968 10.0042 23.1225 9.98156L23.1277 9.97697C23.1763 9.93373 23.2226 9.88905 23.2681 9.84261C23.3174 9.79251 23.3686 9.74715 23.4238 9.70345C23.4552 9.6778 23.4848 9.65057 23.5143 9.62286C23.5758 9.56562 23.6407 9.51395 23.7073 9.46282C23.7295 9.44568 23.7515 9.42835 23.7735 9.41097C23.9396 9.2801 24.1123 9.15991 24.2894 9.04437L24.3129 9.029C24.6622 8.80212 25.0507 8.57168 25.4445 8.43118C25.4736 8.42024 25.5014 8.40796 25.5296 8.39473C25.5913 8.3664 25.6541 8.3419 25.7177 8.31828L25.7516 8.30565C25.8181 8.28106 25.8845 8.25809 25.9525 8.23823C25.9873 8.22787 26.0216 8.2162 26.0559 8.20443C26.2685 8.13287 26.4854 8.07762 26.7039 8.02771L26.7368 8.02018C26.9221 7.97838 27.1092 7.94894 27.297 7.92181L27.3307 7.91692C27.3927 7.90815 27.4547 7.90054 27.517 7.89381C27.5403 7.89124 27.5636 7.88851 27.5868 7.88565C28.1385 7.81897 28.7401 7.8246 29.2878 7.91838ZM19.2696 17.1987L19.278 17.2164L19.2786 17.2179C19.3124 17.2892 19.3294 17.3251 19.3467 17.3609C19.3641 17.3969 19.3818 17.4328 19.4172 17.5045C19.4999 17.6686 19.5789 17.8344 19.6508 18.0035L19.6174 18.0191C19.5412 18.0547 19.4652 18.0907 19.3901 18.1286C19.313 18.1675 19.2352 18.2048 19.1573 18.242C19.0733 18.282 18.9894 18.3224 18.9056 18.363C18.7991 18.4144 18.6926 18.4657 18.5861 18.5167C18.5273 18.5449 18.4687 18.5732 18.4101 18.6016C18.2778 18.6658 18.1453 18.7289 18.0114 18.7897C17.9458 18.8196 17.8809 18.8507 17.8166 18.8834C17.7631 18.9106 17.7089 18.9364 17.6546 18.962C17.5933 18.9908 17.5324 19.0201 17.4719 19.0507C17.3953 19.0893 17.318 19.1264 17.2405 19.1633C17.1564 19.2034 17.0726 19.2438 16.9887 19.2843C16.8823 19.3357 16.7758 19.387 16.6692 19.4381C16.5842 19.4789 16.4992 19.5199 16.4142 19.561C16.3132 19.6098 16.2121 19.6583 16.1109 19.7067C16.0226 19.7488 15.9345 19.7914 15.8464 19.8339C15.7573 19.877 15.6681 19.92 15.5789 19.9627C15.4901 20.0053 15.4013 20.0481 15.3126 20.0909L15.1045 20.1914C14.9677 20.2576 14.8305 20.3226 14.6921 20.3853C14.6341 20.4118 14.5786 20.4394 14.5245 20.4732C14.5144 20.4774 14.5093 20.4795 14.5039 20.4803C14.4984 20.4812 14.4928 20.4808 14.4812 20.4799C14.4739 20.4766 14.4693 20.4745 14.4656 20.4714C14.4593 20.4663 14.4554 20.4583 14.445 20.4368C14.4393 20.4209 14.4339 20.405 14.4285 20.389L14.4192 20.3623L14.3987 20.3028C14.3868 20.2677 14.3745 20.2328 14.3621 20.1978C14.2462 19.8679 14.2194 19.7915 14.2018 19.713C14.1965 19.6893 14.1921 19.6655 14.1863 19.6344C14.2793 19.5874 14.3727 19.5414 14.4669 19.4968C14.5321 19.4659 14.5971 19.4347 14.6615 19.4021C14.7511 19.3569 14.8417 19.3138 14.9322 19.2707L14.9588 19.258L15.1525 19.1652C15.2317 19.1272 15.3108 19.089 15.3899 19.0508L15.5976 18.9505C15.7253 18.8889 15.8533 18.8281 15.982 18.7687C16.0668 18.7295 16.1511 18.6899 16.2344 18.6476C16.2877 18.6206 16.3416 18.5949 16.3957 18.5695C16.4529 18.5425 16.5099 18.5152 16.5664 18.4867C16.6392 18.4501 16.7126 18.415 16.7862 18.3799C16.8706 18.3396 16.9548 18.2991 17.039 18.2584C17.1347 18.2121 17.2305 18.166 17.3263 18.12C17.4151 18.0774 17.5039 18.0347 17.5926 17.9918L17.8007 17.8913C17.9363 17.8258 18.0725 17.7616 18.2094 17.6988C18.2786 17.667 18.3471 17.6342 18.4149 17.5997C18.4682 17.5727 18.5219 17.5471 18.5759 17.5217C18.6372 17.4929 18.6982 17.4635 18.7586 17.433C18.8586 17.3825 18.9598 17.3344 19.061 17.2864L19.1156 17.2604L19.2202 17.2108C19.2368 17.2037 19.2436 17.2007 19.2508 17.1995C19.2557 17.1987 19.2609 17.1987 19.2696 17.1987ZM22.0231 21.223C22.0298 21.234 22.0335 21.2402 22.037 21.2465C22.0413 21.2545 22.0453 21.2628 22.0541 21.2815L22.0721 21.3191L22.0912 21.36L22.1111 21.4018C22.1598 21.5043 22.2073 21.6074 22.2545 21.7107C22.2876 21.7829 22.3219 21.8544 22.3585 21.9249C22.3743 21.9556 22.3861 21.9837 22.3937 22.0172L22.3603 22.0328L22.3143 22.0543L22.2926 22.0644C22.2319 22.0928 22.172 22.1227 22.1121 22.1528C22.0293 22.1943 21.9461 22.2349 21.8629 22.2754L21.8385 22.2872C21.7319 22.3391 21.6248 22.3897 21.5166 22.4381C21.4548 22.4659 21.394 22.4952 21.3336 22.5259C21.2797 22.5533 21.2253 22.5793 21.1705 22.605C21.1093 22.6338 21.0483 22.6632 20.9879 22.6937C20.9112 22.7323 20.8339 22.7694 20.7564 22.8064C20.6724 22.8464 20.5885 22.8868 20.5047 22.9273C20.3542 23.0001 20.2035 23.0724 20.0528 23.1447C19.9175 23.2096 19.7822 23.2746 19.6471 23.3399C19.5477 23.388 19.4481 23.4358 19.3485 23.4836C19.2639 23.5242 19.1794 23.565 19.0949 23.6058C18.9889 23.657 18.8828 23.708 18.7766 23.7589C18.6986 23.7964 18.6206 23.834 18.5426 23.8717L18.3345 23.9721C18.1989 24.0377 18.0627 24.1019 17.9258 24.1647C17.8566 24.1965 17.7881 24.2293 17.7202 24.2638C17.667 24.2908 17.6133 24.3164 17.5593 24.3418C17.498 24.3706 17.437 24.4 17.3766 24.4305C17.221 24.509 17.0632 24.5829 16.9054 24.6568L16.8656 24.6754C16.7895 24.5876 16.7174 24.4975 16.6473 24.4048C16.6173 24.3652 16.5867 24.3259 16.5559 24.2868C16.4979 24.2128 16.441 24.138 16.3857 24.0618L16.3678 24.0373L16.3514 24.0145L16.337 23.9945C16.3325 23.9874 16.3298 23.9831 16.3275 23.9786C16.3239 23.9716 16.3214 23.964 16.3149 23.9447C16.4058 23.8943 16.4975 23.8485 16.5928 23.807C16.6526 23.7808 16.7109 23.7526 16.7691 23.723C16.8242 23.6951 16.8799 23.6685 16.9358 23.6422C16.993 23.6152 17.05 23.588 17.1065 23.5595C17.1793 23.5228 17.2527 23.4877 17.3263 23.4526C17.3847 23.4248 17.443 23.3968 17.5012 23.3686C17.6385 23.302 17.7762 23.2365 17.915 23.1729C17.9835 23.1414 18.0513 23.109 18.1184 23.0749C18.1716 23.0479 18.2254 23.0222 18.2794 22.9968C18.3407 22.968 18.4016 22.9387 18.4621 22.9081C18.5527 22.8624 18.6443 22.8188 18.736 22.7752L18.7607 22.7634L18.9544 22.6706C19.0467 22.6263 19.1388 22.5818 19.231 22.5373C19.3304 22.4892 19.43 22.4414 19.5295 22.3936C19.6142 22.353 19.6987 22.3122 19.7832 22.2714C19.9118 22.2093 20.0404 22.1475 20.1691 22.0857L20.5332 21.911C20.629 21.865 20.7247 21.819 20.8206 21.7732C20.9294 21.7213 21.038 21.669 21.1466 21.6165C21.2463 21.5683 21.3462 21.5203 21.4461 21.4724C21.5063 21.4436 21.5664 21.4146 21.6264 21.3856L21.7458 21.3278L21.8178 21.2931C21.8427 21.2812 21.8674 21.2692 21.8922 21.2571L21.9296 21.2391L21.9632 21.2228C21.9765 21.2178 21.9835 21.2153 21.9906 21.215C21.9984 21.2148 22.0064 21.2174 22.0231 21.223ZM19.0968 20.019L19.0578 19.9416C19.0472 19.9416 19.0419 19.9416 19.0369 19.9427C19.0318 19.9438 19.027 19.9461 19.0173 19.9506C19.0017 19.9588 18.9859 19.9668 18.97 19.9745L18.912 20.0022C18.8059 20.0531 18.7 20.104 18.5941 20.1552C18.4963 20.2024 18.3986 20.2496 18.3006 20.2963C18.2087 20.3402 18.1169 20.3844 18.0252 20.4287C17.941 20.4695 17.8566 20.5101 17.7721 20.5504C17.6946 20.5873 17.6173 20.6244 17.5407 20.663C17.4803 20.6936 17.4193 20.7229 17.3581 20.7517C17.3044 20.7769 17.251 20.8024 17.1981 20.8292C17.1208 20.8685 17.0425 20.9056 16.9637 20.942C16.7668 21.033 16.5713 21.1269 16.3759 21.2213C16.2975 21.2591 16.2191 21.297 16.1406 21.3346C16.0345 21.3855 15.9284 21.4365 15.8225 21.4877C15.7472 21.5241 15.672 21.5604 15.5966 21.5965C15.4888 21.6481 15.3811 21.6998 15.2744 21.7536C15.2372 21.7724 15.2 21.791 15.1628 21.8096L15.0653 21.8584L15.0804 21.8909C15.1408 22.0209 15.2013 22.1512 15.2731 22.2754C15.2951 22.313 15.3166 22.3508 15.3371 22.3893L15.3969 22.5024L15.4165 22.5402L15.4351 22.5754C15.4444 22.5931 15.4485 22.601 15.4531 22.6087C15.4567 22.6148 15.4606 22.6207 15.4677 22.6315C15.4828 22.6365 15.4915 22.6394 15.5002 22.6393C15.5117 22.6392 15.5232 22.6337 15.5501 22.621L15.5703 22.611C15.6273 22.5835 15.6839 22.5553 15.7404 22.5269C15.8026 22.4955 15.8653 22.4652 15.9284 22.4356C15.9824 22.4102 16.0361 22.3845 16.0894 22.3576C16.1572 22.323 16.2257 22.2903 16.2949 22.2584C16.4318 22.1957 16.5679 22.1315 16.7035 22.066L16.913 21.9648C16.9903 21.9274 17.0677 21.8902 17.1452 21.8532C17.2226 21.8163 17.3 21.7792 17.3766 21.7406C17.437 21.71 17.498 21.6807 17.5593 21.6519C17.6133 21.6265 17.667 21.6009 17.7202 21.5739C17.7881 21.5394 17.8566 21.5066 17.9258 21.4748C18.0627 21.412 18.1988 21.3478 18.3344 21.2823L18.5439 21.1811C18.6212 21.1437 18.6986 21.1065 18.7761 21.0696C18.854 21.0324 18.9317 20.9951 19.0088 20.9562C19.0653 20.9277 19.1222 20.9003 19.1796 20.8735C19.2669 20.8328 19.3531 20.7899 19.439 20.7464C19.3838 20.6178 19.3239 20.4916 19.2625 20.3657L19.2605 20.3615C19.2286 20.2963 19.1968 20.2312 19.167 20.165C19.1481 20.1231 19.1284 20.0817 19.1077 20.0405L19.0968 20.019Z" fill="#10BB76"/>
<path d="M60.136 14.298H67.822V21.75H64.654L64.276 18.564C63.916 19.704 63.274 20.55 62.35 21.102C61.426 21.654 60.298 21.93 58.966 21.93C57.754 21.93 56.674 21.66 55.726 21.12C54.79 20.58 54.052 19.806 53.512 18.798C52.984 17.79 52.72 16.614 52.72 15.27C52.72 13.122 53.362 11.424 54.646 10.176C55.93 8.928 57.928 8.304 60.64 8.304C62.188 8.304 63.55 8.556 64.726 9.06C65.914 9.564 66.922 10.344 67.75 11.4C67.21 11.676 66.154 12.228 64.582 13.056L64.132 13.308C63.664 12.84 63.118 12.492 62.494 12.264C61.87 12.024 61.21 11.904 60.514 11.904C59.362 11.904 58.504 12.21 57.94 12.822C57.376 13.422 57.094 14.166 57.094 15.054C57.094 16.014 57.394 16.788 57.994 17.376C58.606 17.964 59.536 18.258 60.784 18.258C61.324 18.258 61.846 18.18 62.35 18.024C62.866 17.868 63.298 17.598 63.646 17.214H60.136V14.298ZM73.437 14.586C73.941 12.774 75.195 11.868 77.199 11.868C77.547 11.868 77.883 11.892 78.207 11.94L77.631 15.972C76.767 15.648 76.059 15.486 75.507 15.486C74.823 15.486 74.319 15.69 73.995 16.098C73.671 16.506 73.509 17.052 73.509 17.736V17.718L73.491 18.906C73.491 19.758 73.515 20.706 73.563 21.75H69.261C69.357 20.022 69.405 18.39 69.405 16.854C69.405 15.318 69.357 13.674 69.261 11.922C70.053 11.958 70.659 11.976 71.079 11.976C71.523 11.976 72.129 11.958 72.897 11.922L73.437 14.586ZM88.6268 17.25H82.7588C82.8548 17.778 83.0888 18.21 83.4608 18.546C83.8448 18.87 84.3848 19.032 85.0808 19.032C85.5848 19.032 86.0588 18.936 86.5028 18.744C86.9468 18.54 87.3008 18.258 87.5648 17.898C88.3688 18.294 89.4368 18.72 90.7688 19.176C90.3968 20.016 89.7188 20.688 88.7348 21.192C87.7628 21.684 86.4908 21.93 84.9188 21.93C82.8788 21.93 81.3668 21.462 80.3828 20.526C79.4108 19.578 78.9248 18.336 78.9248 16.8C78.9248 15.3 79.4108 14.082 80.3828 13.146C81.3548 12.21 82.8668 11.742 84.9188 11.742C86.1428 11.742 87.2048 11.946 88.1048 12.354C89.0048 12.762 89.6948 13.332 90.1748 14.064C90.6548 14.784 90.8948 15.612 90.8948 16.548C90.8948 16.86 90.8828 17.094 90.8588 17.25H88.6268ZM85.1708 14.46C84.5708 14.46 84.0788 14.574 83.6948 14.802C83.3108 15.03 83.0408 15.342 82.8848 15.738H87.1328C86.9888 15.354 86.7548 15.048 86.4308 14.82C86.1068 14.58 85.6868 14.46 85.1708 14.46ZM101.67 17.25H95.8017C95.8977 17.778 96.1317 18.21 96.5037 18.546C96.8877 18.87 97.4277 19.032 98.1237 19.032C98.6277 19.032 99.1017 18.936 99.5457 18.744C99.9897 18.54 100.344 18.258 100.608 17.898C101.412 18.294 102.48 18.72 103.812 19.176C103.44 20.016 102.762 20.688 101.778 21.192C100.806 21.684 99.5337 21.93 97.9617 21.93C95.9217 21.93 94.4097 21.462 93.4257 20.526C92.4537 19.578 91.9677 18.336 91.9677 16.8C91.9677 15.3 92.4537 14.082 93.4257 13.146C94.3977 12.21 95.9097 11.742 97.9617 11.742C99.1857 11.742 100.248 11.946 101.148 12.354C102.048 12.762 102.738 13.332 103.218 14.064C103.698 14.784 103.938 15.612 103.938 16.548C103.938 16.86 103.926 17.094 103.902 17.25H101.67ZM98.2137 14.46C97.6137 14.46 97.1217 14.574 96.7377 14.802C96.3537 15.03 96.0837 15.342 95.9277 15.738H100.176C100.032 15.354 99.7977 15.048 99.4737 14.82C99.1497 14.58 98.7297 14.46 98.2137 14.46ZM113.057 11.742C113.837 11.742 114.539 11.964 115.163 12.408C115.787 12.852 116.273 13.458 116.621 14.226C116.969 14.982 117.143 15.816 117.143 16.728C117.143 17.628 116.969 18.48 116.621 19.284C116.273 20.076 115.781 20.718 115.145 21.21C114.521 21.69 113.807 21.93 113.003 21.93C112.067 21.93 111.263 21.738 110.591 21.354C109.931 20.958 109.439 20.352 109.115 19.536C109.115 20.22 109.139 21.318 109.187 22.83C109.235 24.294 109.259 25.326 109.259 25.926H105.191C105.263 23.694 105.299 21.36 105.299 18.924C105.299 16.488 105.263 14.154 105.191 11.922H108.647L109.169 14.172C109.505 13.332 110.009 12.72 110.681 12.336C111.353 11.94 112.145 11.742 113.057 11.742ZM111.131 18.69C111.671 18.69 112.121 18.522 112.481 18.186C112.853 17.838 113.039 17.388 113.039 16.836C113.039 16.224 112.871 15.726 112.535 15.342C112.199 14.958 111.743 14.766 111.167 14.766C110.507 14.766 110.009 14.928 109.673 15.252C109.337 15.564 109.169 16.092 109.169 16.836C109.169 17.256 109.277 17.61 109.493 17.898C109.709 18.174 109.967 18.378 110.267 18.51C110.567 18.63 110.855 18.69 111.131 18.69Z" fill="#0A141E"/>
<path d="M133.371 21.75C133.143 21.066 132.837 20.208 132.453 19.176H126.711L125.811 21.75H121.293L126.333 8.682H132.957L138.033 21.75H133.371ZM131.427 16.368C130.971 15.108 130.503 13.848 130.023 12.588L129.591 11.418C129.171 12.51 128.553 14.16 127.737 16.368H131.427ZM150.414 7.746C150.342 9.978 150.306 12.312 150.306 14.748C150.306 17.16 150.342 19.494 150.414 21.75H146.346L146.4 19.59C146.052 20.394 145.548 20.988 144.888 21.372C144.228 21.744 143.448 21.93 142.548 21.93C141.768 21.93 141.066 21.708 140.442 21.264C139.818 20.82 139.332 20.22 138.984 19.464C138.636 18.696 138.462 17.856 138.462 16.944C138.462 16.044 138.636 15.198 138.984 14.406C139.332 13.602 139.818 12.96 140.442 12.48C141.078 11.988 141.798 11.742 142.602 11.742C143.538 11.742 144.336 11.94 144.996 12.336C145.668 12.72 146.166 13.32 146.49 14.136C146.49 13.452 146.466 12.354 146.418 10.842C146.37 9.378 146.346 8.346 146.346 7.746H150.414ZM144.438 18.906C145.026 18.906 145.506 18.744 145.878 18.42C146.25 18.084 146.436 17.556 146.436 16.836C146.436 16.2 146.25 15.732 145.878 15.432C145.506 15.132 145.038 14.982 144.474 14.982C143.934 14.982 143.478 15.156 143.106 15.504C142.746 15.84 142.566 16.284 142.566 16.836C142.566 17.448 142.734 17.946 143.07 18.33C143.406 18.714 143.862 18.906 144.438 18.906ZM165.811 21.75C165.907 20.178 165.955 18.552 165.955 16.872C165.955 16.332 165.817 15.912 165.541 15.612C165.277 15.3 164.923 15.144 164.479 15.144C164.071 15.144 163.717 15.324 163.417 15.684C163.129 16.044 162.985 16.566 162.985 17.25V17.232C162.985 19.356 163.015 20.862 163.075 21.75H159.025C159.097 19.986 159.133 18.36 159.133 16.872C159.133 16.344 159.001 15.924 158.737 15.612C158.485 15.3 158.161 15.144 157.765 15.144C157.345 15.144 156.991 15.324 156.703 15.684C156.427 16.032 156.265 16.512 156.217 17.124C156.193 18.036 156.181 18.684 156.181 19.068C156.181 19.884 156.205 20.778 156.253 21.75H151.951C152.047 20.022 152.095 18.39 152.095 16.854C152.095 15.318 152.047 13.674 151.951 11.922C152.743 11.958 153.349 11.976 153.769 11.976C154.213 11.976 154.819 11.958 155.587 11.922L156.127 14.586C156.403 13.614 156.841 12.9 157.441 12.444C158.041 11.976 158.731 11.742 159.511 11.742C160.447 11.742 161.209 12 161.797 12.516C162.397 13.032 162.769 13.704 162.913 14.532C163.189 13.68 163.651 13.002 164.299 12.498C164.947 11.994 165.685 11.742 166.513 11.742C167.593 11.742 168.439 12.108 169.051 12.84C169.663 13.56 169.969 14.55 169.969 15.81V18.798C169.969 20.154 169.981 21.138 170.005 21.75H165.811ZM174.03 10.86C173.274 10.86 172.71 10.674 172.338 10.302C171.978 9.93 171.798 9.444 171.798 8.844C171.798 8.256 171.978 7.77 172.338 7.386C172.71 7.002 173.274 6.81 174.03 6.81C174.75 6.81 175.302 7.008 175.686 7.404C176.07 7.788 176.262 8.268 176.262 8.844C176.262 9.444 176.076 9.93 175.704 10.302C175.332 10.674 174.774 10.86 174.03 10.86ZM171.942 21.75C172.026 19.818 172.068 18.222 172.068 16.962C172.068 15.462 172.02 13.782 171.924 11.922H176.244C176.148 13.71 176.1 15.39 176.1 16.962C176.1 18.282 176.142 19.878 176.226 21.75H171.942ZM184.896 21.75C184.968 19.986 185.004 18.36 185.004 16.872C185.004 16.344 184.872 15.924 184.608 15.612C184.356 15.3 184.032 15.144 183.636 15.144C183.24 15.144 182.904 15.324 182.628 15.684C182.352 16.032 182.19 16.512 182.142 17.124C182.118 18.036 182.106 18.684 182.106 19.068C182.106 19.884 182.13 20.778 182.178 21.75H177.876C177.972 20.022 178.02 18.39 178.02 16.854C178.02 15.318 177.972 13.674 177.876 11.922C178.668 11.958 179.274 11.976 179.694 11.976C180.138 11.976 180.744 11.958 181.512 11.922L182.034 14.568C182.31 13.608 182.742 12.9 183.33 12.444C183.918 11.976 184.602 11.742 185.382 11.742C186.102 11.742 186.726 11.904 187.254 12.228C187.782 12.54 188.178 12.966 188.442 13.506C188.718 14.046 188.856 14.652 188.856 15.324V17.916C188.856 19.512 188.886 20.79 188.946 21.75H184.896Z" fill="#10BB76"/>
</svg>
