<svg width="174" height="120" viewBox="0 0 174 120" fill="none" xmlns="http://www.w3.org/2000/svg">
<path fill-rule="evenodd" clip-rule="evenodd" d="M113.727 0.000770667C113.939 0.00124995 114.152 0.00107653 114.364 0.000541658C116.589 -0.0049092 118.84 0.0245745 121.042 0.379918C121.199 0.404679 121.358 0.422007 121.517 0.438071C122.174 0.508521 122.828 0.604863 123.482 0.702366L123.663 0.729113C124.014 0.780819 124.361 0.842685 124.707 0.919554C124.907 0.962431 125.109 0.995556 125.311 1.02848C125.68 1.09076 126.044 1.16618 126.409 1.25168C126.665 1.31153 126.922 1.36521 127.18 1.41502C127.568 1.49068 127.95 1.58421 128.332 1.68275C128.45 1.71287 128.569 1.7421 128.687 1.77112C129.554 1.98389 130.412 2.22594 131.266 2.48569C131.368 2.51652 131.471 2.54675 131.573 2.5768C132.086 2.72791 132.594 2.89378 133.1 3.06521L133.382 3.15883C133.759 3.28328 134.133 3.41614 134.505 3.55425L134.981 3.7299C135.187 3.80513 135.394 3.87806 135.601 3.95055C135.765 4.01154 135.922 4.08395 136.081 4.15822C136.235 4.22774 136.392 4.2872 136.55 4.34685L136.596 4.36407C136.851 4.46228 137.103 4.56728 137.355 4.67229L137.37 4.67823L137.585 4.76731C137.892 4.89374 138.194 5.02779 138.495 5.16661L138.627 5.22676C138.813 5.3124 138.999 5.39877 139.182 5.49143C139.295 5.54803 139.404 5.59714 139.523 5.64052C139.743 5.7267 139.952 5.83158 140.163 5.93881C140.376 6.04712 140.592 6.14918 140.809 6.24946C141.037 6.35507 141.252 6.4682 141.465 6.60175C141.609 6.68682 141.758 6.76059 141.908 6.83457C142.345 7.05026 142.771 7.28118 143.191 7.52856C143.307 7.59581 143.424 7.66047 143.542 7.72415C144.055 8.00261 144.555 8.30169 145.052 8.60773C145.156 8.67145 145.261 8.73405 145.366 8.79641C145.588 8.92955 145.807 9.06918 146.025 9.20943L146.397 9.44878C146.596 9.57924 146.696 9.64445 146.796 9.70759C146.897 9.77069 146.999 9.83171 147.203 9.95372L147.296 10.0143L147.296 10.099L147.37 10.1127C147.48 10.1457 147.547 10.1924 147.64 10.2605C147.787 10.3665 147.935 10.4687 148.086 10.5676L148.191 10.6363L148.402 10.773L148.499 10.8372L148.588 10.8947L148.651 10.9462L148.651 11.0309L148.72 11.0389C148.841 11.0802 148.926 11.1553 149.019 11.2362L149.075 11.2851L149.202 11.3275L149.202 11.4122L149.286 11.4377C149.452 11.5147 149.587 11.6229 149.728 11.7363L149.766 11.767L150.075 12.0109C150.225 12.1278 150.376 12.2414 150.528 12.3547L150.937 12.66L151.172 12.8366L151.244 12.8897C151.299 12.9318 151.352 12.9766 151.405 13.0219L151.405 13.1066H151.532C151.579 13.1536 151.626 13.201 151.671 13.2496C151.781 13.3534 151.905 13.4389 152.029 13.5245L152.094 13.57C152.215 13.6613 152.315 13.7619 152.421 13.8691C152.544 13.9701 152.668 14.0681 152.793 14.1662L152.887 14.2504L152.887 14.3351H153.015C153.065 14.3824 153.114 14.4302 153.162 14.4804C153.238 14.5589 153.319 14.6309 153.401 14.7031L153.486 14.7777C153.523 14.8093 153.544 14.8271 153.565 14.8436C153.594 14.865 153.624 14.8841 153.692 14.9282L153.692 15.0129L153.761 15.042C153.897 15.1169 154.001 15.2051 154.116 15.3094L154.116 15.3941L154.185 15.4232C154.406 15.5456 154.583 15.7282 154.758 15.9089L154.818 15.9713C154.943 16.0976 155.069 16.2189 155.204 16.334C155.386 16.4901 155.553 16.6594 155.72 16.8307C155.817 16.9292 155.907 17.0116 156.022 17.0886L156.022 17.1733L156.149 17.2156L156.149 17.3004L156.276 17.3427C156.334 17.4126 156.39 17.4833 156.446 17.5545L156.573 17.6393L156.573 17.724L156.7 17.7663L156.7 17.8511L156.827 17.8934C156.839 17.9055 156.848 17.9152 156.856 17.9235C156.867 17.934 156.875 17.9425 156.883 17.9512C156.9 17.9701 156.916 17.9898 156.951 18.0335C157.112 18.224 157.287 18.3971 157.466 18.5696C157.523 18.6251 157.578 18.6827 157.632 18.7406L157.632 18.8254L157.759 18.8677C157.786 18.8943 157.8 18.9088 157.814 18.924C157.832 18.9426 157.848 18.9621 157.883 19.0054C157.982 19.122 158.082 19.2359 158.186 19.3471L158.256 19.4211L158.394 19.5675C158.493 19.6724 158.56 19.7462 158.606 19.8844L158.733 19.9267C158.813 20.0182 158.843 20.0523 158.854 20.0917C158.86 20.1152 158.86 20.1405 158.86 20.1809L158.933 20.2092C159.054 20.2798 159.123 20.3672 159.208 20.4748L159.22 20.4907L159.317 20.612L159.494 20.8393C159.583 20.9459 159.678 21.0412 159.776 21.1386L159.792 21.1552C159.873 21.2463 159.952 21.3396 160.031 21.4332L160.092 21.5056C160.323 21.7806 160.372 21.8387 160.383 21.9029C160.385 21.9201 160.385 21.9377 160.385 21.9601L160.512 22.0024C160.582 22.0841 160.645 22.1648 160.708 22.2513L160.761 22.321C160.838 22.4262 160.894 22.5129 160.936 22.6378H161.021C161.104 22.7377 161.182 22.8382 161.259 22.9423L161.408 23.1402L161.488 23.247C161.574 23.3615 161.661 23.4753 161.748 23.589L162.01 23.9305C162.171 24.1418 162.326 24.3563 162.478 24.5748C162.583 24.7249 162.696 24.8694 162.809 25.014L162.85 25.0666C162.918 25.1669 162.952 25.2306 162.969 25.3489H163.054C163.087 25.3885 163.105 25.4103 163.122 25.4328C163.143 25.4604 163.163 25.489 163.207 25.5526L163.289 25.6675C163.319 25.719 163.334 25.7453 163.342 25.7736C163.351 25.8031 163.351 25.8349 163.351 25.8996H163.435C163.511 26.0006 163.581 26.1014 163.65 26.2067L163.709 26.2943C163.799 26.4312 163.868 26.5419 163.901 26.7045H163.986C164.012 26.7392 164.026 26.7591 164.04 26.7794C164.058 26.8065 164.076 26.8345 164.115 26.8994L164.282 27.1705L164.356 27.2858L164.473 27.467L164.745 27.8899L164.884 28.107C164.983 28.2664 165.08 28.4275 165.176 28.5887L165.214 28.6531L165.34 28.8619C165.548 29.2084 165.756 29.5551 165.958 29.9051C166.012 29.9959 166.068 30.0844 166.125 30.1728C166.239 30.3521 166.331 30.5429 166.423 30.7342L166.449 30.7897C166.52 30.9305 166.602 31.0615 166.687 31.1942C166.77 31.3284 166.842 31.4677 166.914 31.6078C167.02 31.8103 167.127 32.0117 167.238 32.2109C167.434 32.56 167.62 32.9061 167.774 33.2757C167.864 33.489 167.969 33.6918 168.079 33.8953C168.207 34.131 168.319 34.3658 168.418 34.6157C168.483 34.768 168.556 34.9144 168.632 35.0615C168.816 35.4243 168.977 35.7951 169.135 36.1695L169.215 36.3562C169.349 36.6697 169.48 36.984 169.61 37.299L169.646 37.3859C169.749 37.6345 169.843 37.8858 169.936 38.138C170.003 38.3181 170.073 38.4969 170.144 38.6757L170.149 38.69C170.261 38.9735 170.365 39.2589 170.464 39.5466C170.52 39.705 170.578 39.8614 170.642 40.0164C170.722 40.2117 170.782 40.4109 170.843 40.6129C170.897 40.7884 170.954 40.9624 171.013 41.1363L171.045 41.2347C171.099 41.394 171.152 41.5531 171.207 41.7118C171.348 42.1223 171.47 42.5362 171.585 42.9545C171.662 43.2341 171.743 43.512 171.828 43.7892C171.942 44.1646 172.039 44.543 172.132 44.9243C172.156 45.0238 172.181 45.1233 172.206 45.2227C172.223 45.2907 172.24 45.3588 172.257 45.4269L172.273 45.4922C172.335 45.739 172.397 45.9859 172.458 46.2329L172.484 46.3389C172.654 47.0258 172.786 47.7213 172.918 48.4164L172.977 48.7297C173.024 48.9753 173.072 49.2206 173.123 49.4655C173.167 49.687 173.205 49.9083 173.238 50.1317C173.258 50.2694 173.28 50.4067 173.303 50.5441L173.325 50.6805L173.369 50.9467C173.415 51.2282 173.452 51.5103 173.484 51.7937C173.51 52.02 173.538 52.246 173.567 52.472C173.681 53.3563 173.785 54.2397 173.856 55.1287L173.864 55.2307C173.982 56.7295 174.003 58.2246 173.999 59.7269C173.999 59.9394 173.999 60.1519 174 60.3644C174.006 62.9021 173.85 65.4058 173.517 67.9217L173.499 68.0562C173.464 68.3222 173.428 68.588 173.39 68.8536L173.376 68.951C173.236 69.9475 173.071 70.9437 172.849 71.9253C172.792 72.1743 172.743 72.4247 172.694 72.6753L172.688 72.7058C172.621 73.0448 172.549 73.3799 172.462 73.7144C172.415 73.8944 172.372 74.0753 172.329 74.2563L172.326 74.2692C172.113 75.1688 171.873 76.0574 171.607 76.9428C171.554 77.1206 171.501 77.2986 171.449 77.4767L171.357 77.7918L171.33 77.884C171.237 78.1999 171.133 78.5121 171.028 78.8243L171 78.9092C170.841 79.3855 170.678 79.8603 170.509 80.3334L170.462 80.4658L170.311 80.8921L170.263 81.0256C170.183 81.2511 170.096 81.471 169.996 81.6889C169.942 81.8103 169.898 81.9346 169.853 82.0596C169.473 83.0923 169.047 84.1321 168.544 85.111C168.472 85.2522 168.407 85.3926 168.352 85.5412C168.272 85.7506 168.167 85.9454 168.061 86.1417L168.025 86.2084C167.917 86.4095 167.818 86.6122 167.726 86.8209C167.536 87.2392 167.322 87.6436 167.094 88.042C166.962 88.2738 166.841 88.5103 166.724 88.7499C166.651 88.9002 166.572 89.0442 166.485 89.1869L166.366 89.4093C166.285 89.5592 166.2 89.7028 166.104 89.8435C166.016 89.9717 165.938 90.1008 165.866 90.2379C165.708 90.5321 165.536 90.8171 165.363 91.1021L165.278 91.2413L165.08 91.5715C164.995 91.7132 164.909 91.8541 164.82 91.9933L164.745 92.1104L164.522 92.4573L164.424 92.6086L164.338 92.7433C164.29 92.8189 164.242 92.8948 164.195 92.9712L164.115 93.0999L164.045 93.2148L163.986 93.2959H163.901L163.886 93.3709C163.847 93.5066 163.77 93.6183 163.691 93.7326L163.649 93.7936L163.591 93.8831C163.541 93.9573 163.488 94.0293 163.435 94.1007H163.35L163.337 94.1729C163.303 94.2881 163.25 94.3715 163.184 94.4714L163.116 94.574L163.054 94.6514H162.969L162.959 94.7214C162.919 94.8462 162.852 94.932 162.773 95.0327L162.755 95.0565L162.649 95.1945L162.595 95.2639L162.523 95.3609C162.479 95.4197 162.437 95.479 162.395 95.5383C162.047 96.0181 161.684 96.4868 161.321 96.955L161.182 97.1338C161.126 97.2082 161.072 97.2848 161.02 97.3625H160.936L160.905 97.4307C160.835 97.5615 160.749 97.6782 160.66 97.7967L160.609 97.8679C160.564 97.927 160.517 97.9839 160.47 98.0403H160.385L160.354 98.1111C160.289 98.2312 160.208 98.3274 160.12 98.4321C160.003 98.5726 159.889 98.7134 159.781 98.861C159.682 98.9955 159.573 99.1093 159.453 99.2264C159.335 99.3522 159.275 99.4151 159.219 99.4803C159.163 99.5453 159.109 99.6127 159.003 99.7471L158.945 99.8194H158.86L158.823 99.8962C158.804 99.9338 158.792 99.9562 158.78 99.978C158.761 100.01 158.741 100.04 158.691 100.116H158.606L158.572 100.192C158.519 100.289 158.466 100.348 158.386 100.423C158.178 100.625 157.99 100.843 157.809 101.069L157.716 101.175H157.632L157.597 101.252C157.548 101.343 157.5 101.401 157.426 101.473L157.354 101.543L157.279 101.614C157.138 101.751 157.001 101.886 156.878 102.04L156.784 102.149H156.7L156.657 102.276H156.573L156.53 102.403C156.46 102.461 156.39 102.517 156.318 102.573L156.234 102.7H156.149L156.107 102.827H156.022L155.979 102.954C155.952 102.981 155.937 102.996 155.922 103.01C155.903 103.027 155.883 103.043 155.84 103.078C155.681 103.213 155.533 103.356 155.386 103.505C155.162 103.732 154.931 103.947 154.68 104.146C154.534 104.264 154.406 104.398 154.277 104.535C154.235 104.574 154.216 104.592 154.194 104.6C154.175 104.606 154.154 104.606 154.116 104.606L154.073 104.733C154.002 104.798 153.929 104.859 153.854 104.919L153.726 105.021L153.607 105.115C153.416 105.269 153.237 105.431 153.072 105.615C153.05 105.635 153.036 105.647 153.02 105.654C152.995 105.665 152.965 105.665 152.887 105.665L152.861 105.737C152.785 105.863 152.678 105.941 152.561 106.025L152.535 106.044C152.355 106.176 152.198 106.312 152.04 106.47C151.96 106.531 151.879 106.59 151.796 106.648C151.716 106.699 151.677 106.724 151.643 106.756C151.611 106.786 151.584 106.822 151.532 106.894H151.405L151.362 107.021C151.266 107.1 151.169 107.173 151.068 107.246L150.784 107.455C150.631 107.569 150.481 107.687 150.331 107.805L150.3 107.828C150.056 108.019 149.811 108.208 149.562 108.392L149.481 108.453C149.353 108.546 149.314 108.575 149.271 108.584C149.251 108.588 149.231 108.588 149.202 108.588L149.202 108.673L149.061 108.75C148.971 108.801 148.905 108.843 148.831 108.916L148.778 108.969H148.651L148.651 109.054C148.555 109.124 148.46 109.189 148.36 109.253L148.185 109.367L148.097 109.424C147.895 109.557 147.692 109.693 147.504 109.846C147.468 109.87 147.448 109.884 147.426 109.892C147.398 109.901 147.366 109.901 147.295 109.901L147.295 109.986C147.193 110.056 147.09 110.121 146.983 110.185C146.78 110.308 146.58 110.432 146.387 110.571C146.231 110.683 146.071 110.777 145.901 110.868C145.793 110.929 145.696 111 145.597 111.074C145.514 111.131 145.431 111.179 145.342 111.227C145.131 111.343 144.925 111.466 144.719 111.59C144.266 111.864 143.809 112.131 143.347 112.389C143.192 112.476 143.04 112.564 142.89 112.657C142.691 112.778 142.485 112.881 142.276 112.983C142.048 113.096 141.823 113.213 141.598 113.333C141.268 113.507 140.936 113.676 140.602 113.842C140.454 113.915 140.306 113.989 140.158 114.063L139.92 114.182L139.751 114.267C139.609 114.339 139.468 114.408 139.318 114.463C139.102 114.547 138.895 114.646 138.686 114.746C138.354 114.905 138.019 115.054 137.68 115.196L137.54 115.257C137.354 115.337 137.166 115.411 136.978 115.485C136.725 115.586 136.473 115.688 136.223 115.797C135.981 115.903 135.735 115.993 135.486 116.08C135.373 116.12 135.262 116.162 135.151 116.208C134.633 116.418 134.105 116.604 133.573 116.777L133.409 116.832L132.942 116.987C132.755 117.05 132.567 117.113 132.38 117.177C131.925 117.334 131.466 117.468 131 117.59C130.743 117.658 130.488 117.729 130.235 117.81C129.731 117.97 129.225 118.106 128.711 118.226C128.512 118.273 128.313 118.321 128.114 118.37C127.447 118.535 126.78 118.687 126.104 118.817C125.924 118.852 125.744 118.891 125.564 118.93C125.232 119 124.899 119.062 124.564 119.119C124.45 119.138 124.337 119.158 124.224 119.179C123.828 119.249 123.432 119.316 123.033 119.366C122.858 119.389 122.684 119.415 122.51 119.442L122.442 119.452C121.99 119.521 121.539 119.582 121.083 119.626C120.922 119.642 120.761 119.663 120.6 119.684C118.5 119.953 116.388 120.005 114.273 120C114.061 119.999 113.848 119.999 113.636 120C111.098 120.006 108.594 119.851 106.078 119.517L105.944 119.5C105.678 119.464 105.412 119.428 105.146 119.39L105.04 119.375C104.48 119.295 103.923 119.198 103.367 119.094L103.204 119.064L102.553 118.941C101.731 118.788 100.918 118.612 100.105 118.416L99.8082 118.345C98.9137 118.132 98.6992 118.081 98.4869 118.021C98.4199 118.003 98.3532 117.983 98.2653 117.958L98.0332 117.891L97.4048 117.711C97.2105 117.655 97.0161 117.6 96.8214 117.546C96.4449 117.44 96.0754 117.329 95.7086 117.193C95.5761 117.146 95.4437 117.108 95.308 117.071C94.6547 116.889 94.0128 116.655 93.3862 116.397C93.1821 116.316 92.9746 116.249 92.7655 116.182C92.4595 116.078 92.1613 115.952 91.8634 115.826L91.6835 115.75C91.3681 115.618 91.0523 115.49 90.7324 115.369C90.5741 115.307 90.4204 115.236 90.2662 115.164C90.1475 115.11 90.0277 115.06 89.907 115.011C89.6905 114.922 89.4783 114.825 89.2665 114.725C89.1119 114.652 88.9567 114.581 88.8003 114.512C88.4458 114.355 88.0973 114.194 87.7573 114.008C87.5664 113.904 87.3722 113.81 87.1747 113.719C86.8091 113.55 86.4538 113.364 86.0987 113.174C85.9719 113.106 85.8449 113.039 85.7178 112.972L85.7103 112.968L85.159 112.676C84.8133 112.49 84.4744 112.292 84.1355 112.094C84.0931 112.069 84.0507 112.044 84.0083 112.019L83.909 111.962C83.5766 111.768 83.2472 111.572 82.9241 111.363C82.8281 111.303 82.731 111.247 82.6315 111.193C82.4544 111.097 82.2851 110.99 82.1156 110.881C82.009 110.813 81.902 110.745 81.7946 110.678C81.3441 110.397 80.9034 110.104 80.4668 109.802C80.3636 109.731 80.2602 109.66 80.1566 109.59C79.8236 109.363 79.4919 109.135 79.1653 108.899C78.9967 108.777 78.8248 108.663 78.6486 108.552L78.5861 108.503L78.5861 108.419H78.459L78.459 108.334L78.3751 108.309C78.2086 108.231 78.0739 108.123 77.9327 108.009L77.8951 107.979L77.5882 107.737C77.3983 107.589 77.2042 107.447 77.0092 107.306C76.9403 107.255 76.8734 107.202 76.8069 107.148L76.8069 107.063L76.7379 107.033C76.4267 106.865 76.1438 106.616 75.8727 106.378L75.7114 106.237C75.6502 106.183 75.6196 106.157 75.587 106.133C75.5546 106.109 75.5201 106.088 75.4514 106.047L75.4514 105.962L75.3807 105.931C75.2168 105.842 75.0738 105.718 74.9321 105.595C74.8935 105.562 74.8547 105.528 74.816 105.496L74.7196 105.417C74.6512 105.361 74.585 105.301 74.5194 105.242L74.5194 105.157L74.4466 105.125C74.3348 105.064 74.2531 104.992 74.1594 104.905L74.048 104.803L73.9264 104.691L73.7214 104.502L73.5885 104.379C73.4925 104.29 73.4001 104.213 73.291 104.14L73.291 104.056L73.1639 104.013L73.1639 103.928L73.095 103.899C72.8735 103.777 72.725 103.617 72.5708 103.42L72.4437 103.335L72.4437 103.251L72.3683 103.217C72.2696 103.163 72.2047 103.107 72.1256 103.027L72.0399 102.942L71.9487 102.85L71.8537 102.755L71.0685 101.967C70.9244 101.822 70.7914 101.675 70.6646 101.514C70.6026 101.463 70.5406 101.412 70.478 101.361C70.3576 101.256 70.2489 101.136 70.1563 101.006L70.1563 100.921L70.0292 100.878L70.0292 100.794L69.9021 100.751C69.8737 100.723 69.8583 100.708 69.8435 100.692C69.8258 100.673 69.8091 100.653 69.7724 100.608C69.6481 100.462 69.521 100.319 69.3911 100.177C68.9985 99.7453 68.9386 99.6794 68.9294 99.6071C68.9278 99.5941 68.9278 99.5809 68.9278 99.5653L68.8007 99.5229C68.7211 99.4315 68.6914 99.3974 68.6803 99.358C68.6736 99.3345 68.6736 99.3092 68.6736 99.2688L68.5466 99.2264C68.3937 99.0593 68.3511 99.0128 68.3393 98.9595C68.3348 98.9389 68.3348 98.9174 68.3348 98.8875H68.25C68.1931 98.8031 68.1367 98.7183 68.0806 98.6333L67.9853 98.538C67.8184 98.3712 67.667 98.1901 67.5299 97.9979L67.5299 97.9132H67.4452C67.4093 97.8801 67.3922 97.8643 67.3757 97.8477C67.3606 97.8324 67.346 97.8166 67.3181 97.7861C67.0509 97.88 66.8039 98.0009 66.5556 98.1356C66.3048 98.2713 66.052 98.3953 65.7905 98.5089C65.5523 98.6124 65.3177 98.7197 65.0862 98.8372C64.7079 99.0292 64.325 99.2115 63.9419 99.3938L63.8871 99.4199L63.262 99.7188C62.9969 99.8458 62.7315 99.9721 62.4657 100.097C62.1615 100.241 61.8594 100.387 61.5591 100.539C61.2417 100.698 60.9203 100.849 60.5988 101.001L60.498 101.048C60.2252 101.176 60.0868 101.241 59.9508 101.306C59.8144 101.372 59.6787 101.439 59.4072 101.572C59.0753 101.739 58.7398 101.899 58.4042 102.059L58.2585 102.128C58.0616 102.222 57.865 102.317 57.6683 102.411L57.5857 102.451C57.0762 102.696 56.5656 102.938 56.0542 103.179C55.7068 103.343 55.3614 103.509 55.0185 103.682C54.847 103.768 54.6735 103.85 54.4999 103.931L54.4668 103.947C54.2163 104.065 53.9673 104.185 53.7202 104.31C53.3447 104.499 52.9644 104.678 52.5838 104.857L52.0587 105.105C51.8618 105.198 51.6667 105.294 51.4724 105.393C51.252 105.504 51.0288 105.606 50.8026 105.705C50.5279 105.825 50.2585 105.953 49.9911 106.089C49.7886 106.192 49.5841 106.289 49.3782 106.385C49.1452 106.494 48.9141 106.606 48.6846 106.722C48.4016 106.865 48.1159 107.001 47.829 107.136C47.6298 107.23 47.4326 107.326 47.2363 107.426C47.0169 107.537 46.7946 107.638 46.5692 107.736C46.3131 107.847 46.0653 107.968 45.8199 108.101C45.5452 108.25 45.2662 108.381 44.9796 108.506C44.6821 108.636 44.3927 108.779 44.1035 108.927C43.7225 109.121 43.3405 109.311 42.9514 109.488C42.743 109.584 42.5363 109.683 42.3295 109.783L42.1926 109.848C41.9257 109.976 41.6583 110.103 41.3905 110.23C41.1123 110.361 40.8368 110.497 40.5622 110.635C40.3853 110.723 40.2065 110.806 40.0274 110.888C39.7962 110.995 39.5688 111.109 39.3413 111.224C39.1699 111.31 38.9974 111.391 38.8214 111.467C38.6929 111.525 38.5673 111.589 38.4416 111.653L38.3849 111.681C38.061 111.844 37.7332 111.999 37.4054 112.154L37.2418 112.231L37.0341 112.33C36.7657 112.457 36.4973 112.584 36.2286 112.711C35.8814 112.874 35.5363 113.041 35.1936 113.214C35.0068 113.307 34.8177 113.396 34.6286 113.484L34.5381 113.527C34.3194 113.63 34.1029 113.737 33.8873 113.846C33.668 113.958 33.4465 114.06 33.2201 114.156C32.9812 114.258 32.7521 114.371 32.5238 114.495C32.2474 114.645 31.9667 114.777 31.6782 114.902C31.4383 115.007 31.2043 115.12 30.971 115.239C30.7391 115.356 30.5045 115.468 30.2685 115.577C30.1132 115.649 29.9598 115.724 29.8079 115.803L29.7148 115.851C29.6793 115.87 29.6439 115.888 29.6086 115.907C29.5855 115.919 29.5625 115.932 29.5395 115.944C29.435 115.998 29.3449 116.042 29.2263 116.05C29.1152 115.978 29.0663 115.869 29.0146 115.754L28.9946 115.71L28.951 115.619C28.904 115.521 28.858 115.422 28.812 115.324L28.5731 114.818C28.4707 114.601 28.3648 114.386 28.256 114.172C28.1267 113.917 28.0088 113.659 27.8984 113.396C27.8403 113.259 27.7773 113.129 27.702 113C27.6535 112.915 27.6359 112.884 27.6295 112.851C27.6259 112.832 27.6259 112.813 27.6259 112.782L28.2067 112.491L28.4066 112.391C28.6488 112.269 28.8926 112.151 29.1376 112.035L29.4921 111.867L30.2526 111.504C30.4729 111.399 30.6918 111.292 30.91 111.182C31.086 111.094 31.2634 111.01 31.441 110.926L31.5577 110.87C31.7678 110.771 31.9783 110.671 32.1891 110.573C32.4472 110.452 32.7036 110.329 32.958 110.201C33.3377 110.009 33.7223 109.828 34.1071 109.647L34.6249 109.403C34.8218 109.31 35.0169 109.214 35.2111 109.115C35.4316 109.004 35.6548 108.902 35.881 108.803C36.2422 108.644 36.594 108.471 36.9453 108.292C37.4214 108.05 37.9022 107.82 38.384 107.59L38.8875 107.35C39.195 107.202 39.5027 107.056 39.811 106.91C40.0697 106.788 40.3276 106.665 40.583 106.536C41.0403 106.306 41.5039 106.088 41.9677 105.871C42.2528 105.738 42.5366 105.603 42.8176 105.461C43.4307 105.152 44.0527 104.861 44.6745 104.569L44.9647 104.433C45.349 104.253 45.7316 104.069 46.1106 103.878C46.2806 103.793 46.4517 103.711 46.6248 103.632C46.8229 103.542 47.0182 103.447 47.2125 103.349C47.6193 103.144 48.0306 102.948 48.4419 102.752L51.0361 101.514C51.2619 101.406 51.488 101.298 51.7145 101.191C51.9732 101.069 52.231 100.946 52.4865 100.818C52.8982 100.61 53.3153 100.414 53.7325 100.217L53.893 100.142C54.188 100.002 54.4826 99.8631 54.774 99.7162C55.2312 99.4857 55.6948 99.2681 56.1586 99.0512C56.4837 98.8991 56.8062 98.7434 57.1267 98.5818C57.3134 98.488 57.5018 98.3996 57.6926 98.3143C58.1375 98.1118 58.5788 97.9003 59.0154 97.6802C59.4235 97.4745 59.837 97.2798 60.2505 97.0851L60.4166 97.0069C60.7614 96.8443 61.1042 96.6791 61.4445 96.5074C61.6337 96.4128 61.8251 96.3229 62.0165 96.233L62.1065 96.1907C62.307 96.0962 62.5058 95.999 62.7034 95.8984C62.9239 95.787 63.1471 95.685 63.3732 95.586C63.7062 95.4401 64.0314 95.282 64.3552 95.1169C64.4819 95.0525 64.6091 94.989 64.7363 94.9256L64.7764 94.9056L65.0306 94.7785L64.8608 94.5235C64.797 94.428 64.7328 94.3329 64.6682 94.2379L64.5541 94.069L64.4981 93.9871C64.4027 93.8455 64.324 93.7128 64.2681 93.55H64.1834C64.1384 93.4811 64.0967 93.41 64.0563 93.3382L63.9867 93.2282L63.871 93.047L63.8201 92.9675C63.7323 92.8311 63.6425 92.6978 63.5453 92.5678C63.5019 92.5047 63.4814 92.475 63.4718 92.4421C63.4633 92.413 63.4633 92.3813 63.4633 92.3216H63.3785L63.3133 92.2052L63.225 92.0489L63.1825 91.9728C63.0995 91.8265 63.0119 91.6853 62.9177 91.546C62.7754 91.3349 62.6464 91.117 62.5181 90.8972C62.4183 90.7267 62.3684 90.6414 62.318 90.5565C62.2945 90.517 62.2708 90.4775 62.242 90.4296C62.2089 90.3745 62.1689 90.3083 62.1143 90.2179L62.0603 90.1296L61.9612 89.9697C61.89 89.8534 61.8536 89.7921 61.8536 89.6528C61.5957 89.745 61.355 89.8585 61.1149 89.9891C60.9019 90.1048 60.6886 90.2126 60.4667 90.3107C60.2738 90.3976 60.0828 90.4885 59.8917 90.5795L59.7736 90.6357C59.5592 90.7381 59.3463 90.8425 59.1345 90.9501C58.9151 91.0611 58.6926 91.1617 58.4673 91.2599C58.196 91.3783 57.9342 91.5073 57.6746 91.6494C57.4602 91.7662 57.241 91.8693 57.0185 91.9698C56.9174 92.0159 56.8186 92.0641 56.7199 92.1151C56.6055 92.1734 56.4907 92.221 56.3705 92.266C56.1701 92.344 55.9846 92.4417 55.7959 92.544C55.5141 92.6965 55.2284 92.8315 54.9345 92.9591C54.6946 93.0638 54.4606 93.1773 54.2273 93.2959C54.0247 93.3986 53.8202 93.4965 53.6144 93.5924C53.3813 93.7011 53.1502 93.8127 52.9207 93.9286C52.6377 94.0715 52.352 94.2079 52.0651 94.3427C51.866 94.4365 51.6687 94.5331 51.4725 94.6329C51.252 94.7443 51.0288 94.8463 50.8026 94.9453C50.5279 95.0656 50.2586 95.1934 49.9912 95.3292C49.7886 95.4319 49.5841 95.5298 49.3783 95.6257C49.1452 95.7344 48.9141 95.8461 48.6846 95.962C48.4037 96.1038 48.12 96.2392 47.8352 96.373C47.6179 96.4753 47.4028 96.5813 47.1887 96.69C46.9693 96.8014 46.7479 96.9035 46.5215 96.9998C46.2826 97.1015 46.0534 97.2148 45.8252 97.3387C45.5488 97.4887 45.2681 97.6205 44.9797 97.7459C44.6273 97.8998 44.2857 98.0736 43.9434 98.2487C43.5237 98.463 43.0979 98.6629 42.67 98.8603C42.3471 99.0093 42.0262 99.1607 41.7093 99.3219C41.4841 99.4362 41.2559 99.5434 41.027 99.65C40.8215 99.7461 40.6185 99.8464 40.4162 99.9492C40.1951 100.061 39.972 100.165 39.7438 100.262C39.5048 100.363 39.2757 100.477 39.0475 100.6C38.771 100.75 38.4903 100.882 38.2018 101.008C37.9619 101.112 37.728 101.226 37.4947 101.344C37.2623 101.462 37.0271 101.573 36.791 101.683C36.5854 101.779 36.3825 101.88 36.1802 101.983C35.959 102.095 35.7359 102.198 35.5077 102.295C35.2687 102.397 35.0396 102.51 34.8114 102.634C34.5349 102.784 34.2542 102.916 33.9657 103.041C33.7259 103.146 33.4919 103.259 33.2586 103.378C33.056 103.48 32.8515 103.578 32.6457 103.674C32.4126 103.783 32.1815 103.895 31.952 104.011C31.669 104.153 31.3833 104.29 31.0965 104.425C30.8973 104.518 30.7 104.615 30.5038 104.715C30.2833 104.826 30.0601 104.928 29.8339 105.027C29.5008 105.173 29.1754 105.331 28.8513 105.497C27.9476 105.957 27.0298 106.389 26.1123 106.821L26.0203 106.864C25.7138 107.009 25.4079 107.154 25.1054 107.307C24.898 107.411 24.6888 107.509 24.4769 107.604C24.3638 107.656 24.2528 107.711 24.1417 107.767C23.7963 107.942 23.4469 108.108 23.0974 108.274L22.8814 108.376L22.6479 108.488C22.0666 108.765 22.0659 108.765 21.7791 108.9C21.4337 109.063 21.0894 109.229 20.7485 109.401C20.5616 109.495 20.3725 109.583 20.1833 109.672L20.093 109.715C19.8743 109.818 19.6578 109.924 19.4423 110.034C19.2229 110.145 19.0014 110.247 18.7751 110.343C18.5361 110.445 18.307 110.559 18.0788 110.682C17.8023 110.832 17.5216 110.964 17.2331 111.09C16.9933 111.194 16.7593 111.308 16.526 111.426C16.3234 111.529 16.1189 111.627 15.9131 111.723C15.5162 111.908 15.1247 112.104 14.7347 112.303C14.5482 112.398 14.3643 112.489 14.1683 112.562C13.9659 112.64 13.7789 112.74 13.5885 112.843C13.345 112.974 13.1024 113.09 12.845 113.193C12.6322 113.283 12.4266 113.388 12.2209 113.493L12.1243 113.542C11.7285 113.744 11.331 113.941 10.9286 114.129C10.6744 114.248 10.421 114.368 10.1679 114.49L9.05063 115.024C8.85236 115.119 8.65399 115.214 8.45538 115.308C8.12458 115.465 7.7942 115.622 7.46734 115.787C7.09008 115.977 6.70861 116.159 6.32705 116.34L5.91702 116.535C5.62677 116.674 5.33652 116.812 5.04565 116.949C4.70406 117.11 4.36433 117.274 4.02716 117.444C3.81208 117.552 3.59478 117.655 3.3775 117.758L3.25265 117.817C2.97255 117.95 2.69431 118.087 2.41937 118.231C2.27947 118.302 2.15355 118.352 1.99748 118.374C1.87003 118.194 1.7768 118.014 1.69301 117.81C1.57304 117.526 1.43755 117.254 1.28939 116.984C1.18149 116.786 1.08674 116.584 0.994595 116.379C0.937178 116.253 0.877025 116.128 0.815845 116.004L0.754206 115.879L0.627786 115.623L0.566976 115.499L0.511905 115.387C0.469758 115.274 0.464816 115.189 0.472492 115.069C0.835581 114.883 1.20092 114.705 1.57388 114.54C1.85989 114.413 2.14158 114.28 2.42058 114.138C2.63958 114.027 2.86079 113.922 3.08299 113.817C3.36749 113.683 3.64919 113.545 3.92988 113.404C4.08071 113.329 4.23278 113.257 4.38559 113.187C4.60113 113.087 4.81437 112.984 5.0263 112.877C5.42895 112.674 5.83615 112.481 6.24342 112.287L6.91514 111.967L8.84455 111.045C9.07039 110.937 9.29652 110.829 9.52295 110.723C9.78166 110.601 10.0395 110.478 10.2949 110.349C10.7068 110.141 11.1241 109.945 11.5414 109.748L11.7015 109.673C11.9947 109.535 12.2876 109.396 12.5771 109.25C12.9085 109.083 13.2436 108.924 13.5786 108.764L13.7259 108.694C13.9503 108.587 14.1745 108.479 14.3987 108.371C14.9082 108.126 15.4187 107.884 15.9301 107.643C16.2277 107.503 16.5248 107.362 16.8185 107.214C17.2758 106.984 17.7394 106.766 18.2032 106.549C18.52 106.401 18.8346 106.25 19.1468 106.092C19.4022 105.963 19.6605 105.841 19.9192 105.72C20.1184 105.626 20.3157 105.529 20.5119 105.43C20.7323 105.318 20.9556 105.216 21.1817 105.117C21.4565 104.997 21.7258 104.869 21.9932 104.733C22.1958 104.631 22.4002 104.533 22.6061 104.437C22.8391 104.328 23.0702 104.216 23.2998 104.101C23.5827 103.958 23.8684 103.821 24.1553 103.686C24.3545 103.593 24.5518 103.496 24.748 103.396C24.9684 103.285 25.1917 103.183 25.4178 103.084C25.779 102.926 26.1309 102.752 26.4821 102.573C26.8263 102.399 27.1721 102.23 27.5217 102.067C27.7287 101.97 27.9331 101.869 28.1369 101.765C28.358 101.653 28.5811 101.55 28.8094 101.453C29.0839 101.336 29.3469 101.203 29.6085 101.06C29.8072 100.952 30.0096 100.856 30.2161 100.764C30.3989 100.681 30.5796 100.594 30.7604 100.507L30.8083 100.484C31.1015 100.343 31.3952 100.203 31.6899 100.066C31.9448 99.9464 32.1969 99.8223 32.4481 99.6954C32.7036 99.5669 32.9618 99.4449 33.2206 99.3233C33.4197 99.2295 33.617 99.1329 33.8132 99.0331C34.0337 98.9217 34.2569 98.8197 34.4831 98.7207C34.7576 98.6005 35.0268 98.4728 35.294 98.3371C35.502 98.2316 35.712 98.131 35.9234 98.0323C36.108 97.9461 36.2923 97.8597 36.474 97.7676C36.6702 97.6682 36.869 97.5745 37.068 97.4808L37.083 97.4737C37.3191 97.3624 37.5542 97.2498 37.7872 97.1322C38.1094 96.9698 38.4353 96.8153 38.7612 96.6608L38.8586 96.6147C39.0689 96.5148 39.2788 96.4143 39.4887 96.3137L39.5885 96.2659C39.7883 96.1703 39.9882 96.0749 40.1884 95.98C40.5503 95.8084 40.9109 95.6351 41.2685 95.4547C41.5596 95.3084 41.8543 95.1697 42.149 95.031L42.2185 94.9983C42.3904 94.9171 42.5621 94.8353 42.7337 94.7534L42.7699 94.7361C42.9895 94.6315 43.209 94.5269 43.429 94.4232C43.7226 94.2848 44.0157 94.1462 44.3055 94.0001C44.5555 93.8741 44.8074 93.7526 45.0601 93.6321C45.4223 93.4594 45.7841 93.2861 46.1455 93.1118L46.3759 93.0008C46.6757 92.8562 46.9737 92.7087 47.2705 92.5582C47.4136 92.4885 47.5585 92.4259 47.705 92.3639C47.8319 92.3062 47.9577 92.2463 48.0836 92.1865L48.19 92.1361C48.4446 92.0149 48.6971 91.8899 48.9488 91.7628C49.1627 91.6552 49.3794 91.5548 49.5973 91.4555C49.7553 91.3817 49.911 91.304 50.0666 91.2255C50.3887 91.0631 50.7142 90.909 51.041 90.7564L51.5466 90.5186L51.6497 90.4699C51.8481 90.3758 52.0446 90.2791 52.2403 90.1797C52.4607 90.0683 52.684 89.9663 52.9101 89.8673C53.2433 89.7212 53.5687 89.563 53.8927 89.3979C54.7965 88.9375 55.7144 88.5053 56.632 88.0733L56.7238 88.03C57.0195 87.8906 57.3149 87.7508 57.6069 87.6036C57.9011 87.4553 58.1982 87.313 58.4957 87.1714C58.725 87.0623 58.9538 86.9524 59.182 86.8411L59.3281 86.7702L59.6091 86.6328L59.7375 86.5706L59.8511 86.515C59.8946 86.4973 59.9184 86.4876 59.9432 86.4822C59.9732 86.4758 60.0047 86.4757 60.0744 86.4757C59.9915 86.2553 59.902 86.0417 59.7938 85.8324C59.6641 85.5786 59.5515 85.3185 59.439 85.0567C59.3581 84.8679 59.3176 84.7736 59.2749 84.6802C59.2322 84.5869 59.1873 84.4946 59.0975 84.3101C58.841 83.8124 58.6318 83.2868 58.4353 82.763C58.366 82.5849 58.2911 82.4093 58.2162 82.2335L58.2132 82.2264C58.0782 81.9095 57.9533 81.59 57.8348 81.2665C57.8106 81.1978 57.8 81.1676 57.787 81.1384C57.7769 81.1155 57.7653 81.0933 57.7446 81.0536C57.3867 81.2033 57.0374 81.361 56.6961 81.546C56.458 81.675 56.2205 81.7878 55.9686 81.8882C55.7389 81.9851 55.5169 82.0991 55.2951 82.2131L55.1606 82.282C54.707 82.5133 54.5722 82.582 54.4335 82.6417C54.3749 82.6669 54.3156 82.6906 54.2313 82.7242C54.0226 82.8081 53.8276 82.9084 53.6303 83.0154C53.3502 83.1671 53.066 83.3011 52.7739 83.428C52.5362 83.5317 52.3042 83.6441 52.073 83.7616C51.8526 83.8733 51.63 83.9799 51.4063 84.085C51.118 84.2206 50.8326 84.3606 50.5482 84.5041C50.4292 84.563 50.3096 84.6187 50.1884 84.6728C50.0023 84.7561 49.8198 84.8456 49.6377 84.9375C49.2595 85.1283 48.8771 85.31 48.4941 85.4911L47.5776 85.9252L47.3915 86.0123C47.0724 86.1614 46.7556 86.3139 46.4411 86.4727C46.1857 86.6012 45.9274 86.7232 45.6687 86.8448C45.4695 86.9387 45.2722 87.0352 45.076 87.135C44.8565 87.246 44.6342 87.3467 44.4088 87.4448C44.1528 87.5563 43.9049 87.6768 43.6595 87.8101C43.3849 87.9593 43.1058 88.0902 42.8192 88.2147C42.5793 88.3194 42.3453 88.4329 42.112 88.5515C41.9094 88.6541 41.705 88.7521 41.4991 88.848C41.1022 89.0332 40.7108 89.2288 40.3208 89.4281C40.1343 89.5229 39.9504 89.6138 39.7544 89.6872C39.5519 89.7648 39.3649 89.865 39.1746 89.9679C38.9311 90.0995 38.6885 90.2155 38.4311 90.318C38.1839 90.4223 37.9448 90.5457 37.7062 90.6688L37.5458 90.7514C37.1265 90.9654 36.7011 91.1652 36.2735 91.3624C35.9507 91.5114 35.6298 91.6628 35.3128 91.824C35.0877 91.9382 34.8597 92.0453 34.631 92.1519C34.4211 92.2501 34.2134 92.3522 34.0065 92.4566C33.7911 92.5652 33.5746 92.6692 33.3542 92.7677C32.754 93.0409 32.1584 93.3277 31.5744 93.6341L31.4934 93.676L31.2714 93.7921C31.1443 93.8455 31.0658 93.8589 30.9301 93.8466C30.7337 93.4854 30.5441 93.1289 30.3925 92.7463C30.3257 92.5919 30.2479 92.4455 30.1676 92.2977C30.052 92.0853 29.9442 91.8726 29.8469 91.6511C29.7958 91.5376 29.7428 91.4255 29.6887 91.3135L29.6358 91.2037L29.5299 90.9855L29.481 90.8839L29.4367 90.7928C29.4238 90.7597 29.4161 90.7401 29.4116 90.7199C29.4051 90.6906 29.4051 90.6599 29.4051 90.5848L29.5477 90.5181C29.7428 90.4272 29.8437 90.3801 29.9412 90.3334C30.0388 90.2867 30.1359 90.2389 30.3291 90.1439C30.5256 90.0443 30.7272 89.9493 30.9264 89.8555L30.9407 89.8487C31.1786 89.7366 31.4154 89.6231 31.6502 89.5046C31.9159 89.3705 32.1845 89.2431 32.4538 89.1165C32.6544 89.0219 32.8531 88.9247 33.0508 88.8241C33.2712 88.7128 33.4945 88.6108 33.7206 88.5117C33.9932 88.3923 34.2606 88.2657 34.5259 88.1309C34.7464 88.0192 34.969 87.9126 35.1927 87.8075C35.4749 87.6747 35.7544 87.5378 36.0329 87.3973C36.2354 87.2969 36.4428 87.2 36.6475 87.1043C36.8026 87.0317 36.9568 86.9582 37.1095 86.8808C37.3063 86.7811 37.5056 86.6872 37.7052 86.5932L37.7184 86.5869C37.9545 86.4756 38.1897 86.363 38.4227 86.2454C38.8799 86.0149 39.3436 85.7973 39.8074 85.5804C40.1324 85.4283 40.455 85.2726 40.7754 85.1111C40.9622 85.0172 41.1507 84.9287 41.3416 84.8434C41.8027 84.6336 42.2595 84.4137 42.7117 84.1856C43.0827 83.9985 43.4584 83.8218 43.8344 83.645L43.8502 83.6376C44.2668 83.4415 44.6821 83.244 45.0932 83.0366C45.2825 82.9419 45.4741 82.8519 45.6657 82.762L45.7552 82.72C45.9558 82.6254 46.1545 82.5282 46.3521 82.4276C46.5726 82.3163 46.7958 82.2143 47.022 82.1152C47.2947 81.9958 47.5621 81.8691 47.8275 81.7343C48.0461 81.6235 48.2669 81.5179 48.4887 81.4136C48.7673 81.2826 49.0435 81.1478 49.3182 81.009C49.5501 80.8924 49.7845 80.782 50.0198 80.6724C50.2253 80.5763 50.4283 80.4759 50.6306 80.3731C50.8517 80.2609 51.0749 80.1577 51.3031 80.0607C51.542 79.959 51.7712 79.8457 51.9994 79.7218C52.2759 79.5718 52.5566 79.4399 52.845 79.3146C53.0849 79.2099 53.3189 79.0964 53.5522 78.9779C53.7548 78.8752 53.9592 78.7772 54.1651 78.6813C54.562 78.4961 54.9534 78.3005 55.3434 78.1012C55.571 77.9855 55.7979 77.8809 56.0363 77.7894C56.1357 77.7491 56.2301 77.7032 56.3255 77.6541C56.4225 77.6056 56.4561 77.5888 56.4914 77.583C56.51 77.58 56.5292 77.58 56.5585 77.58C56.4878 77.2751 56.4038 76.9763 56.3123 76.6771C56.179 76.2402 56.0639 75.7993 55.9507 75.3568C55.9154 75.2203 55.8782 75.0843 55.841 74.9483C55.6098 74.0818 55.4138 73.2069 55.2302 72.3293C55.2064 72.2166 55.1819 72.1041 55.1569 71.9916C55.0436 71.4777 54.9584 70.9597 54.8737 70.4403C54.8352 70.2044 54.7948 69.969 54.753 69.7336C54.6661 69.2439 54.5912 68.7535 54.5252 68.2606L54.5047 68.1082C54.4211 67.4849 54.3421 66.8618 54.2877 66.2352C54.2784 66.1292 54.2662 66.0261 54.2503 65.9208C54.2213 65.7072 54.2065 65.4927 54.1917 65.2778L54.1863 65.2L54.1651 64.9028L54.1559 64.7707C54.1464 64.6488 54.1352 64.5274 54.1234 64.4057C54.0966 64.1133 54.083 63.8204 54.0697 63.5271L54.0655 63.4374C53.9706 61.3828 53.9487 59.342 54.0328 57.2864L54.0368 57.1863C54.0655 56.4833 54.0979 55.7827 54.1775 55.0832C54.1954 54.9181 54.2074 54.7525 54.2193 54.5869L54.2261 54.4933C54.2994 53.5472 54.413 52.6074 54.5476 51.6682L54.6022 51.2798C54.6676 50.8104 54.7408 50.3429 54.8218 49.8759L54.8495 49.7153C55.0042 48.8182 55.0549 48.5245 55.1148 48.2326C55.144 48.0904 55.1753 47.9488 55.2219 47.7381C55.2497 47.6109 55.2765 47.4835 55.3033 47.3561C55.4769 46.5322 55.6574 45.7097 55.8884 44.8997C55.9538 44.6693 56.0121 44.4376 56.0688 44.2048C56.1654 43.8115 56.2788 43.4245 56.3982 43.0375C56.4312 42.9298 56.4635 42.8219 56.4957 42.7139C56.8235 41.6178 57.1713 40.5257 57.5753 39.4551L57.636 39.2916L58.1203 38.0033C58.2539 37.6497 58.399 37.3025 58.5496 36.9558L58.809 36.3469L58.8747 36.1922C58.985 35.9339 59.1001 35.6811 59.2274 35.4308C59.2523 35.3704 59.2763 35.3095 59.2988 35.2482C59.4061 34.9746 59.5337 34.7101 59.6613 34.4456L59.7228 34.3179L59.8945 33.956C60.0763 33.572 60.2591 33.1899 60.4623 32.8168C60.5637 32.6304 60.6587 32.4415 60.7524 32.2511C60.8834 31.9854 61.0263 31.7298 61.1755 31.4737C61.27 31.3083 61.3541 31.1381 61.4381 30.9671C61.551 30.7374 61.6711 30.519 61.8114 30.3052C61.9684 30.0509 62.1161 29.7927 62.258 29.5298C62.3477 29.3638 62.4396 29.1991 62.5315 29.0343H62.6162L62.6454 28.9258C62.7005 28.7815 62.7642 28.6862 62.8555 28.5644C62.9301 28.4592 62.9907 28.3478 63.0521 28.2349L63.0683 28.205C63.1306 28.0914 63.1944 27.9788 63.2596 27.8668L63.3223 27.7581L63.3788 27.6788H63.4635L63.479 27.6032C63.5064 27.5073 63.5407 27.4448 63.5967 27.3627L63.6519 27.281L63.7097 27.1969L63.766 27.1139L63.8766 26.9514C63.9605 26.8302 64.0024 26.7696 64.0408 26.707C64.0791 26.6444 64.114 26.5797 64.1836 26.4503H64.2683L64.3028 26.3577C64.353 26.2386 64.4071 26.1333 64.4801 26.0267H64.5649L64.5755 25.9579C64.6189 25.8203 64.6905 25.718 64.7767 25.6031H64.8614L64.8702 25.5358C64.9142 25.4018 64.994 25.2974 65.0779 25.1877L65.1023 25.1557L65.2292 24.9856L65.2979 24.8941C65.4143 24.7387 65.5296 24.5823 65.6448 24.426L65.6768 24.3826L65.7535 24.2789C65.9098 24.0672 66.0619 23.8537 66.207 23.6341L66.2593 23.5698H66.344L66.344 23.4427C66.3923 23.3928 66.4409 23.3433 66.4915 23.2957C66.5985 23.188 66.6892 23.0663 66.7799 22.9447L66.8312 22.8761L66.9025 22.7825C67.0118 22.6384 67.1193 22.4936 67.2235 22.3458C67.3169 22.2163 67.4174 22.1151 67.5301 22.0024C67.6712 21.8329 67.811 21.6617 67.9375 21.481L67.9961 21.4094H68.0808L68.1086 21.342C68.1825 21.2095 68.2778 21.1003 68.3767 20.987L68.3985 20.9619C68.4822 20.8653 68.524 20.817 68.5637 20.767C68.6034 20.717 68.641 20.6654 68.7163 20.5622H68.801L68.8357 20.4865C68.8853 20.3934 68.9372 20.3256 69.0075 20.2471L69.0858 20.1594L69.3118 19.9138L69.3806 19.8396L69.5174 19.6929C69.6126 19.5907 69.6976 19.4926 69.7753 19.3761H69.86L69.9447 19.2066H70.0294L70.0612 19.1351C70.1605 18.9515 70.2982 18.7952 70.4531 18.6559H70.5378L70.5687 18.5833C70.6336 18.4666 70.7114 18.3868 70.8058 18.2922L70.9206 18.1766L71.0448 18.0529L71.172 17.9254L71.4387 17.6593L72.1693 16.9281L72.4468 16.6515C72.4922 16.612 72.5125 16.5943 72.536 16.5865C72.5548 16.5802 72.5758 16.5802 72.6135 16.5802L72.6135 16.4955C72.6831 16.4378 72.7539 16.3816 72.8253 16.3261C72.9291 16.2248 73.0301 16.1217 73.1297 16.0163C73.1717 15.9772 73.1908 15.9595 73.2133 15.9515C73.2319 15.9448 73.2529 15.9448 73.2912 15.9448L73.3336 15.8177H73.4183L73.4607 15.6906C73.5326 15.6263 73.6071 15.5648 73.6831 15.5053C73.8106 15.4051 73.9289 15.3072 74.0425 15.1913C74.1 15.1351 74.1231 15.1126 74.1505 15.1036C74.1689 15.0976 74.1892 15.0976 74.2232 15.0976L74.2232 15.0129C74.3526 14.8971 74.3936 14.8604 74.4407 14.8488C74.4626 14.8434 74.4858 14.8434 74.5197 14.8434L74.5621 14.7163H74.6468L74.6468 14.6316C74.6861 14.5956 74.7082 14.5753 74.7306 14.5561C74.7583 14.5324 74.7869 14.5098 74.8507 14.4595L74.9653 14.368C75.0169 14.3311 75.0432 14.3122 75.0716 14.2976C75.1011 14.2825 75.1329 14.2719 75.1975 14.2504L75.1975 14.1657C75.2897 14.0858 75.3239 14.0561 75.3634 14.0451C75.3866 14.0386 75.4117 14.0386 75.4517 14.0386L75.494 13.9115C75.5391 13.8753 75.5636 13.8557 75.5887 13.8369C75.6185 13.8146 75.6492 13.7935 75.7164 13.7473C75.8863 13.6303 76.0266 13.5069 76.1718 13.3608C76.264 13.2828 76.3592 13.2091 76.4551 13.1358L76.5296 13.0774C76.6556 12.9806 76.6946 12.9506 76.738 12.9413C76.7574 12.9372 76.7778 12.9372 76.8072 12.9372L76.8496 12.8101C76.9442 12.732 77.0388 12.6594 77.1382 12.5877L77.322 12.4527L77.4218 12.3797C77.5346 12.2965 77.6463 12.2119 77.7579 12.127L77.8738 12.039L78.1002 11.8665L78.2048 11.7875L78.2979 11.7166C78.3376 11.6906 78.3568 11.678 78.3778 11.672C78.3973 11.6664 78.4185 11.6664 78.4593 11.6664L78.4593 11.5816H78.5864L78.5864 11.4969C78.6582 11.4408 78.733 11.3887 78.8088 11.3381L78.9618 11.2345L79.047 11.177C79.1708 11.0927 79.2933 11.0064 79.4159 10.9202L79.4316 10.9092C80.157 10.3985 80.888 9.89784 81.6384 9.42454C81.763 9.34585 81.8252 9.30651 81.8866 9.26571C81.9479 9.22493 82.0082 9.18269 82.1288 9.09823C82.2637 8.99984 82.406 8.92071 82.5526 8.84109C82.8224 8.69265 83.0838 8.52912 83.345 8.36581L83.4845 8.27865C83.6242 8.19463 83.7658 8.11532 83.9085 8.03663C84.0799 7.94126 84.2493 7.84219 84.4186 7.74313L84.505 7.69263C84.9157 7.45374 85.3343 7.23069 85.756 7.01196C86.0348 6.867 86.3132 6.72135 86.59 6.57246C87.3929 6.14217 88.2173 5.74742 89.0516 5.38193C89.2489 5.29523 89.4416 5.20211 89.6335 5.10373C89.7628 5.04079 89.8958 4.98914 90.0297 4.93712L90.0434 4.9318C90.1525 4.888 90.2587 4.84011 90.3654 4.79066C90.9173 4.53694 91.4853 4.31795 92.0545 4.10643L92.3169 4.00879C92.4853 3.94569 92.6516 3.87912 92.817 3.80841C93.1027 3.68778 93.3946 3.58645 93.6876 3.48518L94.4137 3.23194C94.6583 3.14684 94.9036 3.06395 95.1494 2.98237C95.2737 2.94097 95.3978 2.89897 95.5218 2.85678C95.9638 2.70703 96.4054 2.56483 96.856 2.44376C97.1057 2.37653 97.3537 2.30336 97.6017 2.23019L97.7088 2.1986C98.2696 2.03393 98.8346 1.88953 99.402 1.74938L99.7186 1.6709C100.495 1.4781 101.271 1.29999 102.056 1.14362L102.38 1.07762C102.611 1.02998 102.843 0.98717 103.077 0.952028C103.304 0.91748 103.53 0.876663 103.756 0.832526C104.344 0.717916 104.933 0.635553 105.528 0.563334C105.757 0.535161 105.984 0.49964 106.212 0.460482C106.41 0.428004 106.61 0.40491 106.809 0.382473L106.951 0.366587L107.617 0.293407C109.652 0.0692122 111.68 -0.00438018 113.727 0.000770667ZM117.049 30.6735C117.174 30.6935 117.299 30.7076 117.425 30.7217L117.471 30.7269C117.849 30.7725 118.221 30.8463 118.594 30.9204C118.703 30.9416 118.813 30.9609 118.923 30.9801C119.213 31.0326 119.5 31.1001 119.787 31.1677L119.878 31.1891C120.279 31.2833 120.678 31.3804 121.074 31.4921L121.269 31.5454C122.27 31.8214 123.246 32.1643 124.209 32.5511L124.342 32.6043C125.535 33.0867 126.684 33.6648 127.81 34.2879C127.81 34.477 127.771 34.5168 127.649 34.6409L127.637 34.6535L127.559 34.7305L127.477 34.8133C127.386 34.9052 127.294 34.9965 127.203 35.0878L127.007 35.2846C126.83 35.4631 126.652 35.6411 126.474 35.8189L126.029 36.2643C125.66 36.6346 125.29 37.0044 124.92 37.3739C124.598 37.6951 124.277 38.017 123.957 38.3392C123.628 38.6698 123.298 39 122.968 39.3296C122.783 39.5148 122.598 39.7002 122.413 39.886C122.239 40.0607 122.065 40.2347 121.891 40.4083L121.699 40.6007C121.612 40.6883 121.525 40.7751 121.437 40.8618L121.36 40.9403C121.289 41.0098 121.289 41.0099 121.159 41.108C121.095 41.106 121.066 41.105 121.038 41.0986C121.014 41.0931 120.991 41.0835 120.947 41.0657L120.866 41.0339L120.786 40.996C119.75 40.5221 118.648 40.1862 117.545 39.9091C117.471 39.89 117.398 39.8697 117.325 39.8481C116.989 39.7497 116.65 39.6946 116.305 39.6413L116.006 39.5936C115.789 39.5592 115.573 39.5283 115.356 39.4983L115.23 39.4806C114.431 39.3703 113.643 39.3527 112.838 39.3576C112.712 39.3581 112.587 39.3579 112.462 39.3577L112.456 39.3577C111.509 39.3565 110.571 39.3839 109.637 39.5592L109.479 39.5877L109.175 39.6434C109.068 39.6633 108.96 39.6824 108.853 39.7008C107.644 39.9132 106.452 40.254 105.321 40.7315C105.201 40.7817 105.08 40.8291 104.959 40.8765L104.908 40.8962C104.212 41.1764 103.556 41.5027 102.901 41.8705L102.784 41.9362C102.3 42.2054 101.83 42.4853 101.376 42.8025L101.304 42.853C100.565 43.367 99.8603 43.9216 99.1954 44.528C99.1367 44.5809 99.0777 44.6335 99.0177 44.6849C98.782 44.8868 98.5615 45.1026 98.3426 45.3224L98.1589 45.5059C97.9375 45.7271 97.7245 45.9529 97.5216 46.1913L97.3993 46.3303C97.1047 46.6677 96.8314 47.0171 96.5667 47.3783C96.5068 47.4595 96.4464 47.5403 96.3858 47.621C96.096 48.0083 95.8313 48.4089 95.573 48.8177L95.4585 48.9976L95.348 49.1725L95.2986 49.2502C94.7277 50.1619 94.269 51.1636 93.8785 52.1642L93.8368 52.2711C93.3953 53.4118 93.0184 54.6179 92.8362 55.8298C92.8162 55.9551 92.7935 56.0798 92.7707 56.2045L92.7682 56.2183C92.3533 58.5247 92.4314 60.916 92.8195 63.2204L92.8437 63.3659C92.8651 63.4931 92.8871 63.6202 92.9095 63.7473L92.9283 63.8549C92.9663 64.0621 93.0185 64.2607 93.081 64.4618C93.1193 64.5867 93.1544 64.7122 93.1891 64.8381C93.3794 65.523 93.594 66.1951 93.8361 66.8635L93.8687 66.9542C94.0772 67.5321 94.3547 68.0821 94.6332 68.6288L94.7391 68.8379C95.2979 69.944 95.9631 70.9647 96.7167 71.9468L96.7762 72.0245C97.4891 72.9521 98.2798 73.8736 99.1757 74.6296C99.2969 74.7332 99.4136 74.8419 99.5303 74.9506C99.5526 74.9713 99.5748 74.992 99.597 75.0126C99.7297 75.1286 99.8666 75.2364 100.006 75.3438C100.101 75.4165 100.194 75.4901 100.287 75.5642C100.653 75.8529 101.021 76.1283 101.414 76.3793C101.512 76.4423 101.609 76.5063 101.706 76.5703L101.714 76.5755C102.628 77.1711 103.595 77.6965 104.596 78.1315L104.682 78.1692C105.124 78.3611 105.569 78.538 106.025 78.6921L106.15 78.7351L106.328 78.7971C106.847 78.9774 107.371 79.119 107.906 79.246C108.033 79.2766 108.16 79.3087 108.287 79.3409C110.876 79.9892 113.667 79.9855 116.287 79.5294L116.481 79.4978C116.807 79.4426 117.123 79.3626 117.441 79.271C117.622 79.219 117.802 79.1725 117.986 79.1325C118.974 78.9168 119.933 78.5274 120.862 78.1315L120.962 78.0893C121.541 77.8412 122.092 77.5508 122.642 77.2419L122.804 77.152C124.007 76.4781 125.152 75.66 126.166 74.7237C126.228 74.667 126.291 74.6105 126.355 74.5559C126.617 74.3319 126.86 74.089 127.103 73.8447L127.324 73.6244C127.565 73.383 127.801 73.1402 128.021 72.8787L128.133 72.7505C128.903 71.8517 129.571 70.8834 130.182 69.8711L130.248 69.7621C130.375 69.5544 130.492 69.3459 130.597 69.1271C130.703 68.912 130.812 68.6996 130.926 68.489C131.068 68.2274 131.194 67.9731 131.288 67.69C131.327 67.5792 131.374 67.4754 131.424 67.3691C131.577 67.0377 131.707 66.6974 131.834 66.3551L131.866 66.2694C132.034 65.8094 132.161 65.3375 132.287 64.8645L132.311 64.7723C132.412 64.3966 132.499 64.0213 132.571 63.6392C132.585 63.5699 132.592 63.5398 132.602 63.5113C132.61 63.4896 132.62 63.4689 132.639 63.4322C132.653 63.3415 132.665 63.2506 132.676 63.1595C132.703 62.9465 132.733 62.7351 132.769 62.5235C132.848 62.0547 132.888 61.587 132.919 61.113L132.935 60.8891L133.02 59.6197C132.195 60.0075 131.38 60.4156 130.565 60.8239L123.879 64.1695C123.674 64.2723 123.467 64.3708 123.258 64.4674C122.966 64.6043 122.68 64.7496 122.396 64.9019C121.92 65.1567 121.436 65.3908 120.947 65.6198C120.711 65.7314 120.48 65.8509 120.251 65.976C120.026 66.0977 119.796 66.2055 119.563 66.3128C119.364 66.4054 119.17 66.5043 118.977 66.6093C118.725 66.7466 118.468 66.8701 118.208 66.9905C118.009 67.0832 117.815 67.1821 117.622 67.2871C117.399 67.4082 117.174 67.5197 116.944 67.6259C116.716 67.7314 116.492 67.8419 116.272 67.9622C116.034 68.0914 115.793 68.2102 115.549 68.3249C115.098 68.5364 114.651 68.7545 114.212 68.9901C113.86 69.1792 113.502 69.3551 113.141 69.5255C112.914 69.6325 112.689 69.7421 112.465 69.8544L112.376 69.8989C112.059 70.0576 111.743 70.217 111.426 70.3765C110.641 70.7723 109.855 71.1672 109.069 71.5618C108.615 71.7895 108.162 72.0174 107.708 72.2459C107.311 72.4462 106.914 72.6459 106.516 72.8451C106.306 72.9503 106.097 73.0558 105.887 73.1618C105.69 73.2612 105.494 73.36 105.296 73.4584L105.08 73.5676C104.982 73.6176 104.883 73.6667 104.784 73.7156L104.698 73.7603C104.519 73.8475 104.406 73.8652 104.215 73.8106C104.167 73.7908 104.144 73.7809 104.121 73.7698C104.098 73.7588 104.076 73.7466 104.033 73.7224L103.932 73.6671L103.825 73.6068L103.713 73.5439C102.514 72.866 101.403 72.0533 100.391 71.1201C100.33 71.0649 100.269 71.01 100.207 70.9571C99.9427 70.7324 99.6988 70.4876 99.4543 70.2422L99.4201 70.2078L99.1811 69.9691C98.9296 69.7177 98.6822 69.4659 98.4535 69.1933L98.3327 69.0543C97.2001 67.7427 97.0719 67.5943 97.0574 67.4355C97.0556 67.4152 97.0556 67.3948 97.0556 67.3718L109.053 61.3724C109.252 61.2727 109.453 61.1775 109.655 61.0838C109.947 60.947 110.234 60.8017 110.518 60.6493C110.994 60.3946 111.478 60.1604 111.967 59.9314C112.203 59.8198 112.434 59.7003 112.663 59.5752C112.888 59.4536 113.118 59.3457 113.35 59.2385C113.549 59.1458 113.744 59.047 113.936 58.942C114.189 58.8046 114.445 58.6811 114.706 58.5607C114.905 58.4681 115.099 58.3692 115.292 58.2642C115.513 58.144 115.736 58.0333 115.964 57.9279C116.211 57.8143 116.451 57.6938 116.69 57.5652C116.958 57.4208 117.23 57.2883 117.506 57.1606C117.731 57.0563 117.948 56.9423 118.166 56.8239C118.392 56.7016 118.624 56.5929 118.857 56.485C119.056 56.3924 119.251 56.2935 119.443 56.1885C119.695 56.0512 119.952 55.9277 120.213 55.8073C120.412 55.7146 120.606 55.6157 120.799 55.5107C121.051 55.3734 121.308 55.2499 121.568 55.1295C121.767 55.0368 121.962 54.938 122.154 54.833C122.377 54.7118 122.602 54.6003 122.832 54.4941C123.057 54.3902 123.277 54.2818 123.494 54.1631C123.763 54.0163 124.038 53.8837 124.315 53.7527C124.587 53.6242 124.856 53.4941 125.12 53.3503C125.421 53.1866 125.728 53.0392 126.038 52.8931C126.261 52.7879 126.482 52.6803 126.703 52.5697L137.979 46.9309C138.222 46.8092 138.467 46.6937 138.714 46.5794C138.866 46.508 139.015 46.4348 139.16 46.3495C139.241 46.3032 139.272 46.2861 139.304 46.2798C139.323 46.276 139.343 46.276 139.374 46.276L139.74 47.0013C139.958 47.4315 140.159 47.8659 140.348 48.3094L140.401 48.4298C140.553 48.7827 140.704 49.1338 140.815 49.5024C140.849 49.6007 140.887 49.6899 140.931 49.7839C141.053 50.0544 141.146 50.3358 141.24 50.6171L141.267 50.7001L141.301 50.8007C141.64 51.8232 141.912 52.8592 142.107 53.919C142.148 54.135 142.191 54.3504 142.236 54.5656C142.389 55.2965 142.496 56.0286 142.574 56.7707C142.587 56.8863 142.6 57.0016 142.613 57.117C142.73 58.1164 142.732 59.1153 142.731 60.1201L142.731 60.2248C142.731 60.4261 142.731 60.6274 142.73 60.8287L142.729 61.0154C142.728 61.3156 142.723 61.6099 142.678 61.9072C142.674 61.9656 142.671 62.024 142.669 62.0825L142.662 62.2752C142.63 63.0093 142.574 63.7553 142.413 64.4735C142.377 64.6393 142.35 64.8056 142.324 64.9731C142.073 66.5059 141.666 67.9971 141.186 69.4727L141.098 69.7471C140.973 70.1303 140.831 70.505 140.682 70.8793L140.575 71.1502C140.469 71.4225 140.356 71.6869 140.221 71.9468C140.207 71.9808 140.192 72.0148 140.177 72.0489C140.161 72.0862 140.145 72.1236 140.129 72.161C139.731 73.0947 139.25 73.9938 138.739 74.8697L138.644 75.0336C138.412 75.4346 138.167 75.8243 137.908 76.2088L137.731 76.4738C137.266 77.1687 136.778 77.8419 136.246 78.4866C136.157 78.594 136.071 78.7027 135.985 78.8119C135.841 78.9934 135.687 79.165 135.531 79.3363C135.434 79.4455 135.343 79.558 135.252 79.6723C135.088 79.8746 134.912 80.0567 134.727 80.2383C134.614 80.3488 134.506 80.4599 134.405 80.5804C134.091 80.9481 133.737 81.2968 133.368 81.6082C133.258 81.7035 133.153 81.8026 133.048 81.902C132.801 82.1348 132.553 82.3599 132.287 82.5716C132.186 82.6537 132.086 82.7383 131.987 82.824C131.631 83.132 131.254 83.4117 130.875 83.6915C130.816 83.7348 130.758 83.7782 130.7 83.8218C130.672 83.8431 130.643 83.8644 130.615 83.8858C129.92 84.4068 129.189 84.8848 128.445 85.3328L128.337 85.3979C126.457 86.5288 124.442 87.4557 122.353 88.1273C122.225 88.1687 122.097 88.2109 121.968 88.2532C121.463 88.4187 120.956 88.5567 120.439 88.6793L120.155 88.7482L120.049 88.7737C119.948 88.8017 119.851 88.8345 119.752 88.8696C119.548 88.9385 119.346 88.9701 119.133 88.997C118.905 89.0263 118.685 89.0629 118.463 89.1225C118.156 89.202 117.846 89.2388 117.532 89.276L117.518 89.2777L117.254 89.3101L117.017 89.3388C116.935 89.3498 116.852 89.3628 116.771 89.3793C116.66 89.4012 116.551 89.4111 116.438 89.4192L116.302 89.4292L116.16 89.4392L115.735 89.47C115.617 89.48 115.5 89.4916 115.383 89.5054C114.73 89.5801 114.079 89.5834 113.423 89.5823C113.295 89.5821 113.167 89.5824 113.039 89.5831C112.159 89.5884 111.294 89.5471 110.419 89.4569C110.251 89.4397 110.083 89.4239 109.915 89.4085C109.823 89.3998 109.731 89.3903 109.639 89.3805C109.568 89.3728 109.496 89.365 109.425 89.3571L109.32 89.3459C108.3 89.2352 107.292 89.0218 106.293 88.7932L106.157 88.7621C105.949 88.7131 105.882 88.6976 105.819 88.6754C105.789 88.6652 105.76 88.6535 105.717 88.6363C105.62 88.5977 105.531 88.573 105.429 88.5522C104.441 88.3421 103.464 87.9943 102.532 87.6094C102.367 87.5415 102.201 87.4806 102.033 87.4217C101.661 87.2911 101.302 87.1419 100.951 86.9614C100.817 86.8962 100.682 86.8367 100.546 86.7774C100.269 86.6572 100.005 86.5354 99.7501 86.3731C99.6077 86.2881 99.4601 86.2158 99.3113 86.1429L99.3059 86.1403C99.0598 86.0195 98.8212 85.8912 98.5863 85.7495C98.4706 85.6818 98.3539 85.6178 98.2358 85.5544C97.9848 85.418 97.7421 85.2703 97.5003 85.1184L97.3666 85.0345C96.4818 84.4761 95.6256 83.8706 94.8104 83.2148L94.7259 83.1472C94.4124 82.8961 94.1033 82.643 93.8076 82.3709C93.7063 82.2805 93.6014 82.1972 93.4945 82.1134C93.2401 81.9083 93.0134 81.6777 92.7851 81.4442C92.6436 81.2999 92.5015 81.1607 92.3477 81.0295C92.1658 80.8734 92.0133 80.6974 91.8622 80.5118C91.8464 80.4929 91.8343 80.4783 91.8235 80.4659C91.815 80.4562 91.8074 80.4478 91.7995 80.4398C91.7738 80.4136 91.7452 80.3904 91.6757 80.3342C91.4621 80.3409 91.2849 80.4326 91.1004 80.5281L91.0499 80.5541L90.9419 80.6085L90.6008 80.7817L89.9362 81.1178C89.5098 81.3341 89.0833 81.5496 88.6495 81.7507C88.294 81.9172 87.9476 82.0983 87.6017 82.2839C87.4927 82.3421 87.383 82.3989 87.2728 82.4549L87.1763 82.5041C87.139 82.5203 87.1201 82.5285 87.1003 82.5327C87.0801 82.537 87.0589 82.537 87.016 82.537L85.3996 79.3042L85.2408 78.9881C85.0868 78.6825 84.9372 78.3752 84.792 78.0653C84.6649 77.7941 84.5308 77.5286 84.3875 77.2657C84.2658 77.0407 84.1579 76.8103 84.0506 76.5781C83.9465 76.3545 83.8332 76.1375 83.7151 75.921C83.5801 75.6711 83.4594 75.4149 83.3405 75.157C83.2464 74.9544 83.1441 74.7596 83.0316 74.5665C83.0114 74.5269 83.0014 74.5073 82.9965 74.4866C82.9917 74.4665 82.9917 74.4454 82.9917 74.4037C83.3959 74.1848 83.8029 73.9763 84.2191 73.7813C84.7064 73.5528 85.1843 73.3089 85.6587 73.0551C85.8949 72.9296 86.1348 72.8149 86.3806 72.7093C86.3555 72.5612 86.3169 72.437 86.2533 72.3012L86.2011 72.1884L86.145 72.0686C85.839 71.4042 85.5571 70.7386 85.3236 70.0452L85.197 69.6728C84.8902 68.7736 84.5988 67.8723 84.4015 66.9417C84.3603 66.7477 84.31 66.56 84.2498 66.3712C84.1678 66.092 84.121 65.8007 84.0745 65.5118C84.0666 65.4624 84.0586 65.413 84.0505 65.3638C84.0452 65.3314 84.0398 65.299 84.0342 65.2666C83.9976 65.0531 83.9603 64.8397 83.9204 64.6268C83.8154 64.0602 83.7516 63.4985 83.7119 62.9239L83.701 62.7683C83.6859 62.5522 83.6709 62.3361 83.6567 62.1199L83.6469 61.9713L83.6384 61.8408C83.6295 61.7254 83.6179 61.6111 83.6053 61.496C83.5817 61.2629 83.5772 61.0313 83.5762 60.7971L83.5753 60.6607L83.5742 60.2207L83.5741 60.068C83.5744 58.6851 83.6593 57.3059 83.839 55.9343L83.8549 55.8101C83.9064 55.4112 83.965 55.019 84.0621 54.6283C84.0966 54.4792 84.1215 54.33 84.1461 54.179C84.3766 52.8203 84.7605 51.4652 85.2369 50.1733L85.2819 50.0497C85.5031 49.4421 85.743 48.8435 85.9958 48.2484C86.0353 48.1552 86.0744 48.0617 86.1131 47.9682C86.2701 47.5928 86.4492 47.2308 86.6348 46.8691L86.6998 46.7417C87.244 45.6749 87.8256 44.6406 88.4987 43.6497L88.5595 43.5598C89.3268 42.425 90.1528 41.3343 91.0752 40.32C91.138 40.2509 91.2004 40.1814 91.2625 40.1115C91.4521 39.8983 91.647 39.6934 91.8517 39.4945C91.8902 39.4569 91.9114 39.4362 91.9301 39.4134C91.953 39.3857 91.9721 39.3549 92.0147 39.2865H92.0994L92.1277 39.2148C92.1976 39.0938 92.2854 39.0166 92.3883 38.9262L92.4092 38.9079C92.6032 38.7349 92.7887 38.5562 92.9705 38.3704C93.1678 38.17 93.3726 37.9886 93.5933 37.8138C93.7188 37.7112 93.8372 37.6023 93.9554 37.4914C94.2013 37.2625 94.4612 37.0558 94.7276 36.8513C94.8163 36.7827 94.9044 36.7134 94.9924 36.6439C95.6568 36.1204 96.3475 35.6397 97.0557 35.1775L97.1499 35.116C98.5472 34.2085 100.101 33.2867 101.676 32.7247C101.793 32.681 101.904 32.6318 102.017 32.5789C102.263 32.4656 102.514 32.3676 102.769 32.2731L102.905 32.2226C103.17 32.1243 103.436 32.0324 103.708 31.9529C103.848 31.9115 103.985 31.8648 104.122 31.8177C104.972 31.5315 105.84 31.3105 106.714 31.1108L106.846 31.0807C107.587 30.9135 108.335 30.7957 109.086 30.6872L109.221 30.6677C109.469 30.6326 109.717 30.6022 109.966 30.5752C110.059 30.5649 110.152 30.554 110.246 30.5426C112.452 30.2759 114.859 30.2984 117.049 30.6735ZM76.9765 67.7948L77.01 67.8657L77.0127 67.8714C77.1476 68.1569 77.2156 68.3005 77.2847 68.4436C77.3543 68.5876 77.4252 68.7311 77.5669 69.0179C77.8977 69.6743 78.2138 70.3377 78.5015 71.0142L78.3678 71.0764C78.0627 71.2189 77.7588 71.3628 77.4583 71.5146C77.1501 71.6701 76.8391 71.8194 76.5274 71.9679C76.1912 72.1281 75.8556 72.2897 75.5203 72.4518C75.0946 72.6575 74.6687 72.8627 74.2423 73.0669C74.0074 73.1795 73.7728 73.2926 73.5384 73.4064C73.0095 73.6631 72.4791 73.9157 71.9437 74.1588C71.6811 74.2784 71.4218 74.4029 71.1646 74.5337C70.9503 74.6424 70.7338 74.7457 70.5164 74.8479C70.2713 74.9632 70.0275 75.0805 69.7857 75.2026C69.4792 75.3572 69.1699 75.5056 68.8601 75.6533C68.5238 75.8135 68.1883 75.9751 67.853 76.1372C67.4273 76.3429 67.0013 76.548 66.5751 76.7523C66.2347 76.9156 65.8948 77.0797 65.5549 77.2439C65.151 77.4391 64.7466 77.6334 64.3418 77.8266C63.9886 77.9953 63.6361 78.1655 63.2837 78.3358C62.9273 78.508 62.5706 78.6798 62.2137 78.851C61.8583 79.0213 61.5032 79.1923 61.1484 79.3637L60.316 79.7657C59.7688 80.0302 59.22 80.2904 58.6665 80.5414C58.4345 80.6472 58.2124 80.7575 57.9961 80.8927C57.9556 80.9095 57.9351 80.9179 57.9138 80.9214C57.8918 80.9249 57.8691 80.9231 57.8229 80.9196C57.7936 80.9064 57.7752 80.8981 57.7603 80.8857C57.7353 80.8651 57.7197 80.833 57.678 80.7473C57.6554 80.6838 57.6335 80.62 57.6122 80.556L57.5749 80.4492L57.493 80.2111C57.4451 80.0708 57.396 79.9311 57.3466 79.7913C56.883 78.4717 56.7756 78.166 56.7054 77.852C56.6842 77.7574 56.6664 77.662 56.6432 77.5378C57.0152 77.3494 57.3889 77.1655 57.7658 76.9871C58.0266 76.8636 58.2865 76.7386 58.5441 76.6085C58.9025 76.4277 59.2647 76.2552 59.627 76.0827L59.7332 76.0322L60.5082 75.6609C60.8249 75.5088 61.1413 75.3562 61.4576 75.2034L62.2885 74.8022C62.7991 74.5555 63.3112 74.3125 63.826 74.0748C64.1651 73.9181 64.5027 73.7598 64.8357 73.5905C65.0488 73.4823 65.2644 73.3796 65.4808 73.2778C65.7098 73.1701 65.9378 73.061 66.1638 72.9469C66.4548 72.8002 66.7486 72.6598 67.0428 72.5196C67.3804 72.3586 67.7174 72.1963 68.0542 72.0335C68.437 71.8485 68.8199 71.664 69.2032 71.4802C69.5586 71.3098 69.9136 71.1388 70.2685 70.9674L71.1009 70.5654C71.6434 70.3032 72.188 70.0464 72.7356 69.7952C73.0123 69.6679 73.2864 69.5368 73.5579 69.3988C73.7707 69.2908 73.9859 69.1883 74.2018 69.0868C74.447 68.9715 74.6907 68.8541 74.9326 68.732C75.3326 68.5302 75.7371 68.3377 76.1419 68.1456L76.3605 68.0416L76.7787 67.8432C76.8453 67.8147 76.8726 67.803 76.9012 67.7981C76.9211 67.7948 76.9416 67.7948 76.9765 67.7948ZM87.9903 83.8919C88.0171 83.9361 88.0321 83.9608 88.0459 83.9861C88.0634 84.0181 88.0791 84.0512 88.1145 84.1261L88.1865 84.2765L88.263 84.44L88.3424 84.6071C88.5371 85.0173 88.7272 85.4297 88.9161 85.8427C89.0486 86.1317 89.1857 86.4176 89.3322 86.6998C89.3953 86.8223 89.4425 86.9349 89.4729 87.069L89.3392 87.1312L89.1552 87.2173L89.0683 87.2576C88.8256 87.3713 88.5859 87.4909 88.3464 87.6111C88.0153 87.777 87.6826 87.9396 87.3495 88.1015L87.2522 88.1489C86.8256 88.3563 86.3973 88.5587 85.9644 88.7526C85.7172 88.8636 85.4742 88.981 85.2326 89.1037C85.017 89.2131 84.7991 89.3172 84.5802 89.42C84.3351 89.5353 84.0913 89.6527 83.8495 89.7748C83.543 89.9294 83.2337 90.0778 82.9238 90.2255C82.5876 90.3857 82.2521 90.5473 81.9167 90.7094C81.3148 91.0003 80.7121 91.2897 80.1093 91.5787C79.568 91.8383 79.027 92.0985 78.4865 92.3597C78.0886 92.5518 77.6905 92.7433 77.2921 92.9343C76.9536 93.0967 76.6155 93.2598 76.2774 93.4231C75.8535 93.628 75.4292 93.8321 75.0046 94.0357C74.6923 94.1855 74.3803 94.3359 74.0684 94.4866L73.236 94.8886C72.6935 95.1508 72.149 95.4075 71.6013 95.6587C71.3246 95.7861 71.0505 95.9172 70.779 96.0552C70.5662 96.1632 70.3511 96.2657 70.1351 96.3672C69.89 96.4825 69.6462 96.5998 69.4044 96.722C68.7822 97.0359 68.1507 97.3316 67.5195 97.6271L67.3605 97.7016C67.0558 97.3506 66.7677 96.9899 66.4873 96.6194C66.367 96.4607 66.2448 96.3037 66.1218 96.1472C65.8895 95.851 65.6622 95.5518 65.441 95.2473L65.3694 95.1493L65.3038 95.0582L65.246 94.9781C65.228 94.9498 65.2171 94.9325 65.2079 94.9144C65.1936 94.8863 65.1835 94.856 65.1577 94.7787C65.5212 94.5771 65.8879 94.3939 66.2691 94.228C66.5082 94.1234 66.7417 94.0104 66.9744 93.8922C67.1948 93.7804 67.4174 93.6739 67.6411 93.5687C67.8701 93.461 68.0982 93.3519 68.3242 93.2378C68.6152 93.0911 68.909 92.9506 69.2032 92.8105C69.4368 92.6992 69.67 92.5872 69.9028 92.4743C70.4521 92.2078 71.0029 91.9459 71.558 91.6916C71.8319 91.5658 72.1031 91.436 72.3718 91.2994C72.5846 91.1914 72.7997 91.0889 73.0156 90.9874C73.2608 90.8721 73.5046 90.7547 73.7464 90.6326C74.1089 90.4497 74.4753 90.2752 74.8419 90.1007L74.9407 90.0536L75.7158 89.6823C76.0847 89.5051 76.4533 89.3272 76.8219 89.1491C77.2197 88.9569 77.6178 88.7655 78.0162 88.5745C78.3547 88.4121 78.6929 88.249 79.0309 88.0857C79.5451 87.8373 80.0597 87.5899 80.5745 87.343L82.0309 86.6439C82.414 86.46 82.797 86.2761 83.1804 86.093C83.6156 85.8851 84.0502 85.676 84.4844 85.4661C84.8834 85.2733 85.2828 85.0812 85.6824 84.8896C85.9231 84.7742 86.1635 84.6585 86.4037 84.5422L86.8812 84.3111L87.1694 84.1723C87.2688 84.1247 87.3679 84.0766 87.4668 84.0282L87.6163 83.9565L87.7508 83.8912C87.8042 83.8714 87.8322 83.861 87.8605 83.8601C87.8919 83.8591 87.9235 83.8697 87.9903 83.8919ZM76.2854 79.076L76.1292 78.7662C76.087 78.7662 76.0658 78.7662 76.0456 78.7707C76.0253 78.7752 76.006 78.7843 75.9673 78.8024C75.9048 78.8353 75.8417 78.8671 75.7781 78.8978L75.5461 79.009C75.1219 79.2122 74.6979 79.4161 74.2744 79.6208C73.8834 79.8098 73.4923 79.9983 73.1004 80.1853C72.7328 80.3608 72.3658 80.5376 71.999 80.7148C71.6619 80.8778 71.3245 81.0404 70.9865 81.2015C70.6766 81.3491 70.3674 81.4975 70.061 81.6521C69.8192 81.7742 69.5754 81.8915 69.3303 82.0068C69.1158 82.1077 68.902 82.2095 68.6906 82.3167C68.3812 82.4741 68.068 82.6223 67.7529 82.768C66.9651 83.132 66.1831 83.5075 65.4018 83.8851C65.0882 84.0366 64.7746 84.1878 64.4606 84.3384C64.0361 84.542 63.6118 84.7461 63.1879 84.9509C62.8869 85.0964 62.5859 85.2418 62.2843 85.3861C61.8531 85.5925 61.4224 85.7993 60.9956 86.0146C60.847 86.0897 60.6981 86.1642 60.5492 86.2386L60.1591 86.4336L60.2196 86.5636C60.4612 87.0837 60.7033 87.6049 60.9905 88.1015C61.0785 88.2522 61.1644 88.4031 61.2465 88.557L61.4855 89.0096L61.564 89.1607L61.6386 89.3017C61.6756 89.3726 61.6921 89.4041 61.7103 89.4346C61.7249 89.4591 61.7406 89.483 61.7688 89.5259C61.8294 89.5461 61.8641 89.5577 61.8987 89.5573C61.9449 89.5568 61.9909 89.535 62.0984 89.4839L62.1792 89.4438C62.4072 89.3342 62.6335 89.2211 62.8596 89.1076C63.1085 88.982 63.3592 88.8609 63.6115 88.7422C63.8275 88.6407 64.0426 88.5382 64.2555 88.4302C64.527 88.2922 64.801 88.1611 65.0777 88.0338C65.6253 87.7826 66.1697 87.5259 66.7121 87.2638L67.55 86.859C67.8592 86.7096 68.1687 86.5607 68.4788 86.413C68.7886 86.2653 69.0979 86.1169 69.4044 85.9623C69.6462 85.8402 69.89 85.7228 70.1351 85.6075C70.3511 85.506 70.5662 85.4035 70.779 85.2955C71.0506 85.1575 71.3246 85.0264 71.6013 84.899C72.1489 84.6479 72.6933 84.3912 73.2356 84.1291L74.0736 83.7243C74.3828 83.5749 74.6923 83.426 75.0024 83.2782C75.314 83.1297 75.625 82.9804 75.9333 82.8249C76.1593 82.7108 76.3869 82.601 76.6164 82.494C76.9657 82.3311 77.3103 82.1597 77.6542 81.9857C77.4332 81.471 77.1937 80.9662 76.9482 80.463L76.94 80.4461C76.8126 80.1853 76.6854 79.9247 76.5661 79.6601C76.4906 79.4922 76.4117 79.3266 76.329 79.1621L76.2854 79.076Z" fill="white"/>
</svg>
