<svg width="602" height="116" viewBox="0 0 602 116" fill="none" xmlns="http://www.w3.org/2000/svg">
<path opacity="0.05" fill-rule="evenodd" clip-rule="evenodd" d="M389.153 -215.129C389.996 -215.238 390.838 -215.35 391.681 -215.463C400.499 -216.646 409.444 -217.704 418.359 -217.444C418.998 -217.429 419.634 -217.442 420.273 -217.462C422.917 -217.526 425.561 -217.485 428.205 -217.44L428.936 -217.428C430.356 -217.406 431.763 -217.342 433.179 -217.218C433.992 -217.152 434.812 -217.127 435.627 -217.101C437.125 -217.047 438.61 -216.938 440.101 -216.79C441.147 -216.686 442.192 -216.607 443.242 -216.544C444.82 -216.447 446.384 -216.275 447.953 -216.084C448.437 -216.026 448.922 -215.972 449.407 -215.919C452.957 -215.528 456.485 -215.016 460.008 -214.432C460.429 -214.363 460.85 -214.296 461.272 -214.231C463.386 -213.899 465.485 -213.506 467.584 -213.091L468.749 -212.867C470.311 -212.57 471.862 -212.238 473.411 -211.885L475.39 -211.437C476.246 -211.246 477.104 -211.065 477.962 -210.886C478.645 -210.729 479.306 -210.524 479.973 -210.312C480.621 -210.117 481.277 -209.964 481.935 -209.81L482.124 -209.765C483.187 -209.509 484.242 -209.224 485.297 -208.939L485.357 -208.923L486.259 -208.683C487.541 -208.341 488.81 -207.967 490.076 -207.574L490.629 -207.404C491.413 -207.162 492.194 -206.916 492.968 -206.644C493.447 -206.479 493.904 -206.341 494.397 -206.231C495.317 -206.004 496.2 -205.697 497.092 -205.382C497.995 -205.064 498.904 -204.772 499.818 -204.488C500.776 -204.188 501.69 -203.852 502.603 -203.433C503.219 -203.171 503.847 -202.956 504.481 -202.741C506.327 -202.114 508.138 -201.421 509.933 -200.659C510.427 -200.453 510.924 -200.257 511.424 -200.066C513.606 -199.23 515.743 -198.305 517.876 -197.351C518.322 -197.152 518.769 -196.959 519.218 -196.766C520.17 -196.354 521.109 -195.915 522.048 -195.472L523.649 -194.718C524.506 -194.304 524.935 -194.097 525.367 -193.9C525.8 -193.702 526.236 -193.513 527.108 -193.136L527.508 -192.944L527.552 -192.608L527.852 -192.592C528.306 -192.519 528.599 -192.369 529.001 -192.147C529.638 -191.804 530.279 -191.476 530.931 -191.162L531.383 -190.945L532.29 -190.512L532.711 -190.309L533.092 -190.127L533.37 -189.956L533.415 -189.62L533.692 -189.624C534.192 -189.524 534.571 -189.27 534.978 -188.998L535.227 -188.833L535.753 -188.732L535.798 -188.396L536.144 -188.338C536.843 -188.12 537.433 -187.761 538.052 -187.385L538.219 -187.283L539.573 -186.477C540.227 -186.092 540.888 -185.72 541.55 -185.35L543.329 -184.353L544.353 -183.775L544.665 -183.602C544.907 -183.464 545.141 -183.314 545.374 -183.162L545.418 -182.826L545.922 -182.892C546.133 -182.73 546.343 -182.567 546.548 -182.398C547.037 -182.043 547.574 -181.769 548.111 -181.495L548.395 -181.349C548.92 -181.049 549.371 -180.703 549.848 -180.333C550.386 -179.996 550.93 -179.672 551.476 -179.349L551.895 -179.064L551.939 -178.728L552.443 -178.794C552.667 -178.633 552.889 -178.47 553.102 -178.295C553.446 -178.024 553.804 -177.78 554.168 -177.537L554.544 -177.285C554.707 -177.179 554.798 -177.12 554.893 -177.066C555.016 -176.996 555.145 -176.935 555.441 -176.796L555.485 -176.46L555.773 -176.381C556.35 -176.155 556.81 -175.86 557.32 -175.506L557.364 -175.17L557.652 -175.09C558.594 -174.721 559.391 -174.089 560.179 -173.464L560.452 -173.248C561.012 -172.812 561.574 -172.396 562.17 -172.01C562.972 -171.486 563.724 -170.902 564.477 -170.31C564.912 -169.97 565.311 -169.69 565.808 -169.445L565.853 -169.109L566.379 -169.008L566.423 -168.672L566.949 -168.57C567.213 -168.323 567.474 -168.072 567.731 -167.818L568.28 -167.549L568.324 -167.213L568.85 -167.111L568.894 -166.775L569.42 -166.674C569.474 -166.632 569.517 -166.598 569.553 -166.57C569.599 -166.533 569.635 -166.504 569.671 -166.473C569.748 -166.407 569.822 -166.338 569.986 -166.183C570.722 -165.511 571.507 -164.916 572.308 -164.326C572.562 -164.135 572.809 -163.935 573.055 -163.734L573.099 -163.398L573.625 -163.296C573.745 -163.205 573.811 -163.155 573.874 -163.102C573.952 -163.037 574.026 -162.968 574.19 -162.815C574.641 -162.404 575.098 -162.005 575.57 -161.618L575.884 -161.361L576.51 -160.853C576.955 -160.488 577.261 -160.231 577.516 -159.707L578.042 -159.605C578.405 -159.284 578.541 -159.164 578.606 -159.014C578.644 -158.924 578.657 -158.824 578.678 -158.663L578.982 -158.589C579.498 -158.372 579.817 -158.062 580.21 -157.679L580.268 -157.623L580.715 -157.192L581.537 -156.383C581.942 -156.007 582.37 -155.679 582.808 -155.343L582.883 -155.286C583.253 -154.967 583.613 -154.638 583.973 -154.308L584.254 -154.053C585.316 -153.083 585.54 -152.879 585.614 -152.629C585.634 -152.562 585.643 -152.493 585.655 -152.404L586.181 -152.302C586.499 -152.015 586.794 -151.728 587.088 -151.418L587.332 -151.169C587.695 -150.792 587.963 -150.477 588.193 -150.004L588.529 -150.048C588.91 -149.695 589.272 -149.337 589.633 -148.965L590.327 -148.258L590.7 -147.876C591.101 -147.467 591.505 -147.061 591.91 -146.656L593.127 -145.438C593.877 -144.684 594.605 -143.914 595.32 -143.127C595.816 -142.587 596.338 -142.073 596.861 -141.558L597.051 -141.371C597.375 -141.009 597.541 -140.774 597.672 -140.313L598.008 -140.358C598.159 -140.218 598.242 -140.141 598.322 -140.061C598.42 -139.962 598.514 -139.859 598.723 -139.63L599.105 -139.217C599.252 -139.029 599.327 -138.932 599.373 -138.824C599.421 -138.711 599.438 -138.585 599.472 -138.329L599.808 -138.373C600.16 -138.012 600.49 -137.649 600.818 -137.267L601.098 -136.951C601.529 -136.455 601.859 -136.052 602.076 -135.424L602.412 -135.468C602.531 -135.344 602.6 -135.273 602.665 -135.199C602.752 -135.102 602.835 -135 603.026 -134.763L603.831 -133.775L604.184 -133.357L604.742 -132.699L606.041 -131.164L606.705 -130.375C607.182 -129.795 607.648 -129.206 608.115 -128.617L608.301 -128.382L608.908 -127.62C609.915 -126.354 610.919 -125.088 611.904 -123.805C612.164 -123.473 612.432 -123.151 612.706 -122.831C613.252 -122.179 613.715 -121.47 614.18 -120.76L614.314 -120.554C614.666 -120.032 615.062 -119.555 615.466 -119.073C615.865 -118.585 616.224 -118.07 616.584 -117.552C617.109 -116.804 617.638 -116.061 618.185 -115.329C619.144 -114.047 620.062 -112.772 620.867 -111.387C621.335 -110.588 621.855 -109.838 622.398 -109.089C623.028 -108.22 623.598 -107.348 624.118 -106.408C624.454 -105.838 624.824 -105.296 625.2 -104.752C626.118 -103.409 626.952 -102.023 627.775 -100.621L628.189 -99.9219C628.882 -98.7484 629.569 -97.5707 630.249 -96.3895L630.437 -96.0639C630.972 -95.1313 631.478 -94.1839 631.979 -93.2326C632.338 -92.5531 632.71 -91.8809 633.083 -91.2085L633.113 -91.1547C633.702 -90.0884 634.263 -89.0108 634.809 -87.9221C635.111 -87.3225 635.422 -86.7326 635.758 -86.1514C636.177 -85.4187 636.521 -84.6604 636.867 -83.8908C637.172 -83.2233 637.491 -82.5632 637.813 -81.9036L637.994 -81.5307C638.289 -80.9268 638.585 -80.324 638.885 -79.723C639.658 -78.1687 640.357 -76.591 641.032 -74.9921C641.484 -73.9236 641.95 -72.8637 642.432 -71.8088C643.081 -70.3796 643.662 -68.9295 644.228 -67.4658C644.377 -67.0837 644.527 -66.7022 644.678 -66.321C644.781 -66.0599 644.884 -65.799 644.988 -65.538L645.087 -65.2876C645.462 -64.3413 645.834 -63.3941 646.206 -62.4466L646.366 -62.0397C647.397 -59.4041 648.283 -56.7148 649.169 -54.0274L649.569 -52.8158C649.884 -51.8663 650.203 -50.9188 650.53 -49.9735C650.822 -49.1187 651.087 -48.2604 651.333 -47.3916C651.486 -46.8562 651.646 -46.3232 651.807 -45.7903L651.967 -45.2611L652.28 -44.2283C652.609 -43.1356 652.902 -42.0363 653.179 -40.9294C653.399 -40.0452 653.629 -39.1635 653.863 -38.2827C654.776 -34.8353 655.65 -31.3861 656.395 -27.8977L656.48 -27.4973C657.731 -21.6152 658.595 -15.6968 659.364 -9.73695C659.473 -8.89394 659.585 -8.05132 659.698 -7.20886C661.048 2.85187 661.738 12.8619 661.73 23.0135L661.73 23.5564C661.73 24.6295 661.723 25.7026 661.713 26.7757L661.709 27.1692C661.673 31.1944 661.539 35.2311 661.169 39.2399C661.076 40.257 661.013 41.2755 660.949 42.2947L660.941 42.419C660.853 43.7982 660.739 45.1652 660.57 46.5369C660.478 47.2753 660.403 48.0152 660.327 48.7553L660.322 48.808C659.945 52.4873 659.46 56.1359 658.865 59.7866C658.747 60.5193 658.632 61.2527 658.519 61.9862L658.316 63.2841L658.257 63.664C658.052 64.9652 657.804 66.2575 657.553 67.5503L657.484 67.9018C657.102 69.8737 656.704 71.8419 656.283 73.806L656.166 74.3553L655.787 76.1251L655.669 76.6793C655.466 77.6158 655.237 78.5332 654.956 79.4495C654.805 79.9592 654.693 80.4752 654.58 80.9946C653.613 85.2883 652.465 89.6344 650.984 93.7788C650.772 94.3766 650.587 94.9671 650.444 95.5853C650.24 96.4574 649.924 97.285 649.605 98.1187L649.497 98.4021C649.174 99.2558 648.889 100.111 648.631 100.987C648.098 102.745 647.458 104.461 646.762 106.16C646.36 107.148 646.005 108.149 645.667 109.16C645.454 109.795 645.217 110.407 644.946 111.018L644.589 111.962C644.346 112.599 644.085 113.213 643.777 113.821C643.496 114.375 643.255 114.928 643.038 115.51C642.568 116.758 642.031 117.979 641.494 119.199L641.232 119.795L640.619 121.208C640.356 121.815 640.088 122.418 639.807 123.017L639.571 123.521L638.868 125.013L638.56 125.664L638.288 126.243C638.136 126.568 637.987 126.894 637.84 127.221L637.592 127.774L637.374 128.265L637.179 128.618L636.843 128.662L636.822 128.968C636.739 129.526 636.492 130.009 636.239 130.504L636.106 130.768L635.92 131.153C635.763 131.473 635.59 131.786 635.416 132.098L635.08 132.142L635.064 132.435C634.988 132.91 634.824 133.268 634.612 133.699L634.398 134.141L634.191 134.481L633.855 134.525L633.85 134.808C633.757 135.324 633.536 135.699 633.277 136.139L633.216 136.243L632.868 136.846L632.693 137.149L632.455 137.572C632.315 137.827 632.177 138.085 632.04 138.342C630.912 140.426 629.716 142.474 628.521 144.521L628.065 145.302C627.88 145.627 627.708 145.959 627.543 146.294L627.207 146.338L627.122 146.624C626.912 147.18 626.632 147.688 626.342 148.204L626.173 148.513C626.029 148.771 625.872 149.021 625.713 149.269L625.377 149.313L625.291 149.611C625.094 150.121 624.826 150.545 624.532 151.006C624.141 151.624 623.762 152.242 623.412 152.884C623.087 153.469 622.715 153.977 622.3 154.504C621.896 155.065 621.694 155.345 621.505 155.633C621.316 155.92 621.139 156.215 620.785 156.804L620.594 157.121L620.258 157.165L620.151 157.489C620.094 157.649 620.06 157.743 620.022 157.836C619.966 157.972 619.901 158.104 619.741 158.43L619.405 158.474L619.31 158.794C619.152 159.205 618.971 159.467 618.694 159.807C617.974 160.717 617.344 161.678 616.742 162.67L616.43 163.138L616.094 163.183L615.996 163.505C615.848 163.894 615.689 164.147 615.432 164.47L615.185 164.786L614.927 165.109C614.439 165.726 613.964 166.332 613.556 167.006L613.243 167.489L612.907 167.533L612.805 168.059L612.469 168.103L612.368 168.63C612.12 168.893 611.87 169.154 611.616 169.412L611.346 169.96L611.01 170.005L610.909 170.531L610.573 170.575L610.471 171.101C610.378 171.22 610.325 171.288 610.271 171.351C610.205 171.429 610.136 171.503 609.982 171.665C609.42 172.283 608.909 172.929 608.407 173.595C607.634 174.614 606.83 175.586 605.938 176.504C605.421 177.05 604.985 177.65 604.545 178.258C604.399 178.435 604.333 178.515 604.248 178.559C604.177 178.595 604.094 178.606 603.942 178.626L603.84 179.152C603.593 179.445 603.333 179.727 603.066 180.002L602.612 180.474L602.191 180.907C601.513 181.62 600.888 182.357 600.332 183.171C600.252 183.26 600.203 183.315 600.144 183.352C600.05 183.411 599.931 183.427 599.623 183.467L599.559 183.765C599.322 184.307 598.937 184.669 598.519 185.063L598.424 185.152C597.78 185.769 597.227 186.391 596.683 187.101C596.398 187.384 596.106 187.661 595.81 187.932C595.519 188.178 595.376 188.299 595.26 188.441C595.148 188.579 595.06 188.736 594.889 189.047L594.385 189.113L594.283 189.639C593.942 190.002 593.597 190.344 593.235 190.685L592.215 191.664C591.668 192.196 591.135 192.741 590.601 193.286L590.494 193.396C589.625 194.28 588.751 195.157 587.859 196.018L587.57 196.3C587.113 196.738 586.972 196.873 586.805 196.931C586.73 196.957 586.65 196.968 586.534 196.983L586.578 197.319L586.061 197.697C585.73 197.946 585.489 198.147 585.235 198.478L585.053 198.716L584.549 198.782L584.593 199.118C584.25 199.445 583.904 199.753 583.542 200.058L582.907 200.603L582.59 200.874C581.857 201.508 581.123 202.153 580.457 202.857C580.327 202.973 580.255 203.038 580.171 203.08C580.065 203.133 579.941 203.149 579.659 203.186L579.704 203.522C579.332 203.853 578.958 204.164 578.568 204.472C577.829 205.069 577.1 205.665 576.408 206.316C575.846 206.843 575.259 207.299 574.634 207.748C574.239 208.046 573.891 208.38 573.535 208.724C573.238 208.993 572.931 209.227 572.606 209.462C571.83 210.032 571.077 210.628 570.325 211.23C568.668 212.55 566.997 213.848 565.298 215.114C564.732 215.538 564.175 215.968 563.627 216.416C562.902 216.998 562.137 217.514 561.364 218.029C560.518 218.595 559.685 219.178 558.856 219.768C557.639 220.632 556.411 221.476 555.171 222.307C554.622 222.676 554.074 223.047 553.525 223.418L552.644 224.014L552.02 224.439C551.493 224.799 550.972 225.145 550.406 225.442C549.593 225.888 548.821 226.389 548.044 226.896C546.811 227.699 545.562 228.464 544.289 229.206L543.768 229.518C543.072 229.932 542.365 230.323 541.658 230.716C540.706 231.248 539.761 231.786 538.828 232.349C537.922 232.893 536.995 233.38 536.051 233.855C535.624 234.073 535.206 234.299 534.79 234.537C532.846 235.642 530.848 236.653 528.831 237.619L528.206 237.921L526.437 238.781C525.726 239.126 525.015 239.474 524.308 239.828C522.583 240.686 520.835 241.457 519.051 242.186C518.067 242.589 517.091 243.003 516.129 243.456C514.216 244.357 512.28 245.157 510.303 245.903C509.537 246.192 508.774 246.488 508.012 246.786C505.451 247.788 502.885 248.74 500.275 249.606C499.577 249.841 498.885 250.088 498.192 250.336C496.912 250.79 495.622 251.207 494.324 251.608C493.884 251.745 493.445 251.884 493.005 252.023C491.472 252.509 489.94 252.983 488.383 253.39C487.7 253.57 487.023 253.766 486.345 253.962L486.084 254.038C484.326 254.546 482.568 255.025 480.785 255.439C480.153 255.586 479.526 255.75 478.899 255.92C470.709 258.082 462.362 259.392 453.972 260.475C453.129 260.584 452.287 260.695 451.444 260.808C441.383 262.158 431.373 262.848 421.222 262.84L420.679 262.84C419.606 262.84 418.533 262.834 417.46 262.823L417.03 262.819C414.766 262.795 412.509 262.698 410.249 262.576L409.586 262.542L406.94 262.396C403.602 262.217 400.285 261.943 396.96 261.591L395.744 261.465C392.085 261.086 391.208 260.995 390.335 260.872C390.06 260.833 389.785 260.791 389.423 260.735L388.468 260.59L385.881 260.205C385.082 260.085 384.282 259.968 383.482 259.854C381.933 259.633 380.41 259.384 378.885 259.037C378.334 258.92 377.789 258.837 377.232 258.762C374.546 258.383 371.878 257.789 369.259 257.092C368.407 256.879 367.549 256.72 366.685 256.565C365.417 256.311 364.168 255.966 362.921 255.622L362.168 255.415C360.849 255.056 359.529 254.713 358.197 254.401C357.537 254.238 356.891 254.037 356.242 253.833C355.743 253.681 355.242 253.546 354.737 253.413C353.832 253.172 352.94 252.899 352.048 252.612C351.397 252.403 350.744 252.202 350.088 252.01C348.6 251.573 347.134 251.119 345.688 250.557C344.877 250.244 344.058 249.974 343.227 249.716C341.689 249.236 340.183 248.682 338.675 248.115C338.137 247.913 337.598 247.714 337.059 247.514L337.028 247.503L334.688 246.63C333.22 246.072 331.773 245.464 330.325 244.856C330.144 244.78 329.963 244.704 329.782 244.628L329.358 244.451C327.939 243.857 326.531 243.252 325.14 242.592C324.728 242.403 324.314 242.234 323.891 242.071C323.138 241.78 322.411 241.447 321.682 241.102C321.223 240.887 320.764 240.675 320.303 240.465C318.37 239.585 316.469 238.654 314.58 237.684C314.133 237.455 313.686 237.229 313.239 237.003C311.8 236.278 310.365 235.547 308.947 234.781C308.215 234.387 307.473 234.022 306.717 233.677L306.443 233.516L306.399 233.18L305.895 233.246L305.851 232.91L305.505 232.853C304.804 232.634 304.213 232.274 303.594 231.898L303.429 231.798L302.086 230.996C301.256 230.51 300.411 230.047 299.565 229.59C299.265 229.425 298.971 229.248 298.68 229.069L298.635 228.733L298.346 228.647C297.024 228.145 295.772 227.306 294.573 226.503L293.86 226.028C293.589 225.848 293.454 225.758 293.312 225.681C293.171 225.604 293.023 225.539 292.729 225.409L292.685 225.073L292.388 224.986C291.692 224.719 291.06 224.303 290.434 223.89C290.264 223.778 290.092 223.665 289.921 223.556L289.498 223.295C289.198 223.107 288.904 222.906 288.613 222.703L288.569 222.367L288.263 222.279C287.788 222.095 287.426 221.851 287.009 221.558L286.514 221.212L285.973 220.829L285.062 220.186L284.47 219.768C284.043 219.466 283.637 219.208 283.166 218.977L283.122 218.641L282.596 218.539L282.551 218.203L282.263 218.124C281.321 217.754 280.648 217.197 279.934 216.497L279.386 216.227L279.342 215.891L279.025 215.797C278.605 215.636 278.319 215.446 277.963 215.172L277.579 214.879L277.169 214.561L276.743 214.234L273.217 211.519C272.57 211.017 271.966 210.505 271.379 209.933C271.106 209.762 270.834 209.591 270.559 209.424C270.027 209.069 269.533 208.651 269.098 208.182L269.054 207.846L268.527 207.744L268.483 207.408L267.957 207.307C267.83 207.21 267.76 207.157 267.694 207.101C267.613 207.035 267.537 206.964 267.368 206.807C266.799 206.291 266.22 205.789 265.631 205.295C263.848 203.789 263.576 203.559 263.502 203.277C263.489 203.226 263.482 203.173 263.474 203.112L262.948 203.01C262.584 202.689 262.449 202.569 262.384 202.419C262.345 202.329 262.332 202.229 262.311 202.068L261.785 201.967C261.092 201.384 260.899 201.222 260.824 201.016C260.795 200.937 260.784 200.852 260.768 200.733L260.432 200.778C260.162 200.472 259.894 200.166 259.627 199.858L259.2 199.53C258.451 198.955 257.756 198.316 257.112 197.626L257.068 197.29L256.732 197.334C256.572 197.221 256.496 197.167 256.422 197.11C256.354 197.058 256.288 197.002 256.161 196.896C255.151 197.408 254.234 198.017 253.32 198.68C252.396 199.35 251.458 199.973 250.48 200.56C249.59 201.095 248.716 201.643 247.859 202.23C246.459 203.189 245.035 204.112 243.611 205.035L243.408 205.167L241.085 206.679C240.1 207.32 239.113 207.96 238.124 208.596C236.993 209.323 235.871 210.063 234.76 210.82C233.584 211.618 232.388 212.385 231.192 213.152L230.817 213.393C229.802 214.043 229.288 214.373 228.782 214.703C228.276 215.034 227.772 215.37 226.765 216.041C225.536 216.878 224.289 217.686 223.042 218.495L222.5 218.846C221.768 219.322 221.038 219.8 220.307 220.277L220 220.478C218.107 221.715 216.209 222.942 214.307 224.164C213.015 224.995 211.732 225.836 210.462 226.701C209.827 227.131 209.181 227.545 208.536 227.96L208.413 228.039C207.481 228.637 206.556 229.243 205.641 229.867C204.251 230.814 202.836 231.722 201.42 232.63L199.467 233.886C198.735 234.359 198.011 234.842 197.292 235.335C196.476 235.892 195.644 236.413 194.799 236.923C193.772 237.544 192.771 238.191 191.781 238.87C191.032 239.383 190.272 239.878 189.505 240.366C188.638 240.918 187.78 241.482 186.93 242.061C185.883 242.776 184.821 243.465 183.753 244.15C183.013 244.626 182.281 245.112 181.554 245.61C180.742 246.165 179.913 246.68 179.07 247.187C178.113 247.763 177.193 248.37 176.29 249.027C175.278 249.762 174.24 250.427 173.169 251.07C172.056 251.741 170.984 252.462 169.914 253.198C168.504 254.166 167.089 255.12 165.638 256.027C164.862 256.515 164.094 257.017 163.326 257.519L162.817 257.851C161.825 258.498 160.831 259.141 159.835 259.781C158.8 260.447 157.779 261.129 156.762 261.822C156.106 262.262 155.441 262.684 154.773 263.105C153.912 263.651 153.07 264.221 152.228 264.795C151.593 265.227 150.951 265.637 150.293 266.031C149.814 266.328 149.349 266.646 148.883 266.964L148.673 267.107C147.474 267.922 146.255 268.707 145.036 269.493L144.427 269.885L143.655 270.384C142.657 271.029 141.659 271.673 140.659 272.315C139.368 273.146 138.086 273.986 136.817 274.851C136.125 275.319 135.422 275.769 134.718 276.22L134.381 276.436C133.568 276.959 132.765 277.495 131.967 278.041C131.156 278.597 130.331 279.118 129.483 279.618C128.589 280.146 127.739 280.715 126.899 281.326C125.881 282.065 124.836 282.735 123.758 283.382C122.861 283.922 121.993 284.495 121.129 285.087C120.271 285.674 119.398 286.238 118.519 286.794C117.942 287.162 117.372 287.538 116.811 287.931L116.467 288.171C116.336 288.263 116.205 288.355 116.075 288.448C115.99 288.509 115.905 288.57 115.82 288.631C115.434 288.901 115.1 289.121 114.633 289.214C114.156 288.989 113.905 288.582 113.64 288.152L113.537 287.988L113.316 287.649C113.079 287.284 112.845 286.917 112.611 286.55L111.4 284.672C110.881 283.863 110.348 283.066 109.805 282.273C109.159 281.331 108.557 280.368 107.981 279.382C107.679 278.868 107.362 278.386 106.996 277.917C106.76 277.604 106.673 277.49 106.631 277.362C106.606 277.289 106.596 277.212 106.58 277.09L108.732 275.635L109.472 275.133C110.37 274.523 111.274 273.928 112.186 273.339L113.503 272.487L116.33 270.652C117.149 270.12 117.961 269.578 118.769 269.03C119.421 268.591 120.081 268.164 120.741 267.737L121.175 267.456C121.956 266.951 122.739 266.448 123.523 265.947C124.484 265.333 125.437 264.71 126.379 264.069C127.784 263.111 129.215 262.193 130.647 261.274L132.573 260.036C133.305 259.563 134.028 259.08 134.747 258.587C135.563 258.031 136.395 257.509 137.24 256.999C138.59 256.182 139.895 255.31 141.194 254.417C142.957 253.212 144.743 252.046 146.534 250.885L148.405 249.667C149.548 248.922 150.691 248.179 151.838 247.442C152.8 246.823 153.759 246.2 154.704 245.556C156.397 244.403 158.122 243.298 159.849 242.196C160.909 241.518 161.965 240.835 163.005 240.127C165.275 238.58 167.589 237.099 169.903 235.619L170.983 234.928C172.413 234.011 173.834 233.085 175.238 232.128C175.867 231.7 176.503 231.287 177.148 230.884C177.887 230.422 178.612 229.944 179.331 229.453C180.837 228.427 182.366 227.437 183.896 226.447L193.536 220.18C194.376 219.633 195.216 219.089 196.059 218.548C197.021 217.929 197.979 217.306 198.925 216.662C200.449 215.624 202.001 214.627 203.553 213.631L204.15 213.247C205.247 212.541 206.343 211.834 207.422 211.1C209.115 209.947 210.84 208.842 212.566 207.74C213.775 206.967 214.973 206.181 216.16 205.373C216.851 204.903 217.552 204.454 218.264 204.016C219.923 202.981 221.563 201.912 223.179 200.811C224.69 199.782 226.229 198.794 227.767 197.806L228.384 197.409C229.667 196.584 230.94 195.75 232.2 194.892C232.901 194.418 233.613 193.961 234.326 193.505L234.66 193.29C235.406 192.811 236.143 192.321 236.875 191.819C237.691 191.263 238.523 190.742 239.368 190.231C240.612 189.478 241.82 188.681 243.018 187.858C243.486 187.536 243.958 187.218 244.429 186.9L244.578 186.8L245.519 186.163L244.713 185.24C244.41 184.895 244.105 184.551 243.8 184.208L243.259 183.598L242.994 183.303C242.542 182.791 242.161 182.306 241.854 181.689L241.518 181.734C241.303 181.484 241.101 181.223 240.903 180.96L240.57 180.56L240.016 179.902L239.773 179.613C239.354 179.118 238.928 178.636 238.475 178.171C238.269 177.944 238.173 177.837 238.117 177.711C238.068 177.6 238.052 177.475 238.021 177.238L237.685 177.282L237.365 176.855L236.933 176.281L236.725 176.001C236.32 175.464 235.899 174.95 235.452 174.447C234.777 173.684 234.152 172.887 233.529 172.082C233.044 171.458 232.802 171.146 232.557 170.836C232.443 170.691 232.329 170.547 232.19 170.372C232.029 170.171 231.836 169.929 231.573 169.599L231.312 169.277L230.836 168.695C230.493 168.271 230.316 168.047 230.244 167.494C229.269 167.995 228.374 168.57 227.49 169.214C226.705 169.784 225.916 170.323 225.087 170.828C224.367 171.273 223.657 171.733 222.947 172.194L222.508 172.478C221.711 172.996 220.921 173.522 220.138 174.059C219.326 174.614 218.496 175.129 217.654 175.636C216.639 176.247 215.669 176.895 214.713 177.594C213.924 178.169 213.108 178.693 212.278 179.207C211.902 179.443 211.535 179.686 211.17 179.939C210.747 180.231 210.317 180.479 209.863 180.72C209.109 181.134 208.425 181.619 207.73 182.123C206.692 182.875 205.629 183.559 204.53 184.219C203.634 184.759 202.765 185.332 201.901 185.924C201.152 186.437 200.392 186.932 199.626 187.42C198.758 187.972 197.9 188.536 197.05 189.115C196.003 189.83 194.941 190.52 193.874 191.204C193.133 191.68 192.401 192.166 191.675 192.664C190.858 193.221 190.027 193.742 189.181 194.253C188.155 194.874 187.153 195.521 186.164 196.199C185.414 196.712 184.654 197.207 183.888 197.695C183.02 198.248 182.162 198.811 181.312 199.391C180.272 200.1 179.218 200.785 178.158 201.464C177.35 201.984 176.553 202.516 175.76 203.059C174.948 203.615 174.124 204.136 173.276 204.636C172.382 205.164 171.532 205.733 170.692 206.343C169.674 207.083 168.629 207.752 167.551 208.4C166.234 209.194 164.97 210.062 163.704 210.935C162.151 212.004 160.567 213.019 158.973 214.025C157.771 214.785 156.577 215.553 155.404 216.357C154.571 216.928 153.722 217.472 152.87 218.015C152.105 218.503 151.352 219.007 150.604 219.52C149.785 220.08 148.954 220.606 148.1 221.11C147.206 221.638 146.356 222.207 145.516 222.818C144.497 223.557 143.453 224.227 142.375 224.874C141.478 225.414 140.609 225.987 139.746 226.579C138.886 227.167 138.011 227.73 137.132 228.29C136.367 228.778 135.615 229.282 134.866 229.795C134.048 230.356 133.217 230.882 132.362 231.386C131.468 231.914 130.618 232.483 129.778 233.093C128.76 233.832 127.715 234.502 126.637 235.149C125.74 235.69 124.871 236.262 124.008 236.854C123.258 237.367 122.499 237.862 121.732 238.35C120.865 238.903 120.007 239.466 119.157 240.046C118.109 240.76 117.047 241.45 115.98 242.134C115.239 242.611 114.507 243.096 113.781 243.595C112.965 244.152 112.133 244.673 111.288 245.183C110.043 245.937 108.835 246.734 107.636 247.558C104.293 249.856 100.879 252.049 97.4654 254.241L97.1232 254.461C95.9832 255.194 94.8457 255.929 93.7258 256.692C92.9582 257.216 92.1797 257.714 91.3889 258.201C90.9674 258.466 90.5557 258.742 90.1445 259.022C88.8658 259.894 87.5666 260.735 86.2676 261.575L85.4646 262.095L84.5964 262.659C82.4361 264.061 82.4333 264.063 81.3664 264.749C80.0817 265.575 78.8031 266.413 77.5409 267.273C76.8485 267.741 76.1448 268.192 75.441 268.643L75.105 268.858C74.2916 269.381 73.4886 269.917 72.6909 270.464C71.8791 271.02 71.0542 271.541 70.2067 272.041C69.3123 272.569 68.4627 273.138 67.6223 273.748C66.6041 274.487 65.5598 275.157 64.4813 275.804C63.5846 276.345 62.716 276.917 61.8526 277.509C61.1028 278.022 60.3432 278.517 59.5768 279.005C58.0994 279.947 56.6492 280.927 55.2067 281.921C54.5165 282.394 53.8347 282.851 53.0957 283.244C52.3333 283.658 51.6441 284.153 50.9429 284.66C50.0459 285.309 49.1444 285.896 48.1772 286.437C47.3799 286.904 46.6194 287.428 45.8589 287.953L45.5014 288.199C44.0368 289.204 42.5632 290.193 41.0659 291.149C40.1196 291.753 39.1778 292.364 38.2371 292.977L34.0857 295.681C33.3489 296.161 32.6116 296.64 31.8731 297.117C30.6431 297.911 29.415 298.707 28.2048 299.532C26.8081 300.483 25.39 301.402 23.9716 302.321L22.4475 303.31C21.3686 304.01 20.2898 304.71 19.2079 305.406C17.9373 306.223 16.6754 307.049 15.4271 307.9C14.6303 308.439 13.8223 308.961 13.0144 309.483L12.5502 309.783C11.5091 310.458 10.4769 311.145 9.46162 311.859C8.94426 312.216 8.47066 312.478 7.86309 312.646C7.26369 311.998 6.80011 311.334 6.3612 310.568C5.7373 309.506 5.05809 308.499 4.32954 307.505C3.79825 306.776 3.31715 306.026 2.84431 305.258C2.55085 304.788 2.24743 304.327 1.93999 303.867L1.62988 303.4L0.995308 302.454L0.689005 301.991L0.412471 301.578C0.186092 301.15 0.122395 300.818 0.0901925 300.338C1.43295 299.411 2.78893 298.515 4.18157 297.663C5.24947 297.01 6.29735 296.337 7.32978 295.629C8.14031 295.074 8.96234 294.539 9.789 294.009C10.8474 293.33 11.8925 292.635 12.9317 291.927C13.4908 291.552 14.0566 291.189 14.6258 290.83C15.4286 290.323 16.2204 289.802 17.005 289.267C18.4958 288.251 20.0096 287.271 21.5236 286.291L24.0206 284.672L31.1906 280.007C32.0299 279.46 32.8706 278.916 33.7128 278.375C34.6751 277.756 35.6334 277.133 36.5792 276.489C38.1041 275.451 39.6564 274.454 41.2086 273.457L41.8042 273.074C42.895 272.372 43.9841 271.67 45.0562 270.94C46.2833 270.105 47.5285 269.297 48.774 268.49L49.3214 268.135C50.1557 267.592 50.9882 267.048 51.821 266.503C53.7138 265.267 55.6121 264.039 57.5144 262.817C58.6212 262.105 59.7259 261.392 60.8136 260.651C62.5066 259.499 64.2316 258.393 65.9577 257.291C67.1367 256.538 68.3052 255.774 69.461 254.986C70.4068 254.343 71.3674 253.724 72.33 253.107C73.0709 252.631 73.8028 252.145 74.5289 251.646C75.3451 251.09 76.177 250.569 77.0222 250.058C78.0489 249.437 79.0504 248.79 80.0399 248.112C80.7897 247.599 81.5493 247.103 82.3158 246.616C83.1832 246.063 84.0414 245.5 84.8911 244.92C85.9387 244.206 87.0006 243.516 88.0678 242.831C88.8087 242.355 89.5406 241.869 90.2667 241.371C91.0829 240.814 91.9148 240.293 92.76 239.782C94.1099 238.966 95.4145 238.094 96.7141 237.2C97.9881 236.33 99.2712 235.479 100.573 234.65C101.343 234.158 102.101 233.651 102.855 233.134C103.673 232.573 104.504 232.048 105.359 231.544C106.386 230.937 107.36 230.273 108.323 229.568C109.054 229.034 109.807 228.551 110.578 228.076C111.259 227.652 111.931 227.213 112.602 226.774L112.78 226.657C113.869 225.946 114.961 225.238 116.058 224.538C117.007 223.932 117.941 223.308 118.872 222.674C119.817 222.031 120.778 221.412 121.741 220.795C122.481 220.319 123.213 219.833 123.939 219.335C124.756 218.778 125.588 218.257 126.433 217.746C127.459 217.126 128.46 216.479 129.448 215.801C130.218 215.274 130.999 214.766 131.785 214.264C132.472 213.826 133.158 213.387 133.831 212.927C134.557 212.43 135.296 211.955 136.036 211.479L136.092 211.443C136.971 210.879 137.844 210.309 138.707 209.721C139.9 208.909 141.111 208.126 142.324 207.343L142.686 207.109C143.467 206.604 144.247 206.095 145.027 205.587L145.398 205.345C146.14 204.862 146.883 204.379 147.628 203.898C148.973 203.029 150.313 202.153 151.637 201.251C152.715 200.519 153.811 199.815 154.908 199.111L155.166 198.945C155.806 198.533 156.444 198.119 157.081 197.705L157.216 197.617C158.032 197.088 158.848 196.558 159.667 196.032C160.759 195.33 161.849 194.628 162.922 193.897C163.847 193.267 164.783 192.653 165.722 192.043C167.068 191.169 168.413 190.293 169.755 189.413L170.611 188.853C171.724 188.123 172.829 187.382 173.927 186.631C174.458 186.279 175 185.955 175.549 185.633C176.022 185.338 176.49 185.035 176.958 184.732L177.354 184.476C178.3 183.863 179.236 183.235 180.168 182.6C180.96 182.061 181.767 181.55 182.579 181.042C183.167 180.667 183.744 180.278 184.32 179.885C185.513 179.073 186.723 178.292 187.939 177.516L189.821 176.309L190.204 176.062C190.941 175.586 191.67 175.099 192.394 174.603C193.211 174.046 194.043 173.525 194.888 173.014C196.133 172.261 197.341 171.464 198.54 170.64C201.883 168.342 205.298 166.149 208.711 163.956L209.053 163.737C210.153 163.03 211.251 162.321 212.332 161.585C213.422 160.843 214.525 160.124 215.632 159.407C216.484 158.855 217.334 158.299 218.181 157.739L218.723 157.381L219.766 156.69L220.242 156.376L220.664 156.096C220.827 156.003 220.917 155.952 221.012 155.918C221.128 155.877 221.253 155.86 221.529 155.824C221.085 154.993 220.618 154.192 220.08 153.419C219.433 152.48 218.851 151.507 218.268 150.528C217.849 149.822 217.639 149.468 217.421 149.121C217.203 148.773 216.977 148.43 216.524 147.745C215.247 145.905 214.143 143.93 213.09 141.956C212.722 141.285 212.334 140.628 211.945 139.97L211.929 139.944C211.228 138.757 210.566 137.555 209.927 136.334C209.796 136.075 209.738 135.96 209.671 135.851C209.619 135.766 209.561 135.684 209.458 135.537C208.117 136.318 206.814 137.126 205.558 138.037C204.681 138.673 203.797 139.245 202.851 139.774C201.991 140.278 201.17 140.847 200.35 141.414L199.852 141.758C198.174 142.912 197.675 143.255 197.157 143.564C196.937 143.695 196.715 143.819 196.398 143.997C195.614 144.438 194.893 144.938 194.166 145.465C193.135 146.213 192.078 146.893 190.986 147.549C190.097 148.084 189.236 148.651 188.38 149.238C187.564 149.796 186.737 150.335 185.905 150.868C184.832 151.556 183.774 152.261 182.721 152.979C182.28 153.274 181.834 153.557 181.382 153.835C180.687 154.263 180.01 154.713 179.336 155.173C177.936 156.126 176.514 157.047 175.09 157.965L171.682 160.165L170.989 160.608C169.802 161.366 168.625 162.136 167.461 162.93C166.515 163.573 165.554 164.191 164.592 164.809C163.851 165.285 163.119 165.771 162.393 166.269C161.58 166.824 160.751 167.339 159.909 167.846C158.952 168.422 158.032 169.029 157.128 169.686C156.117 170.421 155.078 171.086 154.007 171.729C153.11 172.269 152.241 172.842 151.378 173.434C150.628 173.947 149.869 174.442 149.102 174.93C147.625 175.871 146.175 176.851 144.732 177.846C144.042 178.319 143.36 178.775 142.621 179.169C141.859 179.582 141.169 180.077 140.468 180.585C139.571 181.234 138.67 181.82 137.703 182.361C136.776 182.904 135.893 183.518 135.011 184.131L134.418 184.542C132.867 185.61 131.284 186.624 129.691 187.63C128.489 188.389 127.295 189.157 126.122 189.962C125.289 190.532 124.441 191.076 123.59 191.618C122.808 192.117 122.038 192.631 121.272 193.153C120.475 193.696 119.67 194.221 118.848 194.727C116.61 196.124 114.398 197.572 112.242 199.092L111.942 199.301L111.123 199.877C110.647 200.155 110.342 200.249 109.797 200.271C108.83 198.942 107.892 197.627 107.091 196.189C106.745 195.611 106.361 195.071 105.965 194.527C105.396 193.745 104.857 192.958 104.355 192.13C104.093 191.707 103.825 191.29 103.552 190.874L103.285 190.466L102.751 189.656L102.504 189.279L102.281 188.94C102.212 188.816 102.172 188.742 102.143 188.664C102.102 188.551 102.086 188.43 102.047 188.132L102.577 187.793C103.303 187.331 103.679 187.091 104.042 186.855C104.404 186.619 104.764 186.379 105.481 185.901C106.208 185.404 106.958 184.921 107.699 184.445L107.752 184.411C108.637 183.842 109.517 183.268 110.386 182.676C111.37 182.005 112.369 181.36 113.371 180.717C114.117 180.237 114.854 179.748 115.585 179.246C116.402 178.689 117.233 178.168 118.079 177.657C119.098 177.042 120.092 176.4 121.074 175.727C121.889 175.169 122.717 174.63 123.549 174.096C124.599 173.422 125.636 172.733 126.667 172.03C127.418 171.527 128.189 171.034 128.951 170.548C129.528 170.179 130.102 169.807 130.667 169.42C131.395 168.922 132.137 168.446 132.879 167.969L132.928 167.937C133.806 167.372 134.68 166.803 135.543 166.215C137.236 165.062 138.961 163.957 140.687 162.854C141.897 162.082 143.094 161.296 144.281 160.488C144.973 160.018 145.674 159.569 146.387 159.131C148.105 158.058 149.802 156.948 151.477 155.807C152.85 154.871 154.248 153.974 155.647 153.077L155.705 153.039C157.255 152.044 158.799 151.044 160.321 150.007C161.023 149.532 161.736 149.075 162.448 148.619L162.781 148.405C163.527 147.925 164.265 147.436 164.996 146.934C165.812 146.378 166.644 145.856 167.489 145.346C168.508 144.73 169.503 144.088 170.485 143.415C171.294 142.861 172.114 142.327 172.94 141.797C173.976 141.133 175.001 140.454 176.018 139.76C176.877 139.176 177.749 138.616 178.624 138.059C179.389 137.57 180.142 137.066 180.891 136.553C181.709 135.992 182.54 135.467 183.394 134.963C184.289 134.435 185.139 133.866 185.979 133.255C186.997 132.516 188.041 131.846 189.12 131.199C190.017 130.658 190.885 130.086 191.749 129.494C192.498 128.981 193.258 128.486 194.024 127.998C195.502 127.057 196.952 126.076 198.394 125.082C199.237 124.505 200.082 123.971 200.979 123.484C201.353 123.272 201.703 123.041 202.056 122.796C202.415 122.553 202.539 122.469 202.676 122.428C202.749 122.406 202.825 122.396 202.941 122.381C202.502 121.209 202.012 120.067 201.493 118.929C200.736 117.266 200.05 115.577 199.37 113.881C199.158 113.358 198.94 112.839 198.722 112.319C197.352 109.003 196.118 105.636 194.932 102.251C194.779 101.817 194.623 101.383 194.465 100.95C193.747 98.9713 193.139 96.9616 192.532 94.9462C192.256 94.0308 191.973 93.118 191.684 92.2066C191.084 90.31 190.531 88.4041 190.012 86.4837L189.851 85.89C189.194 83.4617 188.555 81.0322 188.012 78.5754C187.92 78.1601 187.818 77.7575 187.7 77.3481C187.473 76.5161 187.303 75.6734 187.132 74.8288L187.07 74.523L186.831 73.3555L186.725 72.8365C186.624 72.3581 186.516 71.8823 186.406 71.406C186.147 70.2602 185.94 69.1058 185.734 67.9495L185.67 67.5962C184.221 59.4974 183.069 51.4157 182.329 43.2198L182.293 42.8208C182.039 40.0179 181.802 37.2223 181.752 34.4068C181.738 33.7428 181.698 33.0797 181.659 32.4166L181.637 32.0418C181.434 28.2515 181.394 24.4654 181.437 20.6705L181.451 19.1015C181.465 17.2058 181.511 15.3135 181.589 13.4194L181.615 12.7681C181.76 9.12959 181.808 7.93808 181.893 6.74926C181.934 6.17039 181.985 5.59215 182.06 4.73235C182.103 4.21342 182.143 3.69425 182.183 3.17497C182.441 -0.18326 182.727 -3.53899 183.221 -6.87202C183.36 -7.82001 183.47 -8.76936 183.573 -9.72187C183.751 -11.3324 183.999 -12.9262 184.27 -14.5234C184.345 -14.9677 184.417 -15.4125 184.488 -15.8574C185.215 -20.3754 186.025 -24.8883 187.068 -29.3448L187.223 -30.0248L188.471 -35.3868C188.816 -36.8588 189.21 -38.3118 189.627 -39.7651L190.338 -42.3155L190.517 -42.9633C190.82 -44.0451 191.144 -45.1079 191.518 -46.1667C191.586 -46.4195 191.649 -46.6733 191.706 -46.9285C191.989 -48.0696 192.357 -49.185 192.725 -50.3006L192.902 -50.8391L193.394 -52.364C193.914 -53.9816 194.44 -55.5925 195.051 -57.1784C195.356 -57.9704 195.634 -58.7692 195.906 -59.573C196.287 -60.6953 196.72 -61.7834 197.178 -62.8769C197.467 -63.5824 197.711 -64.3013 197.955 -65.0233C198.283 -65.9929 198.645 -66.9218 199.09 -67.8432C199.58 -68.9333 200.031 -70.0347 200.456 -71.1514C200.725 -71.8564 201.004 -72.5577 201.282 -73.259L201.618 -73.3032L201.677 -73.7489C201.82 -74.3498 202.023 -74.7611 202.322 -75.2918C202.563 -75.748 202.745 -76.2215 202.929 -76.7013L202.978 -76.8282C203.166 -77.3114 203.36 -77.7912 203.56 -78.2694L203.752 -78.7333L203.934 -79.0771L204.27 -79.1214L204.292 -79.4291C204.351 -79.8239 204.455 -80.0897 204.634 -80.4443L204.81 -80.7973L204.995 -81.1608L205.175 -81.5197L205.529 -82.2219C205.798 -82.7461 205.933 -83.0082 206.052 -83.2768C206.172 -83.545 206.276 -83.8199 206.485 -84.3692L206.821 -84.4134L206.909 -84.7989C207.046 -85.2972 207.206 -85.7431 207.44 -86.2039L207.776 -86.2482L207.782 -86.5267C207.882 -87.0951 208.113 -87.538 208.394 -88.0387L208.73 -88.0829L208.73 -88.3546C208.835 -88.909 209.097 -89.3646 209.372 -89.8435L209.452 -89.9831L209.867 -90.724L210.091 -91.1224C210.472 -91.7997 210.847 -92.4799 211.223 -93.1601L211.327 -93.349L211.577 -93.8001C212.086 -94.7213 212.578 -95.6474 213.039 -96.5939L213.213 -96.8765L213.549 -96.9207L213.482 -97.4247C213.648 -97.6477 213.815 -97.8695 213.99 -98.0846C214.358 -98.5677 214.655 -99.0977 214.951 -99.6273L215.118 -99.926L215.352 -100.335C215.711 -100.963 216.061 -101.594 216.397 -102.234C216.7 -102.796 217.046 -103.25 217.434 -103.756C217.905 -104.502 218.37 -105.254 218.778 -106.036L218.972 -106.351L219.308 -106.395L219.384 -106.677C219.607 -107.241 219.928 -107.724 220.261 -108.225L220.335 -108.336C220.616 -108.762 220.757 -108.976 220.888 -109.195C221.02 -109.414 221.142 -109.638 221.386 -110.087L221.722 -110.131L221.82 -110.449C221.969 -110.845 222.139 -111.141 222.376 -111.488L222.641 -111.877L223.409 -112.969L223.643 -113.299L224.109 -113.952C224.434 -114.407 224.719 -114.841 224.967 -115.344L225.303 -115.388L225.55 -116.104L225.886 -116.148L225.975 -116.448C226.273 -117.228 226.737 -117.92 227.279 -118.553L227.615 -118.598L227.699 -118.902C227.896 -119.399 228.162 -119.755 228.487 -120.18L228.882 -120.698L229.31 -121.254L229.748 -121.826L230.667 -123.02L233.183 -126.302L234.139 -127.544C234.298 -127.724 234.37 -127.804 234.459 -127.848C234.53 -127.882 234.613 -127.893 234.763 -127.913L234.718 -128.249C234.964 -128.514 235.216 -128.774 235.47 -129.032C235.829 -129.487 236.175 -129.949 236.515 -130.419C236.662 -130.596 236.728 -130.676 236.813 -130.72C236.883 -130.756 236.966 -130.767 237.119 -130.787L237.22 -131.313L237.556 -131.357L237.658 -131.883C237.909 -132.176 238.173 -132.459 238.443 -132.734C238.896 -133.198 239.314 -133.648 239.705 -134.167C239.903 -134.42 239.983 -134.521 240.087 -134.571C240.157 -134.605 240.238 -134.616 240.372 -134.633L240.328 -134.969C240.781 -135.496 240.924 -135.663 241.105 -135.733C241.189 -135.766 241.281 -135.778 241.415 -135.796L241.517 -136.322L241.853 -136.366L241.809 -136.702C241.946 -136.866 242.023 -136.958 242.102 -137.046C242.199 -137.154 242.301 -137.259 242.528 -137.491L242.934 -137.914C243.12 -138.087 243.214 -138.176 243.319 -138.249C243.428 -138.324 243.549 -138.383 243.794 -138.502L243.75 -138.838C244.073 -139.203 244.194 -139.338 244.344 -139.403C244.433 -139.441 244.533 -139.454 244.691 -139.475L244.793 -140.001C244.953 -140.168 245.039 -140.258 245.129 -140.346C245.236 -140.45 245.347 -140.549 245.589 -140.768C246.201 -141.321 246.694 -141.883 247.193 -142.538C247.518 -142.896 247.857 -143.238 248.199 -143.579L248.464 -143.849C248.913 -144.299 249.052 -144.438 249.22 -144.497C249.295 -144.524 249.375 -144.535 249.492 -144.55L249.594 -145.076C249.928 -145.435 250.265 -145.773 250.622 -146.109L251.28 -146.74L251.638 -147.082C252.042 -147.471 252.441 -147.864 252.839 -148.259L253.253 -148.669L254.061 -149.471L254.434 -149.839L254.766 -150.169C254.91 -150.293 254.98 -150.353 255.06 -150.388C255.134 -150.42 255.218 -150.431 255.38 -150.452L255.336 -150.788L255.84 -150.855L255.796 -151.191C256.051 -151.451 256.321 -151.697 256.595 -151.937L257.148 -152.428L257.455 -152.7C257.902 -153.099 258.343 -153.505 258.784 -153.911L258.841 -153.963C261.451 -156.367 264.089 -158.734 266.817 -161.003C267.27 -161.38 267.497 -161.569 267.719 -161.762C267.94 -161.956 268.157 -162.155 268.592 -162.553C269.076 -163.014 269.598 -163.402 270.138 -163.794C271.13 -164.524 272.082 -165.309 273.032 -166.093L273.54 -166.511C274.051 -166.917 274.57 -167.306 275.095 -167.692C275.726 -168.16 276.345 -168.641 276.965 -169.123L277.281 -169.368C278.785 -170.53 280.329 -171.633 281.887 -172.72C282.917 -173.441 283.945 -174.164 284.965 -174.899C287.925 -177.024 290.988 -179.02 294.106 -180.905C294.843 -181.352 295.559 -181.822 296.268 -182.313C296.748 -182.63 297.248 -182.904 297.752 -183.18L297.804 -183.208C298.214 -183.439 298.61 -183.684 299.007 -183.936C301.064 -185.231 303.202 -186.396 305.349 -187.532L306.338 -188.056C306.973 -188.394 307.598 -188.745 308.217 -189.112C309.287 -189.739 310.392 -190.293 311.501 -190.848L314.248 -192.231C315.174 -192.697 316.103 -193.153 317.035 -193.605C317.507 -193.834 317.977 -194.066 318.447 -194.298C320.121 -195.122 321.798 -195.917 323.522 -196.632C324.477 -197.029 325.423 -197.449 326.368 -197.869L326.776 -198.05C328.914 -198.996 331.08 -199.863 333.256 -200.715L334.471 -201.192C337.448 -202.362 340.436 -203.474 343.464 -204.503L344.715 -204.934C345.609 -205.244 346.503 -205.534 347.413 -205.796C348.298 -206.052 349.172 -206.332 350.045 -206.625C352.319 -207.386 354.61 -208.02 356.931 -208.617C357.826 -208.849 358.708 -209.108 359.591 -209.382C360.361 -209.615 361.138 -209.81 361.919 -210.004L362.47 -210.14L365.075 -210.778C373.03 -212.73 381.034 -214.081 389.153 -215.129ZM418.344 -95.2223C418.849 -95.2081 419.353 -95.2176 419.857 -95.2272L420.044 -95.2307C421.566 -95.2471 423.079 -95.1485 424.597 -95.0494C425.043 -95.0227 425.488 -95.0034 425.934 -94.9847C427.113 -94.9284 428.286 -94.8102 429.46 -94.6918L429.832 -94.6546C431.47 -94.4904 433.104 -94.3138 434.733 -94.0776L435.535 -93.9681C439.646 -93.3956 443.699 -92.5457 447.718 -91.5144L448.272 -91.3727C453.257 -90.0829 458.115 -88.3899 462.904 -86.5066C463.003 -85.7568 462.869 -85.5785 462.451 -85.0229L462.409 -84.9664L462.14 -84.6203L461.858 -84.249C461.545 -83.8371 461.23 -83.4273 460.914 -83.0175L460.241 -82.1347C459.631 -81.3343 459.018 -80.5356 458.405 -79.7375L456.874 -77.7391C455.603 -76.0776 454.329 -74.418 453.054 -72.7592C451.947 -71.3175 450.842 -69.8735 449.739 -68.4284C448.607 -66.9454 447.473 -65.4641 446.336 -63.9844C445.698 -63.1533 445.06 -62.3215 444.425 -61.4882C443.828 -60.7049 443.228 -59.9237 442.626 -59.1442L441.966 -58.2807C441.668 -57.888 441.366 -57.4982 441.064 -57.1089L440.801 -56.7575C440.554 -56.4444 440.554 -56.4442 440.09 -55.9872C439.837 -55.9621 439.72 -55.9505 439.605 -55.9613C439.506 -55.9706 439.409 -55.9964 439.228 -56.0445L438.888 -56.1279L438.55 -56.2364C434.197 -57.5751 429.651 -58.3322 425.133 -58.8549C424.83 -58.8923 424.527 -58.9343 424.225 -58.9816C422.844 -59.1968 421.47 -59.2384 420.075 -59.2698L418.862 -59.3023C417.986 -59.3257 417.11 -59.3353 416.234 -59.3409L415.728 -59.3457C412.499 -59.3655 409.366 -59.0242 406.175 -58.5845C405.679 -58.5169 405.183 -58.4524 404.686 -58.3879L404.663 -58.3849C400.906 -57.895 397.198 -57.2962 393.587 -56.1137L392.975 -55.9179L391.801 -55.5387C391.385 -55.4038 390.968 -55.2718 390.55 -55.1424C385.868 -53.6691 381.319 -51.6953 377.085 -49.2116C376.634 -48.9496 376.178 -48.6984 375.722 -48.447L375.533 -48.3426C372.918 -46.8679 370.485 -45.2311 368.082 -43.4309L367.649 -43.109C365.873 -41.7888 364.154 -40.4333 362.521 -38.9388L362.259 -38.7004C359.598 -36.2763 357.093 -33.709 354.772 -30.9569C354.567 -30.7164 354.361 -30.4769 354.15 -30.242C353.321 -29.3182 352.559 -28.3472 351.805 -27.3612L351.173 -26.5378C350.41 -25.5446 349.683 -24.5382 349.003 -23.4867L348.591 -22.8716C347.598 -21.38 346.697 -19.8515 345.836 -18.281C345.641 -17.9274 345.444 -17.5754 345.245 -17.2239C344.298 -15.5366 343.458 -13.8098 342.647 -12.0537L342.286 -11.2806L341.939 -10.5292L341.784 -10.1954C339.996 -6.2817 338.7 -2.06957 337.674 2.10254L337.564 2.54836C336.409 7.30255 335.544 12.2823 335.454 17.1838C335.44 17.691 335.415 18.1972 335.39 18.704L335.387 18.7598C334.946 28.1233 336.505 37.5658 339.247 46.5019L339.419 47.0661C339.57 47.5595 339.724 48.0521 339.879 48.5443L340.009 48.9614C340.269 49.763 340.579 50.5237 340.932 51.2884C341.149 51.7637 341.354 52.243 341.557 52.7242C342.67 55.3411 343.871 57.8947 345.181 60.4186L345.357 60.7615C346.486 62.9443 347.873 64.9807 349.263 67.0034L349.793 67.7775C352.586 71.8721 355.757 75.5727 359.258 79.0739L359.535 79.3513C362.847 82.6577 366.464 85.8992 370.411 88.4295C370.946 88.7774 371.465 89.1474 371.985 89.5174C372.084 89.5879 372.183 89.6583 372.282 89.7287C372.869 90.1192 373.468 90.4752 374.078 90.8284C374.489 91.0674 374.899 91.3106 375.307 91.5555C376.907 92.51 378.513 93.4093 380.2 94.2002C380.621 94.3989 381.041 94.6016 381.46 94.8045L381.495 94.8212C385.428 96.7063 389.539 98.2847 393.734 99.4873L394.097 99.5917C395.95 100.122 397.805 100.592 399.697 100.964L400.214 101.069L400.951 101.223C403.104 101.667 405.256 101.955 407.442 102.179C407.963 102.234 408.483 102.295 409.003 102.357C419.609 103.576 430.675 102.104 440.83 98.9269L441.58 98.7007C442.846 98.3115 444.059 97.829 445.271 97.2998C445.96 96.9993 446.651 96.7207 447.359 96.4663C451.166 95.0949 454.767 93.0498 458.244 90.9945L458.616 90.7755C460.785 89.4888 462.818 88.0498 464.835 86.5377L465.432 86.0966C469.854 82.7954 473.967 78.9535 477.497 74.7111C477.715 74.4537 477.932 74.1969 478.158 73.947C479.083 72.9217 479.918 71.8317 480.756 70.7356L481.516 69.7469C482.347 68.6636 483.156 67.5772 483.892 66.4255L484.268 65.8587C486.851 61.8926 488.996 57.7036 490.89 53.3699L491.097 52.9029C491.49 52.0135 491.845 51.1253 492.15 50.2025C492.455 49.2944 492.777 48.3952 493.119 47.5004C493.545 46.389 493.913 45.3144 494.139 44.1425C494.235 43.6827 494.365 43.2468 494.508 42.7995C494.944 41.405 495.281 39.9875 495.606 38.5639L495.688 38.2073C496.116 36.2951 496.371 34.3577 496.623 32.4162L496.673 32.0373C496.874 30.4954 497.026 28.9611 497.111 27.4082C497.132 27.1259 497.141 27.0032 497.168 26.885C497.188 26.7948 497.218 26.7069 497.272 26.5521C497.279 26.1852 497.28 25.8181 497.276 25.4512C497.271 24.5924 497.282 23.7381 497.315 22.88C497.384 20.9794 497.298 19.1042 497.174 17.2078L497.119 16.3119L496.793 11.2335C493.723 13.202 490.705 15.2461 487.685 17.2908L462.918 34.0494C462.157 34.5642 461.388 35.0632 460.612 35.5549C459.525 36.2502 458.466 36.9759 457.418 37.7285C455.665 38.9871 453.865 40.1687 452.048 41.3319C451.169 41.8979 450.317 42.4922 449.472 43.108C448.644 43.7079 447.786 44.2559 446.922 44.8024C446.181 45.2737 445.462 45.7672 444.752 46.2843C443.824 46.9606 442.871 47.5844 441.9 48.198C441.159 48.6693 440.44 49.1628 439.731 49.6799C438.911 50.2767 438.076 50.8362 437.22 51.3777C436.37 51.9152 435.541 52.4699 434.728 53.0623C433.855 53.6985 432.961 54.2956 432.051 54.8781C430.373 55.9523 428.715 57.0506 427.097 58.2142C425.799 59.1478 424.474 60.0321 423.129 60.8967C422.286 61.4393 421.45 61.9913 420.62 62.5536L420.29 62.7769C419.117 63.5717 417.945 64.3691 416.774 65.1666C413.865 67.1464 410.954 69.123 408.043 71.0982C406.363 72.238 404.683 73.3787 403.005 74.5216C401.535 75.5229 400.064 76.5225 398.591 77.52C397.813 78.0469 397.036 78.5747 396.26 79.1046C395.532 79.6016 394.803 80.0962 394.073 80.5891L393.271 81.1354C392.908 81.3849 392.542 81.6312 392.176 81.8768L391.857 82.0989C391.193 82.5382 390.756 82.6674 389.966 82.551C389.769 82.4968 389.671 82.4699 389.574 82.4378C389.479 82.4061 389.385 82.3693 389.199 82.2962L388.771 82.1293L388.316 81.9457L387.838 81.755C382.73 79.6927 377.898 77.0499 373.397 73.8772C373.128 73.6903 372.858 73.5042 372.583 73.3268C371.418 72.5736 370.323 71.7302 369.225 70.8845L369.071 70.7661L367.999 69.9443C366.87 69.0787 365.758 68.2093 364.708 67.2476L364.157 66.7594C358.98 62.1491 358.395 61.6274 358.254 61.0053C358.236 60.926 358.226 60.845 358.214 60.7536L402.662 30.6974C403.399 30.1982 404.146 29.7154 404.898 29.2387C405.985 28.5433 407.045 27.8177 408.092 27.0651C409.846 25.8065 411.645 24.6248 413.463 23.4617C414.342 22.8957 415.194 22.3013 416.038 21.6855C416.867 21.0856 417.724 20.5377 418.589 19.9912C419.33 19.5198 420.048 19.0264 420.758 18.5093C421.686 17.833 422.64 17.2092 423.61 16.5956C424.351 16.1242 425.07 15.6307 425.78 15.1136C426.593 14.5216 427.421 13.9661 428.271 13.4291C429.188 12.8499 430.08 12.2463 430.959 11.6119C431.947 10.8992 432.955 10.2317 433.984 9.58129C434.82 9.05012 435.624 8.48446 436.424 7.90145C437.258 7.29827 438.12 6.74631 438.99 6.19642C439.731 5.72505 440.45 5.23157 441.16 4.71446C442.088 4.03819 443.041 3.41438 444.012 2.80079C444.753 2.32942 445.472 1.83592 446.182 1.31881C447.11 0.642555 448.063 0.0187235 449.034 -0.594851C449.775 -1.06623 450.494 -1.55973 451.204 -2.07684C452.023 -2.67359 452.858 -3.23311 453.714 -3.77465C454.551 -4.30373 455.367 -4.84873 456.167 -5.43268C457.157 -6.15536 458.177 -6.82461 459.207 -7.48865C460.218 -8.14016 461.217 -8.79676 462.189 -9.5048C463.297 -10.3111 464.44 -11.0564 465.592 -11.7975C466.421 -12.3312 467.244 -12.8736 468.059 -13.427L509.834 -41.6767C510.734 -42.286 511.647 -42.8725 512.565 -43.4545C513.132 -43.817 513.682 -44.1849 514.213 -44.5987C514.513 -44.825 514.624 -44.9087 514.749 -44.9508C514.823 -44.9755 514.901 -44.9858 515.026 -45.0022L516.855 -42.3169C517.943 -40.7244 518.969 -39.1071 519.951 -37.4471L520.221 -36.9969C521.011 -35.6771 521.791 -34.3634 522.424 -32.9593C522.611 -32.5874 522.809 -32.2536 523.031 -31.9036C523.656 -30.8944 524.173 -29.8273 524.69 -28.7603L524.843 -28.4456L525.028 -28.0643C526.908 -24.1865 528.527 -20.2197 529.855 -16.1189C530.127 -15.2831 530.413 -14.4517 530.703 -13.622C531.69 -10.8027 532.499 -7.9555 533.196 -5.05343C533.305 -4.60147 533.417 -4.15082 533.531 -3.7002C534.515 0.202355 535.045 4.16248 535.567 8.14767L535.622 8.56268C535.726 9.36117 535.83 10.1598 535.931 10.9587L536.026 11.6992C536.178 12.8905 536.313 14.0598 536.29 15.2626C536.305 15.4961 536.322 15.7294 536.346 15.9622L536.419 16.7303C536.675 19.6584 536.84 22.6465 536.579 25.5784C536.523 26.2548 536.502 26.9281 536.484 27.6063C536.292 33.8156 535.454 39.9425 534.323 46.0446L534.116 47.179C533.822 48.7637 533.452 50.3241 533.057 51.886L532.777 53.0159C532.495 54.1518 532.186 55.2593 531.788 56.3599C531.747 56.5027 531.707 56.6454 531.666 56.7882C531.622 56.9445 531.578 57.1008 531.535 57.2575C530.444 61.1682 529.004 64.9851 527.435 68.7256L527.146 69.4248C526.435 71.1366 525.665 72.8102 524.84 74.47L524.276 75.6135C522.796 78.6118 521.212 81.5365 519.436 84.371C519.143 84.8431 518.857 85.3194 518.573 85.7972C518.095 86.5925 517.576 87.3532 517.045 88.114C516.717 88.5978 516.415 89.0915 516.114 89.5924C515.572 90.4798 514.968 91.294 514.328 92.1112C513.939 92.6078 513.568 93.1051 513.228 93.6362C512.176 95.2581 510.955 96.8255 509.652 98.2534C509.269 98.6882 508.904 99.1361 508.538 99.5855C507.682 100.637 506.813 101.66 505.871 102.638C505.51 103.017 505.161 103.404 504.814 103.795C503.56 105.203 502.21 106.509 500.854 107.817C500.645 108.019 500.436 108.222 500.229 108.425C500.127 108.524 500.026 108.623 499.925 108.723C497.442 111.152 494.791 113.43 492.075 115.595L491.682 115.909C484.817 121.375 477.308 126.103 469.376 129.857C468.888 130.089 468.401 130.323 467.915 130.558C465.999 131.478 464.057 132.29 462.071 133.046L460.984 133.467L460.575 133.624C460.187 133.788 459.821 133.968 459.446 134.16C458.673 134.539 457.891 134.769 457.061 134.988C456.171 135.223 455.318 135.483 454.467 135.835C453.293 136.311 452.081 136.619 450.857 136.93L450.802 136.944L449.772 137.21L448.845 137.448C448.524 137.535 448.205 137.629 447.89 137.737C447.461 137.882 447.037 137.978 446.592 138.069L446.057 138.18L445.5 138.293L443.829 138.638C443.367 138.739 442.91 138.846 442.451 138.962C439.902 139.599 437.32 139.952 434.719 140.29C434.211 140.356 433.704 140.424 433.198 140.494C429.712 140.974 426.259 141.262 422.742 141.361C422.067 141.38 421.391 141.406 420.716 141.432C420.347 141.446 419.977 141.456 419.608 141.465C419.321 141.472 419.034 141.478 418.747 141.484L418.325 141.495C414.224 141.588 410.112 141.268 406.031 140.883L405.476 140.831C404.624 140.746 404.354 140.718 404.089 140.664C403.965 140.639 403.844 140.608 403.665 140.562C403.261 140.459 402.893 140.408 402.479 140.379C398.451 140.061 394.396 139.192 390.498 138.152C389.809 137.969 389.119 137.814 388.421 137.669C386.876 137.345 385.376 136.941 383.89 136.408C383.326 136.219 382.758 136.054 382.187 135.89C381.027 135.557 379.916 135.212 378.82 134.702C378.211 134.439 377.588 134.23 376.96 134.018L376.937 134.011C375.898 133.66 374.885 133.276 373.879 132.836C373.385 132.628 372.889 132.436 372.388 132.246C371.321 131.836 370.282 131.377 369.243 130.9L368.669 130.638C364.869 128.885 361.157 126.931 357.582 124.756L357.211 124.532C355.837 123.7 354.479 122.857 353.164 121.932C352.715 121.627 352.256 121.351 351.788 121.075C350.672 120.394 349.652 119.598 348.625 118.791C347.989 118.293 347.352 117.815 346.674 117.375C345.871 116.851 345.175 116.233 344.478 115.575C344.406 115.509 344.35 115.457 344.301 115.414C344.262 115.38 344.228 115.351 344.192 115.323C344.077 115.232 343.951 115.155 343.646 114.969C342.802 115.107 342.148 115.563 341.466 116.038L341.279 116.168L340.879 116.44L339.617 117.304L337.157 118.984C335.579 120.065 334 121.142 332.385 122.166C331.061 123.012 329.782 123.911 328.508 124.828C328.105 125.115 327.7 125.398 327.292 125.678L326.936 125.923C326.796 126.007 326.725 126.049 326.649 126.076C326.571 126.104 326.487 126.115 326.317 126.137L318.219 114.16L317.424 112.99C316.653 111.858 315.9 110.718 315.162 109.565C314.517 108.555 313.846 107.573 313.14 106.605C312.54 105.776 311.992 104.918 311.446 104.054C310.916 103.221 310.353 102.42 309.772 101.623C309.106 100.702 308.494 99.7495 307.887 98.7889C307.408 98.0344 306.901 97.3153 306.354 96.6083C306.253 96.4616 306.203 96.3892 306.173 96.3097C306.144 96.2327 306.133 96.1487 306.111 95.9834C307.599 94.9043 309.105 93.865 310.654 92.8742C312.467 91.7139 314.235 90.4969 315.984 89.2428C316.855 88.6216 317.746 88.0416 318.666 87.4943C318.489 86.9205 318.271 86.4479 317.948 85.9425L317.682 85.5225L317.397 85.0765C315.836 82.6014 314.371 80.1093 313.083 77.481L312.387 76.0703C310.701 72.6644 309.074 69.2422 307.806 65.6546C307.541 64.9071 307.244 64.1886 306.906 63.4716C306.436 62.407 306.098 61.2763 305.762 60.1547C305.705 59.9629 305.648 59.7714 305.59 59.5805C305.552 59.4545 305.514 59.3289 305.475 59.2036C305.218 58.3758 304.959 57.5493 304.689 56.7255C303.977 54.5333 303.431 52.3393 302.973 50.0811L302.849 49.4697C302.676 48.6205 302.504 47.7714 302.335 46.9215L302.218 46.3371L302.116 45.8242C302.021 45.3712 301.915 44.9238 301.805 44.4742C301.59 43.5618 301.451 42.6459 301.325 41.7174L301.25 41.177L301.016 39.4328L300.935 38.8271C300.215 33.3426 299.831 27.8287 299.828 22.2957L299.826 21.7948C299.822 20.1858 299.85 18.6 300.031 16.9997C300.09 16.3904 300.111 15.7859 300.129 15.1741C300.334 9.66527 301.149 4.09086 302.364 -1.28134L302.478 -1.79494C303.038 -4.31998 303.677 -6.81892 304.368 -9.31095C304.476 -9.70142 304.582 -10.0923 304.687 -10.4837C305.114 -12.0542 305.635 -13.5833 306.183 -15.1147L306.374 -15.6539C307.975 -20.1685 309.741 -24.5742 311.893 -28.8554L312.087 -29.2435C314.538 -34.1444 317.244 -38.9013 320.372 -43.4052C320.586 -43.7122 320.797 -44.0204 321.006 -44.3298C321.647 -45.2746 322.313 -46.1888 323.021 -47.0845C323.154 -47.2539 323.227 -47.347 323.29 -47.4469C323.366 -47.5689 323.426 -47.701 323.559 -47.9945L323.895 -48.0388L323.97 -48.3377C324.184 -48.8544 324.492 -49.2062 324.852 -49.6183L324.926 -49.7019C325.605 -50.4892 326.247 -51.2948 326.871 -52.1264C327.549 -53.0242 328.266 -53.8506 329.05 -54.6591C329.495 -55.1315 329.907 -55.6253 330.318 -56.1265C331.174 -57.163 332.096 -58.1182 333.046 -59.0684C333.362 -59.3866 333.675 -59.7076 333.988 -60.0291C336.349 -62.4521 338.838 -64.7192 341.405 -66.9218L341.746 -67.2149C346.814 -71.5435 352.495 -76.0102 358.448 -79.0613C358.888 -79.2958 359.303 -79.5486 359.722 -79.8173C360.642 -80.3956 361.586 -80.9154 362.547 -81.4229L363.057 -81.694C364.061 -82.2228 365.066 -82.7259 366.104 -83.1831C366.635 -83.4202 367.154 -83.6767 367.674 -83.9352C370.897 -85.5144 374.221 -86.8437 377.584 -88.0919L378.091 -88.2801C380.942 -89.33 383.848 -90.1878 386.771 -91.0104L387.296 -91.1583C388.261 -91.427 389.229 -91.6772 390.202 -91.914C390.566 -92.0034 390.93 -92.0953 391.293 -92.1893C399.906 -94.3992 409.46 -95.5663 418.344 -95.2223ZM278.805 72.9145L278.975 73.1782L278.989 73.1996C279.673 74.2612 280.017 74.7954 280.366 75.3268C280.718 75.8616 281.074 76.3934 281.785 77.4571C283.44 79.8875 285.04 82.3532 286.534 84.8858L286.036 85.2024C284.901 85.9265 283.771 86.656 282.658 87.4149C281.517 88.1924 280.362 88.9469 279.203 89.6986C277.954 90.5096 276.707 91.3257 275.462 92.1435C273.881 93.1817 272.299 94.2175 270.715 95.2503C269.842 95.8195 268.971 96.3905 268.101 96.9641C266.137 98.2582 264.166 99.5368 262.169 100.78C261.19 101.392 260.227 102.021 259.275 102.674C258.482 103.217 257.677 103.74 256.869 104.258C255.957 104.844 255.051 105.436 254.156 106.047C253.021 106.82 251.872 107.57 250.72 108.317C249.471 109.128 248.224 109.944 246.979 110.762C245.399 111.8 243.816 112.836 242.232 113.869C240.968 114.694 239.705 115.522 238.443 116.351C236.943 117.336 235.441 118.317 233.937 119.295C232.624 120.149 231.315 121.008 230.006 121.867C228.683 122.736 227.358 123.603 226.032 124.469C224.711 125.33 223.393 126.193 222.075 127.058L218.984 129.087C216.952 130.422 214.911 131.74 212.847 133.024C211.982 133.565 211.159 134.119 210.372 134.768C210.22 134.855 210.143 134.9 210.06 134.924C209.975 134.95 209.884 134.955 209.699 134.965C209.576 134.928 209.499 134.904 209.433 134.863C209.323 134.794 209.245 134.675 209.035 134.357C208.912 134.117 208.792 133.876 208.674 133.633L208.47 133.229L208.021 132.327C207.758 131.796 207.49 131.267 207.221 130.739C204.694 125.748 204.108 124.592 203.666 123.383C203.532 123.019 203.412 122.65 203.255 122.169C204.632 121.228 206.018 120.303 207.419 119.399C208.389 118.773 209.355 118.142 210.308 117.491C211.635 116.587 212.982 115.714 214.328 114.841L214.723 114.585L217.603 112.708C218.779 111.939 219.954 111.169 221.129 110.398L224.215 108.373C226.111 107.128 228.015 105.897 229.932 104.685C231.195 103.887 232.451 103.083 233.683 102.238C234.472 101.697 235.274 101.178 236.079 100.661C236.931 100.114 237.778 99.5625 238.615 98.9921C239.692 98.2585 240.784 97.5482 241.877 96.8385C243.132 96.0237 244.384 95.2041 245.635 94.3827C247.056 93.4493 248.478 92.5174 249.902 91.5884C251.223 90.7272 252.542 89.8638 253.859 88.9986L256.951 86.9698C258.965 85.6467 260.991 84.3442 263.031 83.0621C264.062 82.4127 265.081 81.7497 266.085 81.0606C266.873 80.5212 267.673 80.0023 268.476 79.4869C269.388 78.9017 270.294 78.3091 271.189 77.6985C272.67 76.6891 274.174 75.7148 275.679 74.7416L276.491 74.215L278.046 73.21C278.295 73.0621 278.398 73.0012 278.508 72.9672C278.586 72.9434 278.667 72.9327 278.805 72.9145ZM330.888 131.002C331.018 131.163 331.09 131.253 331.158 131.346C331.244 131.464 331.323 131.587 331.503 131.866L331.867 132.425L332.256 133.033L332.658 133.654C333.644 135.18 334.614 136.716 335.578 138.255C336.255 139.332 336.948 140.394 337.676 141.437C337.99 141.89 338.236 142.311 338.427 142.827L337.929 143.144L337.244 143.581L336.921 143.787C336.017 144.364 335.129 144.963 334.242 145.565C333.016 146.396 331.781 147.215 330.545 148.031L330.184 148.27C328.6 149.315 327.007 150.341 325.392 151.336C324.469 151.905 323.567 152.498 322.673 153.111C321.875 153.657 321.065 154.183 320.251 154.706C319.339 155.291 318.433 155.883 317.538 156.494C316.403 157.267 315.254 158.017 314.103 158.764C312.853 159.576 311.607 160.392 310.361 161.209C308.126 162.677 305.887 164.14 303.647 165.601C301.636 166.913 299.627 168.227 297.619 169.545C296.142 170.515 294.663 171.482 293.183 172.448C291.925 173.268 290.669 174.092 289.414 174.916C287.84 175.95 286.264 176.981 284.686 178.01C283.526 178.767 282.367 179.526 281.209 180.287L278.117 182.316C276.103 183.639 274.078 184.941 272.037 186.223C271.006 186.873 269.987 187.536 268.983 188.225C268.195 188.764 267.395 189.283 266.592 189.798C265.68 190.384 264.775 190.976 263.879 191.587C261.576 193.157 259.226 194.659 256.877 196.16L256.285 196.539C254.894 195.306 253.563 194.026 252.257 192.703C251.698 192.136 251.131 191.578 250.561 191.021C249.485 189.968 248.428 188.9 247.391 187.808L247.056 187.456L246.749 187.129L246.478 186.842C246.391 186.739 246.339 186.676 246.293 186.609C246.222 186.505 246.166 186.39 246.023 186.097C247.36 185.108 248.718 184.19 250.143 183.333C251.037 182.793 251.904 182.223 252.765 181.633C253.581 181.075 254.408 180.536 255.24 180.002C256.092 179.455 256.94 178.904 257.776 178.333C258.854 177.6 259.946 176.889 261.039 176.18C261.908 175.616 262.774 175.051 263.638 174.481C265.677 173.138 267.725 171.811 269.794 170.513C270.814 169.871 271.822 169.215 272.816 168.533C273.604 167.993 274.403 167.474 275.207 166.959C276.119 166.374 277.024 165.781 277.919 165.171C279.262 164.256 280.624 163.373 281.986 162.489L282.354 162.251L285.233 160.374C286.604 159.479 287.973 158.58 289.342 157.682C290.819 156.712 292.298 155.745 293.778 154.779C295.036 153.959 296.292 153.135 297.547 152.311C299.456 151.058 301.368 149.808 303.281 148.56L308.692 145.027C310.115 144.098 311.538 143.168 312.963 142.242C314.58 141.19 316.194 140.134 317.807 139.075C319.288 138.102 320.772 137.132 322.257 136.164C323.151 135.58 324.044 134.996 324.936 134.409L326.709 133.243L327.779 132.542C328.148 132.302 328.516 132.059 328.883 131.816L329.439 131.453L329.938 131.124C330.139 131.018 330.245 130.962 330.357 130.943C330.481 130.923 330.612 130.948 330.888 131.002ZM281.955 118.014L281.174 116.867C281.006 116.889 280.922 116.9 280.844 116.929C280.766 116.957 280.694 117.003 280.55 117.095C280.32 117.258 280.086 117.417 279.85 117.572L278.988 118.134C277.411 119.162 275.837 120.192 274.264 121.225C272.812 122.178 271.359 123.13 269.903 124.076C268.537 124.964 267.173 125.857 265.812 126.751C264.56 127.574 263.307 128.395 262.05 129.21C260.898 129.957 259.75 130.707 258.615 131.48C257.72 132.091 256.814 132.683 255.902 133.269C255.104 133.781 254.31 134.296 253.528 134.832C252.383 135.617 251.218 136.368 250.044 137.111C247.11 138.965 244.205 140.863 241.304 142.768C240.139 143.533 238.974 144.296 237.808 145.058C236.23 146.086 234.655 147.118 233.08 148.151C231.963 148.885 230.845 149.619 229.724 150.349C228.122 151.392 226.522 152.437 224.941 153.514C224.391 153.889 223.84 154.263 223.288 154.635L221.843 155.612L222.151 156.097C223.38 158.033 224.613 159.973 226.011 161.793C226.439 162.344 226.858 162.898 227.264 163.466L228.448 165.136L228.838 165.694L229.208 166.214C229.392 166.476 229.473 166.592 229.562 166.704C229.632 166.793 229.707 166.88 229.841 167.035C230.092 167.084 230.236 167.112 230.373 167.092C230.556 167.066 230.727 166.955 231.126 166.697L231.426 166.496C232.273 165.942 233.111 165.375 233.949 164.807C234.87 164.179 235.801 163.568 236.74 162.965C237.543 162.45 238.343 161.931 239.131 161.392C240.135 160.703 241.154 160.04 242.185 159.39C244.225 158.108 246.25 156.806 248.264 155.483L251.376 153.441C252.524 152.687 253.674 151.935 254.826 151.187C255.978 150.439 257.127 149.689 258.262 148.916C259.157 148.306 260.062 147.713 260.974 147.128C261.778 146.612 262.577 146.094 263.365 145.554C264.37 144.865 265.388 144.202 266.419 143.553C268.459 142.271 270.484 140.969 272.498 139.646L275.61 137.603C276.759 136.849 277.908 136.097 279.061 135.349C280.219 134.598 281.374 133.843 282.516 133.065C283.352 132.495 284.198 131.941 285.052 131.396C286.352 130.568 287.629 129.708 288.902 128.839C287.757 126.913 286.544 125.036 285.307 123.169L285.266 123.106C284.625 122.138 283.984 121.171 283.373 120.184C282.986 119.558 282.586 118.942 282.173 118.333L281.955 118.014Z" fill="#0A141E"/>
</svg>
