<svg width="48" height="49" viewBox="0 0 48 49" fill="none" xmlns="http://www.w3.org/2000/svg">
<g filter="url(#filter0_i_24844_27349)">
<rect y="0.5" width="48" height="48" rx="24" fill="#FA1919"/>
<path d="M23.7684 35.1667C22.1362 35.1667 20.6318 34.9113 19.2552 34.4006C17.8982 33.8702 16.7085 33.1237 15.6858 32.1611C14.6829 31.1986 13.8963 30.0691 13.326 28.7726C12.7753 27.4761 12.5 26.0519 12.5 24.5C12.5 22.9481 12.7753 21.5239 13.326 20.2274C13.8963 18.9309 14.6927 17.8014 15.7153 16.8389C16.738 15.8763 17.9376 15.1397 19.3142 14.6289C20.6908 14.0985 22.205 13.8333 23.8569 13.8333C25.6858 13.8333 27.3279 14.1378 28.7832 14.7468C30.2581 15.3557 31.497 16.2397 32.5 17.3987L29.4322 20.2274C28.6849 19.4417 27.8687 18.8622 26.9838 18.489C26.0988 18.0961 25.1352 17.8996 24.0929 17.8996C23.09 17.8996 22.1755 18.0568 21.3496 18.3711C20.5236 18.6854 19.8058 19.1372 19.1962 19.7265C18.6062 20.3158 18.1441 21.0132 17.8097 21.8186C17.4951 22.624 17.3378 23.5178 17.3378 24.5C17.3378 25.4626 17.4951 26.3465 17.8097 27.1519C18.1441 27.9573 18.6062 28.6645 19.1962 29.2735C19.8058 29.8628 20.5138 30.3146 21.3201 30.6289C22.146 30.9432 23.0506 31.1004 24.0339 31.1004C24.9779 31.1004 25.8923 30.953 26.7773 30.6584C27.6819 30.3441 28.557 29.8235 29.4027 29.0967L32.1165 32.5442C30.9956 33.3889 29.6878 34.0371 28.1932 34.489C26.7183 34.9408 25.2434 35.1667 23.7684 35.1667ZM27.7507 31.9254V24.1759H32.1165V32.5442L27.7507 31.9254Z" fill="white"/>
<path d="M21.8333 31.1667H25.5V38.5H21.8333V31.1667Z" fill="white"/>
<path d="M21.8333 10.5H25.5V17.8333H21.8333V10.5Z" fill="white"/>
</g>
<defs>
<filter id="filter0_i_24844_27349" x="0" y="0.5" width="48" height="48" filterUnits="userSpaceOnUse" color-interpolation-filters="sRGB">
<feFlood flood-opacity="0" result="BackgroundImageFix"/>
<feBlend mode="normal" in="SourceGraphic" in2="BackgroundImageFix" result="shape"/>
<feColorMatrix in="SourceAlpha" type="matrix" values="0 0 0 0 0 0 0 0 0 0 0 0 0 0 0 0 0 0 127 0" result="hardAlpha"/>
<feOffset/>
<feGaussianBlur stdDeviation="4"/>
<feComposite in2="hardAlpha" operator="arithmetic" k2="-1" k3="1"/>
<feColorMatrix type="matrix" values="0 0 0 0 0.0392157 0 0 0 0 0.0784314 0 0 0 0 0.117647 0 0 0 0.1 0"/>
<feBlend mode="normal" in2="shape" result="effect1_innerShadow_24844_27349"/>
</filter>
</defs>
</svg>
