<svg width="48" height="48" viewBox="0 0 48 48" fill="none" xmlns="http://www.w3.org/2000/svg">
<g filter="url(#filter0_i_24844_15865)">
<rect width="48" height="48" rx="24" fill="#0A141E"/>
<path d="M23.7684 34.6667C22.1362 34.6667 20.6318 34.4113 19.2552 33.9006C17.8982 33.3702 16.7085 32.6237 15.6858 31.6611C14.6829 30.6986 13.8963 29.5691 13.326 28.2726C12.7753 26.9761 12.5 25.5519 12.5 24C12.5 22.4481 12.7753 21.0239 13.326 19.7274C13.8963 18.4309 14.6927 17.3014 15.7153 16.3389C16.738 15.3763 17.9376 14.6397 19.3142 14.1289C20.6908 13.5985 22.205 13.3333 23.8569 13.3333C25.6858 13.3333 27.3279 13.6378 28.7832 14.2468C30.2581 14.8557 31.497 15.7397 32.5 16.8987L29.4322 19.7274C28.6849 18.9417 27.8687 18.3622 26.9838 17.989C26.0988 17.5961 25.1352 17.3996 24.0929 17.3996C23.09 17.3996 22.1755 17.5568 21.3496 17.8711C20.5236 18.1854 19.8058 18.6372 19.1962 19.2265C18.6062 19.8158 18.1441 20.5132 17.8097 21.3186C17.4951 22.124 17.3378 23.0178 17.3378 24C17.3378 24.9626 17.4951 25.8465 17.8097 26.6519C18.1441 27.4573 18.6062 28.1645 19.1962 28.7735C19.8058 29.3628 20.5138 29.8146 21.3201 30.1289C22.146 30.4432 23.0506 30.6004 24.0339 30.6004C24.9779 30.6004 25.8923 30.453 26.7773 30.1584C27.6819 29.8441 28.557 29.3235 29.4027 28.5967L32.1165 32.0442C30.9956 32.8889 29.6878 33.5371 28.1932 33.989C26.7183 34.4408 25.2434 34.6667 23.7684 34.6667ZM27.7507 31.4254V23.6759H32.1165V32.0442L27.7507 31.4254Z" fill="white"/>
<path d="M21.8333 30.6667H25.5V38H21.8333V30.6667Z" fill="white"/>
<path d="M21.8333 10H25.5V17.3333H21.8333V10Z" fill="white"/>
</g>
<defs>
<filter id="filter0_i_24844_15865" x="0" y="0" width="48" height="48" filterUnits="userSpaceOnUse" color-interpolation-filters="sRGB">
<feFlood flood-opacity="0" result="BackgroundImageFix"/>
<feBlend mode="normal" in="SourceGraphic" in2="BackgroundImageFix" result="shape"/>
<feColorMatrix in="SourceAlpha" type="matrix" values="0 0 0 0 0 0 0 0 0 0 0 0 0 0 0 0 0 0 127 0" result="hardAlpha"/>
<feOffset/>
<feGaussianBlur stdDeviation="4"/>
<feComposite in2="hardAlpha" operator="arithmetic" k2="-1" k3="1"/>
<feColorMatrix type="matrix" values="0 0 0 0 0.0392157 0 0 0 0 0.0784314 0 0 0 0 0.117647 0 0 0 0.1 0"/>
<feBlend mode="normal" in2="shape" result="effect1_innerShadow_24844_15865"/>
</filter>
</defs>
</svg>
