<svg width="32" height="32" viewBox="0 0 32 32" fill="none" xmlns="http://www.w3.org/2000/svg">
<g filter="url(#filter0_i_23987_28047)">
<rect width="32" height="32" rx="16" fill="#0A141E"/>
<path d="M15.9967 24.381C14.7142 24.381 13.5321 24.1803 12.4505 23.779C11.3844 23.3623 10.4495 22.7758 9.64604 22.0195C8.85801 21.2632 8.23995 20.3757 7.79185 19.357C7.35921 18.3383 7.14288 17.2193 7.14288 16C7.14288 14.7807 7.35921 13.6617 7.79185 12.643C8.23995 11.6243 8.86574 10.7368 9.66922 9.98053C10.4727 9.22424 11.4153 8.64544 12.4969 8.24415C13.5785 7.82741 14.7683 7.61905 16.0662 7.61905C17.5032 7.61905 18.7934 7.85828 19.9368 8.33675C21.0957 8.81522 22.0691 9.50978 22.8572 10.4204L20.4467 12.643C19.8596 12.0256 19.2183 11.5703 18.523 11.277C17.8277 10.9683 17.0705 10.814 16.2516 10.814C15.4636 10.814 14.7451 10.9375 14.0961 11.1844C13.4471 11.4314 12.8832 11.7864 12.4042 12.2494C11.9406 12.7124 11.5775 13.2604 11.3148 13.8932C11.0676 14.526 10.944 15.2283 10.944 16C10.944 16.7563 11.0676 17.4508 11.3148 18.0837C11.5775 18.7165 11.9406 19.2721 12.4042 19.7506C12.8832 20.2136 13.4394 20.5686 14.0729 20.8156C14.7219 21.0625 15.4327 21.186 16.2053 21.186C16.9469 21.186 17.6654 21.0702 18.3608 20.8387C19.0715 20.5918 19.7591 20.1828 20.4235 19.6117L22.5559 22.3204C21.6751 22.9841 20.6476 23.4935 19.4733 23.8485C18.3144 24.2035 17.1555 24.381 15.9967 24.381ZM19.1256 21.8343V15.7453H22.5559V22.3204L19.1256 21.8343Z" fill="white"/>
<path d="M14.4762 21.2381H17.3572V27H14.4762V21.2381Z" fill="white"/>
<path d="M14.4762 5H17.3572V10.7619H14.4762V5Z" fill="white"/>
</g>
<defs>
<filter id="filter0_i_23987_28047" x="0" y="0" width="32" height="32" filterUnits="userSpaceOnUse" color-interpolation-filters="sRGB">
<feFlood flood-opacity="0" result="BackgroundImageFix"/>
<feBlend mode="normal" in="SourceGraphic" in2="BackgroundImageFix" result="shape"/>
<feColorMatrix in="SourceAlpha" type="matrix" values="0 0 0 0 0 0 0 0 0 0 0 0 0 0 0 0 0 0 127 0" result="hardAlpha"/>
<feOffset/>
<feGaussianBlur stdDeviation="4"/>
<feComposite in2="hardAlpha" operator="arithmetic" k2="-1" k3="1"/>
<feColorMatrix type="matrix" values="0 0 0 0 0.0392157 0 0 0 0 0.0784314 0 0 0 0 0.117647 0 0 0 0.1 0"/>
<feBlend mode="normal" in2="shape" result="effect1_innerShadow_23987_28047"/>
</filter>
</defs>
</svg>
