<svg width="24" height="24" viewBox="0 0 24 24" fill="none" xmlns="http://www.w3.org/2000/svg">
<rect width="24" height="24" rx="12" fill="white"/>
<path d="M11.9974 18.2857C11.0355 18.2857 10.149 18.1352 9.33778 17.8343C8.53816 17.5217 7.83704 17.0818 7.23443 16.5146C6.6434 15.9474 6.17985 15.2818 5.84378 14.5178C5.5193 13.7537 5.35706 12.9145 5.35706 12C5.35706 11.0855 5.5193 10.2463 5.84378 9.48224C6.17985 8.71823 6.6492 8.05262 7.25181 7.4854C7.85442 6.91818 8.56133 6.48408 9.37254 6.18311C10.1838 5.87056 11.0761 5.71429 12.0495 5.71429C13.1273 5.71429 14.0949 5.89371 14.9525 6.25256C15.8217 6.61142 16.5517 7.13233 17.1428 7.81531L15.3349 9.48224C14.8946 9.01921 14.4136 8.67772 13.8921 8.45777C13.3706 8.22626 12.8028 8.1105 12.1886 8.1105C11.5976 8.1105 11.0587 8.2031 10.572 8.38832C10.0852 8.57353 9.66226 8.83978 9.30301 9.18706C8.95535 9.53433 8.68301 9.94528 8.48601 10.4199C8.30059 10.8945 8.20788 11.4212 8.20788 12C8.20788 12.5672 8.30059 13.0881 8.48601 13.5627C8.68301 14.0374 8.95535 14.4541 9.30301 14.8129C9.66226 15.1602 10.0795 15.4265 10.5546 15.6117C11.0413 15.7969 11.5744 15.8895 12.1538 15.8895C12.7101 15.8895 13.249 15.8027 13.7705 15.629C14.3035 15.4438 14.8192 15.1371 15.3176 14.7088L16.9168 16.7403C16.2562 17.2381 15.4856 17.6201 14.6048 17.8863C13.7357 18.1526 12.8665 18.2857 11.9974 18.2857ZM14.3441 16.3757V11.809H16.9168V16.7403L14.3441 16.3757Z" fill="#10BB76"/>
<path d="M10.8571 15.9286H13.0178V20.25H10.8571V15.9286Z" fill="#10BB76"/>
<path d="M10.8571 3.75H13.0178V8.07143H10.8571V3.75Z" fill="#10BB76"/>
</svg>
