<svg width="56" height="56" viewBox="0 0 56 56" fill="none" xmlns="http://www.w3.org/2000/svg">
<path d="M51.3335 14V19.6467C51.3335 23.3333 49.0002 25.6667 45.3135 25.6667H37.3335V9.35667C37.3335 6.76667 39.4568 4.66667 42.0468 4.66667C44.5902 4.69 46.9235 5.71667 48.6035 7.39667C50.2835 9.1 51.3335 11.4333 51.3335 14Z" fill="#616161"/>
<path opacity="0.4" d="M4.6665 16.3333V49C4.6665 50.9367 6.85985 52.0333 8.39985 50.8667L12.3898 47.88C13.3232 47.18 14.6298 47.2733 15.4698 48.1133L19.3432 52.01C20.2532 52.92 21.7465 52.92 22.6565 52.01L26.5765 48.09C27.3932 47.2733 28.6998 47.18 29.6098 47.88L33.5998 50.8667C35.1398 52.01 37.3332 50.9133 37.3332 49V9.33333C37.3332 6.76667 39.4332 4.66667 41.9998 4.66667H16.3332H13.9998C6.99984 4.66667 4.6665 8.84333 4.6665 14V16.3333Z" fill="#616161"/>
<path d="M27.4168 21.5833H22.7502V16.9167C22.7502 15.96 21.9568 15.1667 21.0002 15.1667C20.0435 15.1667 19.2502 15.96 19.2502 16.9167V21.5833H14.5835C13.6268 21.5833 12.8335 22.3767 12.8335 23.3333C12.8335 24.29 13.6268 25.0833 14.5835 25.0833H19.2502V29.75C19.2502 30.7067 20.0435 31.5 21.0002 31.5C21.9568 31.5 22.7502 30.7067 22.7502 29.75V25.0833H27.4168C28.3735 25.0833 29.1668 24.29 29.1668 23.3333C29.1668 22.3767 28.3735 21.5833 27.4168 21.5833Z" fill="#616161"/>
</svg>
