<svg width="89" height="91" viewBox="0 0 89 91" fill="none" xmlns="http://www.w3.org/2000/svg">
<mask id="mask0_22807_4988" style="mask-type:alpha" maskUnits="userSpaceOnUse" x="0" y="0" width="89" height="91">
<path d="M44.5007 90.0832C68.8932 90.0832 88.6673 70.1225 88.6673 45.4998C88.6673 20.8771 68.8932 0.916504 44.5007 0.916504C20.1081 0.916504 0.333984 20.8771 0.333984 45.4998C0.333984 70.1225 20.1081 90.0832 44.5007 90.0832Z" fill="#10BB76"/>
</mask>
<g mask="url(#mask0_22807_4988)">
<path d="M44.4997 90.0836C68.8923 90.0836 88.6663 70.123 88.6663 45.5003C88.6663 20.8776 68.8923 0.916992 44.4997 0.916992C20.1071 0.916992 0.333008 20.8776 0.333008 45.5003C0.333008 70.123 20.1071 90.0836 44.4997 90.0836Z" fill="#1F8F69"/>
<path d="M38.2284 60.7368C37.345 60.7368 36.5059 60.3802 35.8875 59.756L23.3884 47.1389C22.1075 45.846 22.1075 43.706 23.3884 42.4131C24.6692 41.1202 26.7892 41.1202 28.07 42.4131L38.2284 52.6673L60.93 29.7514C62.2109 28.4585 64.3309 28.4585 65.6117 29.7514C66.8925 31.0443 66.8925 33.1843 65.6117 34.4773L40.5692 59.756C39.9509 60.3802 39.1117 60.7368 38.2284 60.7368Z" fill="white"/>
</g>
</svg>
